G04 EAGLE Gerber RS-274X export*
G75*
%MOMM*%
%FSLAX34Y34*%
%LPD*%
%AMOC8*
5,1,8,0,0,1.08239X$1,22.5*%
G01*
%ADD10C,0.177800*%
%ADD11C,0.076200*%
%ADD12C,0.127000*%
%ADD13C,0.152400*%
%ADD14R,0.120000X0.020000*%
%ADD15R,0.340000X0.020000*%
%ADD16R,0.320000X0.020000*%
%ADD17R,0.140000X0.020000*%
%ADD18R,0.280000X0.020000*%
%ADD19R,0.360000X0.020000*%
%ADD20R,0.420000X0.020000*%
%ADD21R,0.380000X0.020000*%
%ADD22R,0.480000X0.020000*%
%ADD23R,0.540000X0.020000*%
%ADD24R,0.560000X0.020000*%
%ADD25R,0.400000X0.020000*%
%ADD26R,0.640000X0.020000*%
%ADD27R,0.620000X0.020000*%
%ADD28R,0.700000X0.020000*%
%ADD29R,0.660000X0.020000*%
%ADD30R,0.740000X0.020000*%
%ADD31R,1.080000X0.020000*%
%ADD32R,0.800000X0.020000*%
%ADD33R,1.100000X0.020000*%
%ADD34R,0.440000X0.020000*%
%ADD35R,0.840000X0.020000*%
%ADD36R,1.120000X0.020000*%
%ADD37R,0.460000X0.020000*%
%ADD38R,0.860000X0.020000*%
%ADD39R,0.900000X0.020000*%
%ADD40R,1.140000X0.020000*%
%ADD41R,0.920000X0.020000*%
%ADD42R,1.160000X0.020000*%
%ADD43R,0.960000X0.020000*%
%ADD44R,0.500000X0.020000*%
%ADD45R,0.520000X0.020000*%
%ADD46R,0.940000X0.020000*%
%ADD47R,0.260000X0.020000*%
%ADD48R,0.180000X0.020000*%
%ADD49R,0.580000X0.020000*%
%ADD50R,0.060000X0.020000*%
%ADD51R,0.600000X0.020000*%
%ADD52R,0.300000X0.020000*%
%ADD53R,0.040000X0.020000*%
%ADD54R,0.100000X0.020000*%
%ADD55R,0.160000X0.020000*%
%ADD56R,0.220000X0.020000*%
%ADD57R,0.980000X0.020000*%
%ADD58R,0.880000X0.020000*%
%ADD59R,0.760000X0.020000*%
%ADD60R,1.060000X0.020000*%
%ADD61R,0.720000X0.020000*%
%ADD62R,0.820000X0.020000*%
%ADD63R,1.180000X0.020000*%
%ADD64R,1.340000X0.020000*%
%ADD65R,1.460000X0.020000*%
%ADD66R,1.600000X0.020000*%
%ADD67R,1.700000X0.020000*%
%ADD68R,1.820000X0.020000*%
%ADD69R,1.900000X0.020000*%
%ADD70R,1.980000X0.020000*%
%ADD71R,2.100000X0.020000*%
%ADD72R,2.160000X0.020000*%
%ADD73R,2.260000X0.020000*%
%ADD74R,2.340000X0.020000*%
%ADD75R,2.400000X0.020000*%
%ADD76R,2.480000X0.020000*%
%ADD77R,2.540000X0.020000*%
%ADD78R,2.600000X0.020000*%
%ADD79R,2.680000X0.020000*%
%ADD80R,2.720000X0.020000*%
%ADD81R,2.800000X0.020000*%
%ADD82R,2.840000X0.020000*%
%ADD83R,2.900000X0.020000*%
%ADD84R,2.960000X0.020000*%
%ADD85R,3.000000X0.020000*%
%ADD86R,3.060000X0.020000*%
%ADD87R,3.120000X0.020000*%
%ADD88R,3.160000X0.020000*%
%ADD89R,3.200000X0.020000*%
%ADD90R,3.260000X0.020000*%
%ADD91R,3.300000X0.020000*%
%ADD92R,3.340000X0.020000*%
%ADD93R,3.380000X0.020000*%
%ADD94R,3.420000X0.020000*%
%ADD95R,3.460000X0.020000*%
%ADD96R,3.520000X0.020000*%
%ADD97R,3.540000X0.020000*%
%ADD98R,3.580000X0.020000*%
%ADD99R,3.620000X0.020000*%
%ADD100R,3.660000X0.020000*%
%ADD101R,3.700000X0.020000*%
%ADD102R,3.740000X0.020000*%
%ADD103R,3.780000X0.020000*%
%ADD104R,3.800000X0.020000*%
%ADD105R,3.840000X0.020000*%
%ADD106R,3.860000X0.020000*%
%ADD107R,3.900000X0.020000*%
%ADD108R,3.940000X0.020000*%
%ADD109R,3.960000X0.020000*%
%ADD110R,3.980000X0.020000*%
%ADD111R,4.020000X0.020000*%
%ADD112R,4.060000X0.020000*%
%ADD113R,4.080000X0.020000*%
%ADD114R,4.100000X0.020000*%
%ADD115R,4.120000X0.020000*%
%ADD116R,4.160000X0.020000*%
%ADD117R,4.180000X0.020000*%
%ADD118R,4.200000X0.020000*%
%ADD119R,4.240000X0.020000*%
%ADD120R,4.260000X0.020000*%
%ADD121R,4.280000X0.020000*%
%ADD122R,4.300000X0.020000*%
%ADD123R,4.320000X0.020000*%
%ADD124R,4.340000X0.020000*%
%ADD125R,4.380000X0.020000*%
%ADD126R,4.400000X0.020000*%
%ADD127R,4.440000X0.020000*%
%ADD128R,4.460000X0.020000*%
%ADD129R,4.500000X0.020000*%
%ADD130R,4.520000X0.020000*%
%ADD131R,4.540000X0.020000*%
%ADD132R,4.560000X0.020000*%
%ADD133R,4.580000X0.020000*%
%ADD134R,4.600000X0.020000*%
%ADD135R,4.620000X0.020000*%
%ADD136R,4.640000X0.020000*%
%ADD137R,4.660000X0.020000*%
%ADD138R,4.680000X0.020000*%
%ADD139R,4.700000X0.020000*%
%ADD140R,4.720000X0.020000*%
%ADD141R,4.740000X0.020000*%
%ADD142R,0.680000X0.020000*%
%ADD143R,1.480000X0.020000*%
%ADD144R,1.580000X0.020000*%
%ADD145R,1.560000X0.020000*%
%ADD146R,1.540000X0.020000*%
%ADD147R,1.520000X0.020000*%
%ADD148R,1.500000X0.020000*%
%ADD149R,1.440000X0.020000*%
%ADD150R,1.400000X0.020000*%
%ADD151R,1.420000X0.020000*%
%ADD152R,1.380000X0.020000*%
%ADD153R,1.360000X0.020000*%
%ADD154R,1.320000X0.020000*%
%ADD155R,1.300000X0.020000*%
%ADD156R,1.260000X0.020000*%
%ADD157R,1.220000X0.020000*%
%ADD158R,1.200000X0.020000*%
%ADD159R,1.040000X0.020000*%
%ADD160R,1.020000X0.020000*%
%ADD161R,1.000000X0.020000*%
%ADD162R,1.280000X0.020000*%
%ADD163R,0.780000X0.020000*%
%ADD164R,1.240000X0.020000*%
%ADD165R,0.020000X0.020000*%
%ADD166R,1.840000X0.020000*%
%ADD167R,1.800000X0.020000*%
%ADD168R,1.780000X0.020000*%
%ADD169R,1.760000X0.020000*%
%ADD170R,1.740000X0.020000*%
%ADD171R,1.680000X0.020000*%
%ADD172R,1.660000X0.020000*%
%ADD173R,1.620000X0.020000*%

G36*
X236155Y343556D02*
X236155Y343556D01*
X236154Y343556D01*
X236155Y343557D01*
X236152Y345947D01*
X236147Y348334D01*
X236144Y350723D01*
X236139Y353113D01*
X236136Y355500D01*
X236131Y357889D01*
X236128Y360276D01*
X236128Y360279D01*
X236123Y362666D01*
X236120Y365056D01*
X236118Y367443D01*
X236112Y369832D01*
X236110Y372219D01*
X236104Y374609D01*
X236102Y376996D01*
X236097Y377002D01*
X236096Y377006D01*
X233794Y378340D01*
X231492Y379673D01*
X229193Y381007D01*
X224590Y383674D01*
X222291Y385007D01*
X217688Y387674D01*
X215389Y389008D01*
X213087Y390341D01*
X210780Y391680D01*
X208474Y393016D01*
X206169Y394352D01*
X203862Y395691D01*
X201555Y397030D01*
X199251Y398366D01*
X196944Y399705D01*
X194640Y401044D01*
X192333Y402385D01*
X190052Y403718D01*
X192446Y404754D01*
X194871Y405783D01*
X197295Y406810D01*
X199722Y407834D01*
X202149Y408855D01*
X204576Y409877D01*
X207003Y410896D01*
X209432Y411917D01*
X211859Y412933D01*
X214166Y413901D01*
X216470Y414870D01*
X218777Y415835D01*
X221082Y416803D01*
X223389Y417769D01*
X225693Y418737D01*
X228000Y419705D01*
X230304Y420673D01*
X232611Y421641D01*
X234915Y422609D01*
X234916Y422609D01*
X236094Y423111D01*
X236097Y423116D01*
X236101Y423120D01*
X236100Y423122D01*
X236101Y423125D01*
X236094Y423128D01*
X236090Y423134D01*
X230788Y423134D01*
X228137Y423136D01*
X204280Y423136D01*
X201629Y423139D01*
X180427Y423139D01*
X177776Y423142D01*
X156570Y423142D01*
X156559Y423131D01*
X156559Y423130D01*
X156558Y423130D01*
X156561Y420737D01*
X156566Y418342D01*
X156569Y415950D01*
X156574Y413555D01*
X156577Y411163D01*
X156580Y408768D01*
X156585Y406373D01*
X156588Y403981D01*
X156593Y401586D01*
X156596Y399193D01*
X156601Y396798D01*
X156604Y394406D01*
X156609Y392011D01*
X156612Y389616D01*
X156617Y389610D01*
X156618Y389606D01*
X158914Y388278D01*
X161208Y386947D01*
X163504Y385619D01*
X165800Y384288D01*
X168094Y382957D01*
X170390Y381629D01*
X172684Y380298D01*
X174980Y378967D01*
X177276Y377639D01*
X179570Y376308D01*
X186475Y372308D01*
X188776Y370971D01*
X193380Y368304D01*
X195679Y366968D01*
X197980Y365635D01*
X200279Y364296D01*
X202558Y362969D01*
X200134Y361914D01*
X197678Y360872D01*
X195224Y359834D01*
X192768Y358797D01*
X190309Y357762D01*
X187850Y356727D01*
X185391Y355695D01*
X182932Y354663D01*
X180627Y353697D01*
X178320Y352729D01*
X176014Y351761D01*
X173707Y350796D01*
X171402Y349828D01*
X169095Y348859D01*
X166788Y347894D01*
X164484Y346926D01*
X162177Y345958D01*
X159873Y344990D01*
X158193Y344283D01*
X156512Y343576D01*
X156510Y343571D01*
X156505Y343567D01*
X156507Y343565D01*
X156506Y343562D01*
X156512Y343559D01*
X156517Y343553D01*
X161824Y343553D01*
X164478Y343550D01*
X198984Y343550D01*
X201637Y343548D01*
X233489Y343548D01*
X236143Y343545D01*
X236155Y343556D01*
G37*
G36*
X204940Y322404D02*
X204940Y322404D01*
X206329Y322473D01*
X206331Y322475D01*
X206332Y322474D01*
X208517Y323223D01*
X208518Y323225D01*
X208520Y323225D01*
X210419Y324534D01*
X210419Y324536D01*
X210421Y324536D01*
X211877Y326326D01*
X211877Y326328D01*
X211879Y326329D01*
X212751Y328463D01*
X212750Y328465D01*
X212752Y328466D01*
X212933Y330485D01*
X212932Y330486D01*
X212933Y330487D01*
X212704Y332498D01*
X212702Y332500D01*
X212703Y332502D01*
X211676Y334798D01*
X211674Y334799D01*
X211674Y334801D01*
X210018Y336695D01*
X210016Y336695D01*
X210015Y336697D01*
X208484Y337636D01*
X208483Y337636D01*
X208483Y337637D01*
X206813Y338306D01*
X206811Y338305D01*
X206810Y338307D01*
X204940Y338478D01*
X204626Y338507D01*
X204624Y338506D01*
X204623Y338507D01*
X202436Y338315D01*
X202435Y338313D01*
X202433Y338314D01*
X200555Y337549D01*
X200555Y337547D01*
X200553Y337548D01*
X198873Y336417D01*
X198872Y336415D01*
X198871Y336415D01*
X197446Y334726D01*
X197446Y334724D01*
X197444Y334723D01*
X196578Y332694D01*
X196578Y332692D01*
X196577Y332690D01*
X196313Y330496D01*
X196314Y330494D01*
X196313Y330493D01*
X196454Y328680D01*
X196456Y328678D01*
X196455Y328676D01*
X197079Y326970D01*
X197081Y326969D01*
X197080Y326967D01*
X198347Y325047D01*
X198349Y325046D01*
X198349Y325044D01*
X200109Y323567D01*
X200112Y323567D01*
X200112Y323565D01*
X202222Y322642D01*
X202224Y322643D01*
X202225Y322641D01*
X204268Y322369D01*
X204269Y322370D01*
X204270Y322369D01*
X204940Y322404D01*
G37*
G36*
X236155Y322652D02*
X236155Y322652D01*
X236154Y322652D01*
X236155Y322653D01*
X236150Y323960D01*
X236144Y325267D01*
X236141Y325271D01*
X236141Y325275D01*
X234715Y326928D01*
X231861Y330235D01*
X230434Y331889D01*
X227597Y335176D01*
X229633Y335189D01*
X231697Y335203D01*
X233759Y335216D01*
X235823Y335232D01*
X235835Y335243D01*
X235834Y335243D01*
X235835Y335244D01*
X235835Y338226D01*
X235824Y338238D01*
X235824Y338237D01*
X235823Y338238D01*
X223021Y338238D01*
X223010Y338227D01*
X223010Y338226D01*
X223009Y338226D01*
X223009Y335716D01*
X223013Y335712D01*
X223012Y335708D01*
X224450Y334039D01*
X225887Y332369D01*
X227322Y330697D01*
X228760Y329027D01*
X230195Y327358D01*
X231615Y325705D01*
X230978Y325697D01*
X230976Y325697D01*
X230019Y325685D01*
X230017Y325685D01*
X229499Y325679D01*
X229060Y325673D01*
X229058Y325673D01*
X228101Y325661D01*
X228099Y325661D01*
X228098Y325661D01*
X227358Y325652D01*
X227142Y325649D01*
X227140Y325649D01*
X226184Y325637D01*
X226182Y325637D01*
X225226Y325626D01*
X225224Y325626D01*
X225224Y325625D01*
X225216Y325625D01*
X224267Y325614D01*
X224265Y325614D01*
X223308Y325602D01*
X223306Y325602D01*
X223075Y325599D01*
X223063Y325588D01*
X223063Y325587D01*
X223033Y324120D01*
X223004Y322653D01*
X223014Y322641D01*
X223015Y322642D01*
X223016Y322641D01*
X236143Y322641D01*
X236155Y322652D01*
G37*
G36*
X181118Y322484D02*
X181118Y322484D01*
X181120Y322486D01*
X181122Y322485D01*
X183442Y323343D01*
X183443Y323346D01*
X183445Y323345D01*
X185387Y324876D01*
X185387Y324878D01*
X185389Y324879D01*
X186760Y326938D01*
X186760Y326940D01*
X186761Y326940D01*
X187324Y328615D01*
X187324Y328616D01*
X187323Y328617D01*
X187325Y328618D01*
X187453Y330387D01*
X187452Y330388D01*
X187453Y330388D01*
X187298Y332317D01*
X187296Y332318D01*
X187297Y332320D01*
X186612Y334125D01*
X186610Y334126D01*
X186611Y334128D01*
X185467Y335891D01*
X185464Y335891D01*
X185464Y335893D01*
X183867Y337256D01*
X183865Y337256D01*
X183864Y337258D01*
X181960Y338149D01*
X181958Y338148D01*
X181958Y338149D01*
X180619Y338475D01*
X180617Y338474D01*
X180616Y338475D01*
X180387Y338478D01*
X180385Y338478D01*
X179505Y338490D01*
X179503Y338490D01*
X179237Y338494D01*
X179237Y338493D01*
X179237Y338494D01*
X179085Y338490D01*
X179084Y338490D01*
X178582Y338478D01*
X178581Y338478D01*
X178079Y338466D01*
X178077Y338466D01*
X177887Y338462D01*
X177886Y338461D01*
X177885Y338461D01*
X176568Y338195D01*
X176567Y338194D01*
X176566Y338194D01*
X175088Y337605D01*
X175087Y337603D01*
X175086Y337604D01*
X173769Y336715D01*
X173768Y336712D01*
X173765Y336712D01*
X173285Y335946D01*
X173287Y335937D01*
X173286Y335932D01*
X174275Y334770D01*
X174276Y334769D01*
X175300Y333633D01*
X175306Y333632D01*
X175307Y333631D01*
X175312Y333631D01*
X175312Y333632D01*
X175316Y333631D01*
X175316Y333632D01*
X175907Y334066D01*
X177633Y335048D01*
X179594Y335309D01*
X181027Y335011D01*
X182253Y334214D01*
X183451Y332495D01*
X183860Y330441D01*
X183451Y328384D01*
X182253Y326668D01*
X181017Y325867D01*
X179570Y325570D01*
X177601Y325801D01*
X175883Y326808D01*
X175191Y327348D01*
X175175Y327347D01*
X174081Y326262D01*
X172991Y325174D01*
X172990Y325170D01*
X172990Y325169D01*
X172990Y325158D01*
X172991Y325158D01*
X172991Y325157D01*
X173495Y324640D01*
X173496Y324640D01*
X173496Y324639D01*
X174709Y323660D01*
X174711Y323660D01*
X174711Y323659D01*
X176076Y322904D01*
X176079Y322905D01*
X176080Y322903D01*
X178571Y322375D01*
X178572Y322376D01*
X178574Y322374D01*
X181118Y322484D01*
G37*
G36*
X164092Y322398D02*
X164092Y322398D01*
X164093Y322400D01*
X164095Y322399D01*
X166439Y323116D01*
X166440Y323118D01*
X166442Y323118D01*
X168523Y324547D01*
X168523Y324550D01*
X168525Y324550D01*
X170030Y326574D01*
X170029Y326577D01*
X170031Y326578D01*
X170834Y328973D01*
X170833Y328975D01*
X170835Y328976D01*
X170891Y331499D01*
X170889Y331501D01*
X170890Y331501D01*
X170889Y331501D01*
X170890Y331503D01*
X170184Y333927D01*
X170181Y333929D01*
X170182Y333931D01*
X168755Y336011D01*
X168753Y336011D01*
X168753Y336013D01*
X166848Y337523D01*
X166846Y337523D01*
X166845Y337525D01*
X164568Y338370D01*
X164565Y338369D01*
X164564Y338371D01*
X162137Y338528D01*
X162136Y338527D01*
X162134Y338528D01*
X159534Y338032D01*
X159532Y338030D01*
X159530Y338031D01*
X157231Y336721D01*
X157230Y336718D01*
X157228Y336718D01*
X156694Y336006D01*
X156695Y335994D01*
X156695Y335991D01*
X157711Y334796D01*
X158759Y333633D01*
X158775Y333631D01*
X159479Y334138D01*
X160863Y334966D01*
X162436Y335309D01*
X164383Y335059D01*
X165997Y333945D01*
X167165Y331744D01*
X167186Y329249D01*
X166066Y327022D01*
X164556Y325907D01*
X162710Y325548D01*
X160903Y325862D01*
X159324Y326810D01*
X158637Y327338D01*
X158621Y327337D01*
X157591Y326305D01*
X157591Y326304D01*
X156561Y325155D01*
X156561Y325139D01*
X156562Y325139D01*
X156562Y325138D01*
X158269Y323572D01*
X158272Y323572D01*
X158272Y323570D01*
X160099Y322738D01*
X160101Y322739D01*
X160102Y322737D01*
X162078Y322359D01*
X162080Y322360D01*
X162081Y322358D01*
X164092Y322398D01*
G37*
%LPC*%
G36*
X205491Y325675D02*
X205491Y325675D01*
X205113Y325687D01*
X204939Y325692D01*
X204703Y325700D01*
X204331Y325712D01*
X204330Y325712D01*
X203958Y325724D01*
X203586Y325735D01*
X203585Y325735D01*
X203214Y325747D01*
X203213Y325747D01*
X203196Y325748D01*
X201031Y327187D01*
X200054Y329188D01*
X200009Y331412D01*
X200903Y333447D01*
X202611Y334870D01*
X204627Y335336D01*
X204937Y335270D01*
X206654Y334900D01*
X208276Y333615D01*
X209240Y331441D01*
X209141Y329065D01*
X207976Y326996D01*
X205781Y325666D01*
X205491Y325675D01*
G37*
%LPD*%
G36*
X219622Y322652D02*
X219622Y322652D01*
X219621Y322652D01*
X219622Y322653D01*
X219622Y338226D01*
X219612Y338238D01*
X219611Y338237D01*
X219610Y338238D01*
X216196Y338238D01*
X216185Y338227D01*
X216185Y338226D01*
X216185Y322653D01*
X216195Y322641D01*
X216196Y322642D01*
X216196Y322641D01*
X219610Y322641D01*
X219622Y322652D01*
G37*
G36*
X193702Y322652D02*
X193702Y322652D01*
X193701Y322652D01*
X193702Y322653D01*
X193702Y326174D01*
X193691Y326185D01*
X193690Y326185D01*
X190063Y326185D01*
X190051Y326175D01*
X190051Y326174D01*
X190051Y322653D01*
X190061Y322641D01*
X190062Y322642D01*
X190063Y322641D01*
X193690Y322641D01*
X193702Y322652D01*
G37*
D10*
X326771Y446165D02*
X316094Y446165D01*
X316094Y443495D01*
X326771Y432818D01*
X326771Y430149D01*
X316094Y430149D01*
X310399Y440826D02*
X307730Y440826D01*
X307730Y430149D01*
X310399Y430149D02*
X305061Y430149D01*
X307730Y446165D02*
X307730Y448834D01*
X296816Y430149D02*
X291477Y430149D01*
X288808Y432818D01*
X288808Y438157D01*
X291477Y440826D01*
X296816Y440826D01*
X299485Y438157D01*
X299485Y432818D01*
X296816Y430149D01*
X266742Y432818D02*
X266742Y443495D01*
X264073Y446165D01*
X258734Y446165D01*
X256065Y443495D01*
X256065Y432818D01*
X258734Y430149D01*
X264073Y430149D01*
X266742Y432818D01*
X261403Y435488D02*
X256065Y430149D01*
X250370Y432818D02*
X250370Y440826D01*
X250370Y432818D02*
X247701Y430149D01*
X245032Y432818D01*
X242363Y430149D01*
X239693Y432818D01*
X239693Y440826D01*
X233999Y440826D02*
X231330Y440826D01*
X231330Y430149D01*
X233999Y430149D02*
X228660Y430149D01*
X231330Y446165D02*
X231330Y448834D01*
X223084Y440826D02*
X220415Y440826D01*
X220415Y430149D01*
X223084Y430149D02*
X217746Y430149D01*
X220415Y446165D02*
X220415Y448834D01*
X209501Y440826D02*
X201493Y440826D01*
X209501Y440826D02*
X212170Y438157D01*
X212170Y432818D01*
X209501Y430149D01*
X201493Y430149D01*
X179427Y430149D02*
X179427Y446165D01*
X174088Y440826D01*
X168750Y446165D01*
X168750Y430149D01*
X163055Y430149D02*
X163055Y446165D01*
X155048Y446165D01*
X152378Y443495D01*
X152378Y438157D01*
X155048Y435488D01*
X163055Y435488D01*
X146684Y443495D02*
X144015Y446165D01*
X138676Y446165D01*
X136007Y443495D01*
X136007Y440826D01*
X138676Y438157D01*
X141345Y438157D01*
X138676Y438157D02*
X136007Y435488D01*
X136007Y432818D01*
X138676Y430149D01*
X144015Y430149D01*
X146684Y432818D01*
X113941Y430149D02*
X113941Y446165D01*
X105933Y446165D01*
X103264Y443495D01*
X103264Y438157D01*
X105933Y435488D01*
X113941Y435488D01*
X97569Y446165D02*
X94900Y446165D01*
X94900Y430149D01*
X97569Y430149D02*
X92231Y430149D01*
X83985Y440826D02*
X78647Y440826D01*
X75978Y438157D01*
X75978Y430149D01*
X83985Y430149D01*
X86655Y432818D01*
X83985Y435488D01*
X75978Y435488D01*
X70283Y432818D02*
X70283Y440826D01*
X70283Y432818D02*
X67614Y430149D01*
X59606Y430149D01*
X59606Y427480D02*
X59606Y440826D01*
X59606Y427480D02*
X62275Y424810D01*
X64945Y424810D01*
X51242Y430149D02*
X45904Y430149D01*
X51242Y430149D02*
X53912Y432818D01*
X53912Y438157D01*
X51242Y440826D01*
X45904Y440826D01*
X43235Y438157D01*
X43235Y435488D01*
X53912Y435488D01*
X37540Y430149D02*
X37540Y440826D01*
X37540Y435488D02*
X32202Y440826D01*
X29532Y440826D01*
D11*
X192913Y287944D02*
X197828Y287944D01*
X200285Y290402D01*
X197828Y292859D01*
X192913Y292859D01*
X196599Y292859D02*
X196599Y287944D01*
X200285Y295429D02*
X192913Y295429D01*
X192913Y299115D01*
X194142Y300343D01*
X199057Y300343D01*
X200285Y299115D01*
X200285Y295429D01*
X200285Y302913D02*
X192913Y302913D01*
X192913Y306599D01*
X194142Y307828D01*
X199057Y307828D01*
X200285Y306599D01*
X200285Y302913D01*
X200285Y310397D02*
X192913Y310397D01*
X200285Y310397D02*
X200285Y314083D01*
X199057Y315312D01*
X196599Y315312D01*
X195370Y314083D01*
X195370Y310397D01*
X195370Y312854D02*
X192913Y315312D01*
X111379Y204810D02*
X110150Y203581D01*
X108922Y203581D01*
X107693Y204810D01*
X107693Y210953D01*
X108922Y210953D02*
X106464Y210953D01*
X103895Y210953D02*
X103895Y203581D01*
X103895Y210953D02*
X100209Y210953D01*
X98980Y209725D01*
X98980Y207267D01*
X100209Y206038D01*
X103895Y206038D01*
X96411Y208496D02*
X93953Y210953D01*
X93953Y203581D01*
X91496Y203581D02*
X96411Y203581D01*
D12*
X216738Y74536D02*
X356738Y74536D01*
X356738Y107536D01*
X356738Y216536D01*
X356738Y224536D01*
X216738Y224536D01*
X216738Y74536D01*
X381738Y107536D02*
X381738Y121336D01*
X381738Y131336D02*
X381738Y145136D01*
X381738Y155136D02*
X381738Y168936D01*
X381738Y178936D02*
X381738Y192736D01*
X381738Y202736D02*
X381738Y216536D01*
X374238Y216536D01*
X364238Y216536D02*
X356738Y216536D01*
X374238Y107536D02*
X381738Y107536D01*
X364238Y107536D02*
X356738Y107536D01*
D13*
X115748Y234608D02*
X90348Y234608D01*
X115748Y214288D02*
X115848Y214290D01*
X115947Y214296D01*
X116047Y214306D01*
X116145Y214319D01*
X116244Y214337D01*
X116341Y214358D01*
X116437Y214383D01*
X116533Y214412D01*
X116627Y214445D01*
X116720Y214481D01*
X116811Y214521D01*
X116901Y214565D01*
X116989Y214612D01*
X117075Y214662D01*
X117159Y214716D01*
X117241Y214773D01*
X117320Y214833D01*
X117398Y214897D01*
X117472Y214963D01*
X117544Y215032D01*
X117613Y215104D01*
X117679Y215178D01*
X117743Y215256D01*
X117803Y215335D01*
X117860Y215417D01*
X117914Y215501D01*
X117964Y215587D01*
X118011Y215675D01*
X118055Y215765D01*
X118095Y215856D01*
X118131Y215949D01*
X118164Y216043D01*
X118193Y216139D01*
X118218Y216235D01*
X118239Y216332D01*
X118257Y216431D01*
X118270Y216529D01*
X118280Y216629D01*
X118286Y216728D01*
X118288Y216828D01*
X90348Y214288D02*
X90248Y214290D01*
X90149Y214296D01*
X90049Y214306D01*
X89951Y214319D01*
X89852Y214337D01*
X89755Y214358D01*
X89659Y214383D01*
X89563Y214412D01*
X89469Y214445D01*
X89376Y214481D01*
X89285Y214521D01*
X89195Y214565D01*
X89107Y214612D01*
X89021Y214662D01*
X88937Y214716D01*
X88855Y214773D01*
X88776Y214833D01*
X88698Y214897D01*
X88624Y214963D01*
X88552Y215032D01*
X88483Y215104D01*
X88417Y215178D01*
X88353Y215256D01*
X88293Y215335D01*
X88236Y215417D01*
X88182Y215501D01*
X88132Y215587D01*
X88085Y215675D01*
X88041Y215765D01*
X88001Y215856D01*
X87965Y215949D01*
X87932Y216043D01*
X87903Y216139D01*
X87878Y216235D01*
X87857Y216332D01*
X87839Y216431D01*
X87826Y216529D01*
X87816Y216629D01*
X87810Y216728D01*
X87808Y216828D01*
X87808Y232068D02*
X87810Y232168D01*
X87816Y232267D01*
X87826Y232367D01*
X87839Y232465D01*
X87857Y232564D01*
X87878Y232661D01*
X87903Y232757D01*
X87932Y232853D01*
X87965Y232947D01*
X88001Y233040D01*
X88041Y233131D01*
X88085Y233221D01*
X88132Y233309D01*
X88182Y233395D01*
X88236Y233479D01*
X88293Y233561D01*
X88353Y233640D01*
X88417Y233718D01*
X88483Y233792D01*
X88552Y233864D01*
X88624Y233933D01*
X88698Y233999D01*
X88776Y234063D01*
X88855Y234123D01*
X88937Y234180D01*
X89021Y234234D01*
X89107Y234284D01*
X89195Y234331D01*
X89285Y234375D01*
X89376Y234415D01*
X89469Y234451D01*
X89563Y234484D01*
X89659Y234513D01*
X89755Y234538D01*
X89852Y234559D01*
X89951Y234577D01*
X90049Y234590D01*
X90149Y234600D01*
X90248Y234606D01*
X90348Y234608D01*
X115748Y234608D02*
X115848Y234606D01*
X115947Y234600D01*
X116047Y234590D01*
X116145Y234577D01*
X116244Y234559D01*
X116341Y234538D01*
X116437Y234513D01*
X116533Y234484D01*
X116627Y234451D01*
X116720Y234415D01*
X116811Y234375D01*
X116901Y234331D01*
X116989Y234284D01*
X117075Y234234D01*
X117159Y234180D01*
X117241Y234123D01*
X117320Y234063D01*
X117398Y233999D01*
X117472Y233933D01*
X117544Y233864D01*
X117613Y233792D01*
X117679Y233718D01*
X117743Y233640D01*
X117803Y233561D01*
X117860Y233479D01*
X117914Y233395D01*
X117964Y233309D01*
X118011Y233221D01*
X118055Y233131D01*
X118095Y233040D01*
X118131Y232947D01*
X118164Y232853D01*
X118193Y232757D01*
X118218Y232661D01*
X118239Y232564D01*
X118257Y232465D01*
X118270Y232367D01*
X118280Y232267D01*
X118286Y232168D01*
X118288Y232068D01*
X118288Y216828D01*
X87808Y216828D02*
X87808Y232068D01*
X90348Y214288D02*
X115748Y214288D01*
X203390Y294606D02*
X203390Y311878D01*
X221170Y314418D02*
X221270Y314416D01*
X221369Y314410D01*
X221469Y314400D01*
X221567Y314387D01*
X221666Y314369D01*
X221763Y314348D01*
X221859Y314323D01*
X221955Y314294D01*
X222049Y314261D01*
X222142Y314225D01*
X222233Y314185D01*
X222323Y314141D01*
X222411Y314094D01*
X222497Y314044D01*
X222581Y313990D01*
X222663Y313933D01*
X222742Y313873D01*
X222820Y313809D01*
X222894Y313743D01*
X222966Y313674D01*
X223035Y313602D01*
X223101Y313528D01*
X223165Y313450D01*
X223225Y313371D01*
X223282Y313289D01*
X223336Y313205D01*
X223386Y313119D01*
X223433Y313031D01*
X223477Y312941D01*
X223517Y312850D01*
X223553Y312757D01*
X223586Y312663D01*
X223615Y312567D01*
X223640Y312471D01*
X223661Y312374D01*
X223679Y312275D01*
X223692Y312177D01*
X223702Y312077D01*
X223708Y311978D01*
X223710Y311878D01*
X223710Y294606D02*
X223708Y294506D01*
X223702Y294407D01*
X223692Y294307D01*
X223679Y294209D01*
X223661Y294110D01*
X223640Y294013D01*
X223615Y293917D01*
X223586Y293821D01*
X223553Y293727D01*
X223517Y293634D01*
X223477Y293543D01*
X223433Y293453D01*
X223386Y293365D01*
X223336Y293279D01*
X223282Y293195D01*
X223225Y293113D01*
X223165Y293034D01*
X223101Y292956D01*
X223035Y292882D01*
X222966Y292810D01*
X222894Y292741D01*
X222820Y292675D01*
X222742Y292611D01*
X222663Y292551D01*
X222581Y292494D01*
X222497Y292440D01*
X222411Y292390D01*
X222323Y292343D01*
X222233Y292299D01*
X222142Y292259D01*
X222049Y292223D01*
X221955Y292190D01*
X221859Y292161D01*
X221763Y292136D01*
X221666Y292115D01*
X221567Y292097D01*
X221469Y292084D01*
X221369Y292074D01*
X221270Y292068D01*
X221170Y292066D01*
X205930Y292066D02*
X205830Y292068D01*
X205731Y292074D01*
X205631Y292084D01*
X205533Y292097D01*
X205434Y292115D01*
X205337Y292136D01*
X205241Y292161D01*
X205145Y292190D01*
X205051Y292223D01*
X204958Y292259D01*
X204867Y292299D01*
X204777Y292343D01*
X204689Y292390D01*
X204603Y292440D01*
X204519Y292494D01*
X204437Y292551D01*
X204358Y292611D01*
X204280Y292675D01*
X204206Y292741D01*
X204134Y292810D01*
X204065Y292882D01*
X203999Y292956D01*
X203935Y293034D01*
X203875Y293113D01*
X203818Y293195D01*
X203764Y293279D01*
X203714Y293365D01*
X203667Y293453D01*
X203623Y293543D01*
X203583Y293634D01*
X203547Y293727D01*
X203514Y293821D01*
X203485Y293917D01*
X203460Y294013D01*
X203439Y294110D01*
X203421Y294209D01*
X203408Y294307D01*
X203398Y294407D01*
X203392Y294506D01*
X203390Y294606D01*
X203390Y311878D02*
X203392Y311978D01*
X203398Y312077D01*
X203408Y312177D01*
X203421Y312275D01*
X203439Y312374D01*
X203460Y312471D01*
X203485Y312567D01*
X203514Y312663D01*
X203547Y312757D01*
X203583Y312850D01*
X203623Y312941D01*
X203667Y313031D01*
X203714Y313119D01*
X203764Y313205D01*
X203818Y313289D01*
X203875Y313371D01*
X203935Y313450D01*
X203999Y313528D01*
X204065Y313602D01*
X204134Y313674D01*
X204206Y313743D01*
X204280Y313809D01*
X204358Y313873D01*
X204437Y313933D01*
X204519Y313990D01*
X204603Y314044D01*
X204689Y314094D01*
X204777Y314141D01*
X204867Y314185D01*
X204958Y314225D01*
X205051Y314261D01*
X205145Y314294D01*
X205241Y314323D01*
X205337Y314348D01*
X205434Y314369D01*
X205533Y314387D01*
X205631Y314400D01*
X205731Y314410D01*
X205830Y314416D01*
X205930Y314418D01*
X221170Y314418D01*
X221170Y292066D02*
X205930Y292066D01*
X223710Y294606D02*
X223710Y311878D01*
D14*
X127180Y109400D03*
D15*
X121880Y109400D03*
X117680Y109400D03*
D16*
X109780Y109400D03*
X102180Y109400D03*
D15*
X98080Y109400D03*
X93880Y109400D03*
D17*
X86080Y109400D03*
D18*
X127180Y109200D03*
D19*
X121780Y109200D03*
X117580Y109200D03*
X109780Y109200D03*
D15*
X102080Y109200D03*
D19*
X98180Y109200D03*
X93780Y109200D03*
D16*
X85980Y109200D03*
D20*
X127280Y109000D03*
D19*
X121780Y109000D03*
X117580Y109000D03*
D21*
X109880Y109000D03*
D19*
X102180Y109000D03*
X98180Y109000D03*
X93780Y109000D03*
D22*
X85980Y109000D03*
X127180Y108800D03*
D19*
X121780Y108800D03*
X117580Y108800D03*
D21*
X109880Y108800D03*
D15*
X102280Y108800D03*
D19*
X98180Y108800D03*
X93780Y108800D03*
D23*
X86080Y108800D03*
D24*
X127180Y108600D03*
D19*
X121780Y108600D03*
X117380Y108600D03*
D25*
X109780Y108600D03*
D15*
X102280Y108600D03*
D19*
X98180Y108600D03*
X93780Y108600D03*
D26*
X85980Y108600D03*
D27*
X127280Y108400D03*
D19*
X121780Y108400D03*
X117380Y108400D03*
D25*
X109780Y108400D03*
D19*
X102380Y108400D03*
X98180Y108400D03*
X93780Y108400D03*
D28*
X86080Y108400D03*
D29*
X127280Y108200D03*
D21*
X121880Y108200D03*
D15*
X117280Y108200D03*
D20*
X109880Y108200D03*
D15*
X102480Y108200D03*
D19*
X98180Y108200D03*
X93780Y108200D03*
D30*
X86080Y108200D03*
D31*
X125380Y108000D03*
D19*
X117180Y108000D03*
D20*
X109880Y108000D03*
D15*
X102480Y108000D03*
D19*
X98180Y108000D03*
X93780Y108000D03*
D32*
X85980Y108000D03*
D33*
X125480Y107800D03*
D19*
X117180Y107800D03*
D34*
X109780Y107800D03*
D15*
X102480Y107800D03*
D19*
X98180Y107800D03*
X93780Y107800D03*
D35*
X85980Y107800D03*
D36*
X125580Y107600D03*
D15*
X117080Y107600D03*
D37*
X109880Y107600D03*
D15*
X102680Y107600D03*
D19*
X98180Y107600D03*
X93780Y107600D03*
D38*
X86080Y107600D03*
D36*
X125580Y107400D03*
D15*
X117080Y107400D03*
D37*
X109880Y107400D03*
D15*
X102680Y107400D03*
D19*
X98180Y107400D03*
X93780Y107400D03*
D39*
X86080Y107400D03*
D40*
X125680Y107200D03*
D19*
X116980Y107200D03*
D22*
X109780Y107200D03*
D16*
X102780Y107200D03*
D19*
X98180Y107200D03*
X93780Y107200D03*
D41*
X85980Y107200D03*
D42*
X125780Y107000D03*
D15*
X116880Y107000D03*
D22*
X109780Y107000D03*
D15*
X102880Y107000D03*
D19*
X98180Y107000D03*
X93780Y107000D03*
D43*
X85980Y107000D03*
D42*
X125780Y106800D03*
D15*
X116880Y106800D03*
D44*
X109880Y106800D03*
D15*
X102880Y106800D03*
D19*
X98180Y106800D03*
X93780Y106800D03*
D43*
X86180Y106800D03*
D42*
X125780Y106600D03*
D19*
X116780Y106600D03*
D45*
X109780Y106600D03*
D15*
X102880Y106600D03*
D19*
X98180Y106600D03*
X93780Y106600D03*
D46*
X86280Y106600D03*
D22*
X129380Y106400D03*
D23*
X122680Y106400D03*
D15*
X116680Y106400D03*
D45*
X109780Y106400D03*
D16*
X102980Y106400D03*
D19*
X98180Y106400D03*
X93780Y106400D03*
D22*
X88780Y106400D03*
D16*
X83580Y106400D03*
D37*
X129680Y106200D03*
D44*
X122480Y106200D03*
D15*
X116680Y106200D03*
D45*
X109780Y106200D03*
D15*
X103080Y106200D03*
D19*
X98180Y106200D03*
X93780Y106200D03*
D34*
X88980Y106200D03*
D47*
X83480Y106200D03*
D20*
X129880Y106000D03*
D37*
X122280Y106000D03*
D19*
X116580Y106000D03*
D23*
X109880Y106000D03*
D16*
X103180Y106000D03*
D19*
X98180Y106000D03*
X93780Y106000D03*
D20*
X89280Y106000D03*
D48*
X83480Y106000D03*
D25*
X129980Y105800D03*
D34*
X122180Y105800D03*
D15*
X116480Y105800D03*
D23*
X109880Y105800D03*
D16*
X103180Y105800D03*
D19*
X98180Y105800D03*
X93780Y105800D03*
D25*
X89380Y105800D03*
D14*
X83580Y105800D03*
D25*
X129980Y105600D03*
D20*
X122080Y105600D03*
D15*
X116480Y105600D03*
D49*
X109880Y105600D03*
D15*
X103280Y105600D03*
D19*
X98180Y105600D03*
X93780Y105600D03*
D21*
X89480Y105600D03*
D50*
X83680Y105600D03*
D21*
X130080Y105400D03*
D25*
X121980Y105400D03*
D16*
X116380Y105400D03*
D49*
X109880Y105400D03*
D16*
X103380Y105400D03*
D19*
X98180Y105400D03*
X93780Y105400D03*
X89580Y105400D03*
D21*
X130280Y105200D03*
D25*
X121980Y105200D03*
D15*
X116280Y105200D03*
D51*
X109780Y105200D03*
D16*
X103380Y105200D03*
D19*
X98180Y105200D03*
X93780Y105200D03*
D21*
X89680Y105200D03*
X130280Y105000D03*
D25*
X121980Y105000D03*
D15*
X116280Y105000D03*
D51*
X109780Y105000D03*
D16*
X103580Y105000D03*
D19*
X98180Y105000D03*
X93780Y105000D03*
D21*
X89680Y105000D03*
X130280Y104800D03*
X121880Y104800D03*
D16*
X116180Y104800D03*
D18*
X111380Y104800D03*
D52*
X108280Y104800D03*
D16*
X103580Y104800D03*
D19*
X98180Y104800D03*
X93780Y104800D03*
X89780Y104800D03*
X130380Y104600D03*
D21*
X121880Y104600D03*
D15*
X116080Y104600D03*
D18*
X111580Y104600D03*
D52*
X108280Y104600D03*
D16*
X103580Y104600D03*
D19*
X98180Y104600D03*
X93780Y104600D03*
X89780Y104600D03*
X130380Y104400D03*
D21*
X121880Y104400D03*
D15*
X116080Y104400D03*
D18*
X111580Y104400D03*
D52*
X108080Y104400D03*
X103680Y104400D03*
D19*
X98180Y104400D03*
X93780Y104400D03*
X89780Y104400D03*
X130380Y104200D03*
X121780Y104200D03*
D16*
X115980Y104200D03*
D52*
X111680Y104200D03*
X108080Y104200D03*
D16*
X103780Y104200D03*
D19*
X98180Y104200D03*
X93780Y104200D03*
X89780Y104200D03*
X130380Y104000D03*
X121780Y104000D03*
D15*
X115880Y104000D03*
D52*
X111680Y104000D03*
X108080Y104000D03*
D16*
X103780Y104000D03*
D19*
X98180Y104000D03*
X93780Y104000D03*
X89780Y104000D03*
X130380Y103800D03*
X121780Y103800D03*
D16*
X115780Y103800D03*
D18*
X111780Y103800D03*
X107980Y103800D03*
D52*
X103880Y103800D03*
D19*
X98180Y103800D03*
X93780Y103800D03*
X89780Y103800D03*
X130380Y103600D03*
X121780Y103600D03*
D16*
X115780Y103600D03*
D18*
X111780Y103600D03*
D52*
X107880Y103600D03*
D16*
X103980Y103600D03*
D19*
X98180Y103600D03*
X93780Y103600D03*
X89780Y103600D03*
X130380Y103400D03*
X121780Y103400D03*
D16*
X115780Y103400D03*
D18*
X111980Y103400D03*
D52*
X107880Y103400D03*
X104080Y103400D03*
D19*
X98180Y103400D03*
X93780Y103400D03*
X89780Y103400D03*
X130380Y103200D03*
D21*
X121880Y103200D03*
D15*
X115680Y103200D03*
D18*
X111980Y103200D03*
D52*
X107680Y103200D03*
X104080Y103200D03*
D19*
X98180Y103200D03*
X93780Y103200D03*
X89780Y103200D03*
X130380Y103000D03*
D21*
X121880Y103000D03*
D16*
X115580Y103000D03*
D18*
X111980Y103000D03*
D52*
X107680Y103000D03*
X104080Y103000D03*
D19*
X98180Y103000D03*
X93780Y103000D03*
X89780Y103000D03*
D21*
X130280Y102800D03*
X121880Y102800D03*
D16*
X115580Y102800D03*
D18*
X111980Y102800D03*
D52*
X107680Y102800D03*
D16*
X104180Y102800D03*
D19*
X98180Y102800D03*
X93780Y102800D03*
D21*
X89680Y102800D03*
X130280Y102600D03*
D25*
X121980Y102600D03*
D16*
X115380Y102600D03*
D18*
X112180Y102600D03*
D52*
X107680Y102600D03*
X104280Y102600D03*
D19*
X98180Y102600D03*
X93780Y102600D03*
D21*
X89680Y102600D03*
X130280Y102400D03*
D25*
X121980Y102400D03*
D27*
X113880Y102400D03*
X105880Y102400D03*
D19*
X98180Y102400D03*
X93780Y102400D03*
D21*
X89480Y102400D03*
D53*
X83580Y102400D03*
D21*
X130080Y102200D03*
D25*
X121980Y102200D03*
D27*
X113880Y102200D03*
D51*
X105980Y102200D03*
D19*
X98180Y102200D03*
X93780Y102200D03*
D21*
X89480Y102200D03*
D54*
X83480Y102200D03*
D25*
X129980Y102000D03*
D20*
X122080Y102000D03*
D49*
X113880Y102000D03*
X105880Y102000D03*
D19*
X98180Y102000D03*
X93780Y102000D03*
D25*
X89380Y102000D03*
D55*
X83380Y102000D03*
D25*
X129980Y101800D03*
D34*
X122180Y101800D03*
D49*
X113880Y101800D03*
X105880Y101800D03*
D19*
X98180Y101800D03*
X93780Y101800D03*
D20*
X89280Y101800D03*
D56*
X83280Y101800D03*
D20*
X129880Y101600D03*
D37*
X122280Y101600D03*
D49*
X113880Y101600D03*
D24*
X105980Y101600D03*
D19*
X98180Y101600D03*
X93780Y101600D03*
D34*
X88980Y101600D03*
D18*
X83380Y101600D03*
D34*
X129580Y101400D03*
D22*
X122380Y101400D03*
D23*
X113880Y101400D03*
D24*
X105980Y101400D03*
D19*
X98180Y101400D03*
X93780Y101400D03*
D43*
X86380Y101400D03*
D37*
X129480Y101200D03*
D45*
X122580Y101200D03*
D23*
X113880Y101200D03*
X105880Y101200D03*
D19*
X98180Y101200D03*
X93780Y101200D03*
D43*
X86180Y101200D03*
D45*
X128980Y101000D03*
D51*
X122980Y101000D03*
D45*
X113780Y101000D03*
X105980Y101000D03*
D19*
X98180Y101000D03*
X93780Y101000D03*
D57*
X86080Y101000D03*
D42*
X125780Y100800D03*
D44*
X113880Y100800D03*
D45*
X105980Y100800D03*
D19*
X98180Y100800D03*
X93780Y100800D03*
D46*
X86080Y100800D03*
D42*
X125780Y100600D03*
D44*
X113880Y100600D03*
D22*
X105980Y100600D03*
D19*
X98180Y100600D03*
X93780Y100600D03*
D41*
X85980Y100600D03*
D40*
X125680Y100400D03*
D22*
X113780Y100400D03*
X105980Y100400D03*
D19*
X98180Y100400D03*
X93780Y100400D03*
D58*
X85980Y100400D03*
D36*
X125580Y100200D03*
D22*
X113780Y100200D03*
X105980Y100200D03*
D19*
X98180Y100200D03*
X93780Y100200D03*
D35*
X85980Y100200D03*
D33*
X125480Y100000D03*
D37*
X113880Y100000D03*
D34*
X105980Y100000D03*
D19*
X98180Y100000D03*
X93780Y100000D03*
D32*
X85980Y100000D03*
D31*
X125380Y99800D03*
D34*
X113780Y99800D03*
X105980Y99800D03*
D19*
X98180Y99800D03*
X93780Y99800D03*
D59*
X85980Y99800D03*
D60*
X125280Y99600D03*
D20*
X113880Y99600D03*
D34*
X105980Y99600D03*
D19*
X98180Y99600D03*
X93780Y99600D03*
D61*
X85980Y99600D03*
D26*
X127180Y99400D03*
D21*
X121880Y99400D03*
D25*
X113780Y99400D03*
D20*
X106080Y99400D03*
D19*
X98180Y99400D03*
X93780Y99400D03*
D26*
X85980Y99400D03*
D51*
X127180Y99200D03*
D19*
X121780Y99200D03*
D25*
X113780Y99200D03*
X105980Y99200D03*
D19*
X98180Y99200D03*
X93780Y99200D03*
D51*
X85980Y99200D03*
D24*
X127180Y99000D03*
D19*
X121780Y99000D03*
D25*
X113780Y99000D03*
D21*
X106080Y99000D03*
D19*
X98180Y99000D03*
X93780Y99000D03*
D44*
X86080Y99000D03*
D22*
X127180Y98800D03*
D19*
X121780Y98800D03*
X113780Y98800D03*
D21*
X106080Y98800D03*
D19*
X98180Y98800D03*
X93780Y98800D03*
X85980Y98800D03*
D25*
X127180Y98600D03*
D19*
X121780Y98600D03*
X113780Y98600D03*
X105980Y98600D03*
D15*
X98080Y98600D03*
D19*
X93780Y98600D03*
D56*
X86080Y98600D03*
D18*
X127180Y98400D03*
D19*
X121780Y98400D03*
D54*
X127080Y98200D03*
D19*
X121780Y98200D03*
X121780Y98000D03*
X121780Y97800D03*
X121780Y97600D03*
X121780Y97400D03*
X121780Y97200D03*
X121780Y97000D03*
X121780Y96800D03*
X121780Y96600D03*
X121780Y96400D03*
X121780Y96200D03*
X121780Y96000D03*
D20*
X106080Y96000D03*
D19*
X121780Y95800D03*
D62*
X106080Y95800D03*
D19*
X121780Y95600D03*
D57*
X106080Y95600D03*
D19*
X121780Y95400D03*
D63*
X106080Y95400D03*
D19*
X121780Y95200D03*
D64*
X106080Y95200D03*
D19*
X121780Y95000D03*
D65*
X106080Y95000D03*
D19*
X121780Y94800D03*
D66*
X105980Y94800D03*
D15*
X121880Y94600D03*
D67*
X106080Y94600D03*
D68*
X106080Y94400D03*
D69*
X106080Y94200D03*
D70*
X106080Y94000D03*
D71*
X106080Y93800D03*
D72*
X105980Y93600D03*
D73*
X106080Y93400D03*
D74*
X106080Y93200D03*
D75*
X105980Y93000D03*
D76*
X105980Y92800D03*
D77*
X106080Y92600D03*
D78*
X105980Y92400D03*
D79*
X105980Y92200D03*
D80*
X105980Y92000D03*
D81*
X105980Y91800D03*
D82*
X105980Y91600D03*
D83*
X106080Y91400D03*
D84*
X105980Y91200D03*
D85*
X105980Y91000D03*
D86*
X106080Y90800D03*
D87*
X105980Y90600D03*
D88*
X105980Y90400D03*
D89*
X105980Y90200D03*
D90*
X106080Y90000D03*
D91*
X106080Y89800D03*
D92*
X106080Y89600D03*
D93*
X106080Y89400D03*
D94*
X106080Y89200D03*
D95*
X106080Y89000D03*
D96*
X105980Y88800D03*
D97*
X106080Y88600D03*
D98*
X106080Y88400D03*
D99*
X106080Y88200D03*
D100*
X106080Y88000D03*
D101*
X106080Y87800D03*
D102*
X106080Y87600D03*
D103*
X106080Y87400D03*
D104*
X105980Y87200D03*
D105*
X105980Y87000D03*
D106*
X106080Y86800D03*
D107*
X106080Y86600D03*
D108*
X106080Y86400D03*
D109*
X105980Y86200D03*
D110*
X106080Y86000D03*
D111*
X106080Y85800D03*
D112*
X106080Y85600D03*
D113*
X105980Y85400D03*
D114*
X106080Y85200D03*
D115*
X105980Y85000D03*
D116*
X105980Y84800D03*
D117*
X106080Y84600D03*
D118*
X105980Y84400D03*
D119*
X105980Y84200D03*
D120*
X106080Y84000D03*
D121*
X105980Y83800D03*
D122*
X106080Y83600D03*
D123*
X105980Y83400D03*
D124*
X106080Y83200D03*
D125*
X106080Y83000D03*
X106080Y82800D03*
D126*
X105980Y82600D03*
D127*
X105980Y82400D03*
D128*
X106080Y82200D03*
X106080Y82000D03*
D129*
X106080Y81800D03*
D130*
X105980Y81600D03*
X105980Y81400D03*
D131*
X106080Y81200D03*
D132*
X105980Y81000D03*
D133*
X106080Y80800D03*
D134*
X105980Y80600D03*
X105980Y80400D03*
D135*
X106080Y80200D03*
D136*
X105980Y80000D03*
D137*
X106080Y79800D03*
X106080Y79600D03*
D138*
X105980Y79400D03*
D139*
X106080Y79200D03*
D140*
X105980Y79000D03*
X105980Y78800D03*
D141*
X106080Y78600D03*
X106080Y78400D03*
D51*
X126780Y78200D03*
D26*
X85380Y78200D03*
D51*
X126980Y78000D03*
D27*
X85280Y78000D03*
D49*
X127080Y77800D03*
D27*
X85280Y77800D03*
D49*
X127080Y77600D03*
D27*
X85280Y77600D03*
D49*
X127080Y77400D03*
D26*
X85180Y77400D03*
D51*
X127180Y77200D03*
D26*
X85180Y77200D03*
D51*
X127180Y77000D03*
D26*
X85180Y77000D03*
D51*
X127180Y76800D03*
D29*
X85080Y76800D03*
D51*
X127180Y76600D03*
D29*
X85080Y76600D03*
D27*
X127280Y76400D03*
D29*
X85080Y76400D03*
D27*
X127280Y76200D03*
D29*
X85080Y76200D03*
D27*
X127280Y76000D03*
D29*
X85080Y76000D03*
D27*
X127280Y75800D03*
D29*
X85080Y75800D03*
D27*
X127280Y75600D03*
D142*
X84980Y75600D03*
D26*
X127380Y75400D03*
D142*
X84980Y75400D03*
D26*
X127380Y75200D03*
D142*
X84980Y75200D03*
D26*
X127380Y75000D03*
D142*
X84980Y75000D03*
D26*
X127380Y74800D03*
D142*
X84980Y74800D03*
D26*
X127380Y74600D03*
D28*
X84880Y74600D03*
D26*
X127380Y74400D03*
D28*
X84880Y74400D03*
D26*
X127380Y74200D03*
D28*
X84880Y74200D03*
D26*
X127380Y74000D03*
D28*
X84880Y74000D03*
D26*
X127380Y73800D03*
D28*
X84880Y73800D03*
D26*
X127380Y73600D03*
D28*
X84880Y73600D03*
D29*
X127480Y73400D03*
D37*
X117080Y73400D03*
D22*
X109980Y73400D03*
X102780Y73400D03*
D37*
X95680Y73400D03*
D28*
X84880Y73400D03*
D29*
X127480Y73200D03*
D22*
X117180Y73200D03*
X109980Y73200D03*
D44*
X102680Y73200D03*
D22*
X95580Y73200D03*
D28*
X84880Y73200D03*
D29*
X127480Y73000D03*
D22*
X117180Y73000D03*
X109980Y73000D03*
D44*
X102680Y73000D03*
D22*
X95580Y73000D03*
D28*
X84880Y73000D03*
D29*
X127480Y72800D03*
D22*
X117180Y72800D03*
X109980Y72800D03*
D44*
X102680Y72800D03*
D22*
X95580Y72800D03*
D28*
X84880Y72800D03*
D29*
X127480Y72600D03*
D22*
X117180Y72600D03*
X109980Y72600D03*
D44*
X102680Y72600D03*
D22*
X95580Y72600D03*
D28*
X84880Y72600D03*
D29*
X127480Y72400D03*
D22*
X117180Y72400D03*
X109980Y72400D03*
D44*
X102680Y72400D03*
D22*
X95580Y72400D03*
D28*
X84880Y72400D03*
D29*
X127480Y72200D03*
D22*
X117180Y72200D03*
X109980Y72200D03*
D44*
X102680Y72200D03*
D22*
X95580Y72200D03*
D28*
X84880Y72200D03*
D29*
X127480Y72000D03*
D22*
X117180Y72000D03*
X109980Y72000D03*
D44*
X102680Y72000D03*
D22*
X95580Y72000D03*
D61*
X84780Y72000D03*
D29*
X127480Y71800D03*
D22*
X117180Y71800D03*
X109980Y71800D03*
D44*
X102680Y71800D03*
D22*
X95580Y71800D03*
D61*
X84780Y71800D03*
D29*
X127480Y71600D03*
D22*
X117180Y71600D03*
X109980Y71600D03*
D44*
X102680Y71600D03*
D22*
X95580Y71600D03*
D61*
X84780Y71600D03*
D29*
X127480Y71400D03*
D22*
X117180Y71400D03*
X109980Y71400D03*
D44*
X102680Y71400D03*
D22*
X95580Y71400D03*
D61*
X84780Y71400D03*
D29*
X127480Y71200D03*
D22*
X117180Y71200D03*
X109980Y71200D03*
D44*
X102680Y71200D03*
D22*
X95580Y71200D03*
D61*
X84780Y71200D03*
D29*
X127480Y71000D03*
D22*
X117180Y71000D03*
X109980Y71000D03*
D44*
X102680Y71000D03*
D22*
X95580Y71000D03*
D61*
X84780Y71000D03*
D29*
X127480Y70800D03*
D22*
X117180Y70800D03*
X109980Y70800D03*
D44*
X102680Y70800D03*
D22*
X95580Y70800D03*
D61*
X84780Y70800D03*
D29*
X127480Y70600D03*
D22*
X117180Y70600D03*
X109980Y70600D03*
D44*
X102680Y70600D03*
D22*
X95580Y70600D03*
D61*
X84780Y70600D03*
D29*
X127480Y70400D03*
D22*
X117180Y70400D03*
X109980Y70400D03*
D44*
X102680Y70400D03*
D22*
X95580Y70400D03*
D28*
X84880Y70400D03*
D29*
X127480Y70200D03*
D22*
X117180Y70200D03*
X109980Y70200D03*
D44*
X102680Y70200D03*
D22*
X95580Y70200D03*
D28*
X84880Y70200D03*
D29*
X127480Y70000D03*
D22*
X117180Y70000D03*
X109980Y70000D03*
D44*
X102680Y70000D03*
D22*
X95580Y70000D03*
D28*
X84880Y70000D03*
D29*
X127480Y69800D03*
D22*
X117180Y69800D03*
X109980Y69800D03*
D44*
X102680Y69800D03*
D22*
X95580Y69800D03*
D28*
X84880Y69800D03*
D29*
X127480Y69600D03*
D22*
X117180Y69600D03*
X109980Y69600D03*
D44*
X102680Y69600D03*
D22*
X95580Y69600D03*
D28*
X84880Y69600D03*
D29*
X127480Y69400D03*
D22*
X117180Y69400D03*
X109980Y69400D03*
D44*
X102680Y69400D03*
D22*
X95580Y69400D03*
D28*
X84880Y69400D03*
D29*
X127480Y69200D03*
D22*
X117180Y69200D03*
X109980Y69200D03*
D44*
X102680Y69200D03*
D22*
X95580Y69200D03*
D28*
X84880Y69200D03*
D26*
X127380Y69000D03*
D22*
X117180Y69000D03*
X109980Y69000D03*
D44*
X102680Y69000D03*
D22*
X95580Y69000D03*
D28*
X84880Y69000D03*
D26*
X127380Y68800D03*
D37*
X117080Y68800D03*
D22*
X109980Y68800D03*
X102780Y68800D03*
D37*
X95680Y68800D03*
D28*
X84880Y68800D03*
D26*
X127380Y68600D03*
D28*
X84880Y68600D03*
D26*
X127380Y68400D03*
D28*
X84880Y68400D03*
D26*
X127380Y68200D03*
D28*
X84880Y68200D03*
D26*
X127380Y68000D03*
D28*
X84880Y68000D03*
D26*
X127380Y67800D03*
D28*
X84880Y67800D03*
D26*
X127380Y67600D03*
D142*
X84980Y67600D03*
D26*
X127380Y67400D03*
D142*
X84980Y67400D03*
D26*
X127380Y67200D03*
D142*
X84980Y67200D03*
D27*
X127280Y67000D03*
D142*
X84980Y67000D03*
D27*
X127280Y66800D03*
D29*
X85080Y66800D03*
D27*
X127280Y66600D03*
D29*
X85080Y66600D03*
D27*
X127280Y66400D03*
D29*
X85080Y66400D03*
D27*
X127280Y66200D03*
D29*
X85080Y66200D03*
D51*
X127180Y66000D03*
D29*
X85080Y66000D03*
D51*
X127180Y65800D03*
D29*
X85080Y65800D03*
D51*
X127180Y65600D03*
D26*
X85180Y65600D03*
D51*
X127180Y65400D03*
D26*
X85180Y65400D03*
D49*
X127080Y65200D03*
D26*
X85180Y65200D03*
D49*
X127080Y65000D03*
D26*
X85180Y65000D03*
D49*
X127080Y64800D03*
D27*
X85280Y64800D03*
D49*
X127080Y64600D03*
D27*
X85280Y64600D03*
D24*
X126980Y64400D03*
D27*
X85280Y64400D03*
D24*
X126980Y64200D03*
D51*
X85380Y64200D03*
D49*
X126880Y64000D03*
D27*
X85480Y64000D03*
D143*
X122180Y63800D03*
D29*
X106480Y63800D03*
D144*
X90280Y63800D03*
D143*
X122180Y63600D03*
D29*
X106480Y63600D03*
D144*
X90280Y63600D03*
D143*
X122180Y63400D03*
D29*
X106480Y63400D03*
D145*
X90380Y63400D03*
D143*
X122180Y63200D03*
D142*
X106380Y63200D03*
D146*
X90280Y63200D03*
D65*
X122080Y63000D03*
D142*
X106380Y63000D03*
D147*
X90380Y63000D03*
D143*
X121980Y62800D03*
D142*
X106380Y62800D03*
D147*
X90380Y62800D03*
D65*
X121880Y62600D03*
D142*
X106380Y62600D03*
D147*
X90380Y62600D03*
D65*
X121880Y62400D03*
D28*
X106280Y62400D03*
D148*
X90280Y62400D03*
D65*
X121880Y62200D03*
D142*
X106180Y62200D03*
D143*
X90380Y62200D03*
D149*
X121780Y62000D03*
D142*
X106180Y62000D03*
D65*
X90280Y62000D03*
D149*
X121780Y61800D03*
D142*
X106180Y61800D03*
D149*
X90380Y61800D03*
X121580Y61600D03*
D28*
X106080Y61600D03*
D149*
X90380Y61600D03*
X121580Y61400D03*
D28*
X106080Y61400D03*
D150*
X90380Y61400D03*
D151*
X121480Y61200D03*
D142*
X105980Y61200D03*
D150*
X90380Y61200D03*
D151*
X121480Y61000D03*
D28*
X105880Y61000D03*
D152*
X90280Y61000D03*
D151*
X121480Y60800D03*
D28*
X105880Y60800D03*
D153*
X90380Y60800D03*
D150*
X121380Y60600D03*
D28*
X105880Y60600D03*
D154*
X90380Y60600D03*
D151*
X121280Y60400D03*
D28*
X105680Y60400D03*
D154*
X90380Y60400D03*
D150*
X121180Y60200D03*
D28*
X105680Y60200D03*
D155*
X90280Y60200D03*
D150*
X121180Y60000D03*
D28*
X105680Y60000D03*
D156*
X90280Y60000D03*
D152*
X121080Y59800D03*
D61*
X105580Y59800D03*
D156*
X90280Y59800D03*
D150*
X120980Y59600D03*
D28*
X105480Y59600D03*
D157*
X90280Y59600D03*
D152*
X120880Y59400D03*
D61*
X105380Y59400D03*
D158*
X90380Y59400D03*
D153*
X120780Y59200D03*
D61*
X105380Y59200D03*
D63*
X90280Y59200D03*
D153*
X120780Y59000D03*
D61*
X105180Y59000D03*
D40*
X90280Y59000D03*
D153*
X120580Y58800D03*
D61*
X105180Y58800D03*
D40*
X90280Y58800D03*
D153*
X120580Y58600D03*
D30*
X105080Y58600D03*
D33*
X90280Y58600D03*
D64*
X120480Y58400D03*
D61*
X104980Y58400D03*
D31*
X90180Y58400D03*
D154*
X120380Y58200D03*
D30*
X104880Y58200D03*
D159*
X90180Y58200D03*
D64*
X120280Y58000D03*
D30*
X104880Y58000D03*
D160*
X90280Y58000D03*
D154*
X120180Y57800D03*
D30*
X104680Y57800D03*
D161*
X90180Y57800D03*
D64*
X120080Y57600D03*
D30*
X104680Y57600D03*
D43*
X90180Y57600D03*
D154*
X119980Y57400D03*
D30*
X104480Y57400D03*
D41*
X90180Y57400D03*
D155*
X119880Y57200D03*
D59*
X104380Y57200D03*
D39*
X90080Y57200D03*
D155*
X119880Y57000D03*
D59*
X104380Y57000D03*
D38*
X90080Y57000D03*
D155*
X119680Y56800D03*
D59*
X104180Y56800D03*
D62*
X90080Y56800D03*
D162*
X119580Y56600D03*
D59*
X104180Y56600D03*
D32*
X89980Y56600D03*
D162*
X119380Y56400D03*
D59*
X103980Y56400D03*
X89980Y56400D03*
D162*
X119380Y56200D03*
D163*
X103880Y56200D03*
D28*
X89880Y56200D03*
D156*
X119280Y56000D03*
D163*
X103680Y56000D03*
D29*
X89880Y56000D03*
D156*
X119080Y55800D03*
D163*
X103680Y55800D03*
D26*
X89780Y55800D03*
D156*
X119080Y55600D03*
D163*
X103480Y55600D03*
D51*
X89780Y55600D03*
D157*
X118880Y55400D03*
D32*
X103380Y55400D03*
D23*
X89680Y55400D03*
D164*
X118780Y55200D03*
D32*
X103180Y55200D03*
D22*
X89580Y55200D03*
D157*
X118680Y55000D03*
D32*
X103180Y55000D03*
D34*
X89580Y55000D03*
D157*
X118480Y54800D03*
D32*
X102980Y54800D03*
D21*
X89480Y54800D03*
D158*
X118380Y54600D03*
D62*
X102880Y54600D03*
D16*
X89380Y54600D03*
D158*
X118180Y54400D03*
D62*
X102680Y54400D03*
D18*
X89180Y54400D03*
D63*
X118080Y54200D03*
D35*
X102580Y54200D03*
D56*
X89080Y54200D03*
D63*
X117880Y54000D03*
D35*
X102380Y54000D03*
D17*
X88880Y54000D03*
D42*
X117780Y53800D03*
D35*
X102180Y53800D03*
D165*
X88880Y53800D03*
D42*
X117580Y53600D03*
D38*
X102080Y53600D03*
D40*
X117480Y53400D03*
D38*
X101880Y53400D03*
D40*
X117280Y53200D03*
D58*
X101780Y53200D03*
D36*
X117180Y53000D03*
D58*
X101580Y53000D03*
D36*
X116980Y52800D03*
D58*
X101380Y52800D03*
D33*
X116880Y52600D03*
D58*
X101180Y52600D03*
D33*
X116680Y52400D03*
D41*
X100980Y52400D03*
D31*
X116580Y52200D03*
D41*
X100780Y52200D03*
D31*
X116380Y52000D03*
D41*
X100580Y52000D03*
D159*
X116180Y51800D03*
D43*
X100380Y51800D03*
D159*
X115980Y51600D03*
D43*
X100180Y51600D03*
D159*
X115780Y51400D03*
D43*
X99980Y51400D03*
D161*
X115580Y51200D03*
D57*
X99680Y51200D03*
D161*
X115380Y51000D03*
D160*
X99480Y51000D03*
D43*
X115180Y50800D03*
D160*
X99280Y50800D03*
D43*
X114980Y50600D03*
D159*
X98980Y50600D03*
D46*
X114680Y50400D03*
D60*
X98680Y50400D03*
D46*
X114480Y50200D03*
D31*
X98380Y50200D03*
D39*
X114280Y50000D03*
D33*
X98080Y50000D03*
D58*
X113980Y49800D03*
D36*
X97780Y49800D03*
D38*
X113880Y49600D03*
D42*
X97380Y49600D03*
D35*
X113580Y49400D03*
D63*
X97080Y49400D03*
D62*
X113280Y49200D03*
D164*
X96580Y49200D03*
D32*
X112980Y49000D03*
D162*
X96180Y49000D03*
D59*
X112780Y48800D03*
D64*
X95680Y48800D03*
D30*
X112480Y48600D03*
D151*
X95080Y48600D03*
D61*
X112180Y48400D03*
D146*
X94280Y48400D03*
D50*
X85280Y48400D03*
D142*
X111780Y48200D03*
D166*
X92580Y48200D03*
D29*
X111480Y48000D03*
D68*
X92480Y48000D03*
D49*
X111080Y47800D03*
D167*
X92380Y47800D03*
D23*
X110680Y47600D03*
D168*
X92280Y47600D03*
D44*
X110280Y47400D03*
D169*
X92180Y47400D03*
D34*
X109780Y47200D03*
D170*
X92080Y47200D03*
D25*
X109380Y47000D03*
D67*
X91880Y47000D03*
D52*
X108680Y46800D03*
D171*
X91780Y46800D03*
D14*
X107980Y46600D03*
D172*
X91680Y46600D03*
D173*
X91480Y46400D03*
D66*
X91380Y46200D03*
D145*
X91180Y46000D03*
D146*
X91080Y45800D03*
D147*
X90980Y45600D03*
D143*
X90780Y45400D03*
D149*
X90580Y45200D03*
D151*
X90480Y45000D03*
D152*
X90280Y44800D03*
D64*
X90080Y44600D03*
D155*
X89880Y44400D03*
D156*
X89680Y44200D03*
D157*
X89480Y44000D03*
D63*
X89280Y43800D03*
D36*
X88980Y43600D03*
D31*
X88780Y43400D03*
D160*
X88480Y43200D03*
D57*
X88280Y43000D03*
D39*
X87880Y42800D03*
D35*
X87580Y42600D03*
D163*
X87280Y42400D03*
D142*
X86780Y42200D03*
D51*
X86380Y42000D03*
D34*
X85580Y41800D03*
D13*
X49276Y203454D02*
X44196Y214884D01*
X51816Y204978D02*
X49276Y203454D01*
X51816Y204978D02*
X57912Y200660D01*
X62484Y205486D01*
X58420Y211582D01*
X60960Y218440D02*
X68580Y219710D01*
X68580Y226314D01*
X60960Y227838D01*
X58166Y234188D02*
X62738Y240792D01*
X57912Y245364D01*
X51308Y240792D01*
X44958Y243332D02*
X43688Y251460D01*
X36830Y251460D01*
X35560Y243332D01*
X29210Y240792D02*
X22606Y245364D01*
X17780Y240792D01*
X22352Y234188D01*
X19558Y227838D02*
X11938Y226314D01*
X11938Y219710D01*
X19558Y218440D01*
X22098Y211582D02*
X17780Y205486D01*
X22606Y200660D01*
X28702Y204978D01*
X31242Y203454D01*
X36068Y214884D01*
X36068Y215138D02*
X35864Y215240D01*
X35663Y215347D01*
X35465Y215459D01*
X35269Y215575D01*
X35076Y215697D01*
X34886Y215822D01*
X34700Y215953D01*
X34516Y216088D01*
X34336Y216228D01*
X34160Y216372D01*
X33987Y216520D01*
X33817Y216672D01*
X33652Y216829D01*
X33490Y216989D01*
X33332Y217153D01*
X33179Y217322D01*
X33029Y217494D01*
X32884Y217669D01*
X32743Y217848D01*
X32606Y218030D01*
X32474Y218216D01*
X32347Y218405D01*
X32224Y218597D01*
X32106Y218792D01*
X31993Y218989D01*
X31885Y219190D01*
X31781Y219393D01*
X31683Y219598D01*
X31589Y219806D01*
X31501Y220016D01*
X31418Y220228D01*
X31340Y220442D01*
X31268Y220658D01*
X31200Y220876D01*
X31138Y221095D01*
X31082Y221315D01*
X31030Y221537D01*
X30985Y221761D01*
X30944Y221985D01*
X30910Y222210D01*
X30880Y222436D01*
X30857Y222662D01*
X30838Y222889D01*
X30826Y223117D01*
X30819Y223345D01*
X30817Y223572D01*
X30821Y223800D01*
X30831Y224028D01*
X30846Y224255D01*
X30867Y224482D01*
X30893Y224708D01*
X30925Y224934D01*
X30962Y225158D01*
X31005Y225382D01*
X31053Y225605D01*
X31107Y225826D01*
X31166Y226046D01*
X31231Y226265D01*
X31300Y226482D01*
X31375Y226697D01*
X31456Y226910D01*
X31541Y227121D01*
X31632Y227330D01*
X31728Y227537D01*
X31828Y227741D01*
X31934Y227943D01*
X32045Y228142D01*
X32160Y228338D01*
X32280Y228532D01*
X32405Y228722D01*
X32535Y228910D01*
X32669Y229094D01*
X32807Y229275D01*
X32950Y229452D01*
X33097Y229626D01*
X33249Y229796D01*
X33404Y229963D01*
X33564Y230125D01*
X33727Y230284D01*
X33895Y230438D01*
X34066Y230589D01*
X34240Y230735D01*
X34419Y230877D01*
X34600Y231015D01*
X34785Y231148D01*
X34973Y231276D01*
X35164Y231400D01*
X35359Y231519D01*
X35556Y231633D01*
X35755Y231743D01*
X35958Y231847D01*
X36163Y231947D01*
X36370Y232041D01*
X36579Y232131D01*
X36791Y232215D01*
X37005Y232294D01*
X37220Y232368D01*
X37437Y232437D01*
X37656Y232500D01*
X37877Y232558D01*
X38098Y232610D01*
X38321Y232657D01*
X38545Y232699D01*
X38770Y232735D01*
X38996Y232765D01*
X39222Y232790D01*
X39449Y232810D01*
X39677Y232824D01*
X39904Y232832D01*
X40132Y232835D01*
X40360Y232832D01*
X40587Y232824D01*
X40815Y232810D01*
X41042Y232790D01*
X41268Y232765D01*
X41494Y232735D01*
X41719Y232699D01*
X41943Y232657D01*
X42166Y232610D01*
X42387Y232558D01*
X42608Y232500D01*
X42827Y232437D01*
X43044Y232368D01*
X43259Y232294D01*
X43473Y232215D01*
X43685Y232131D01*
X43894Y232041D01*
X44101Y231947D01*
X44306Y231847D01*
X44509Y231743D01*
X44708Y231633D01*
X44905Y231519D01*
X45100Y231400D01*
X45291Y231276D01*
X45479Y231148D01*
X45664Y231015D01*
X45845Y230877D01*
X46024Y230735D01*
X46198Y230589D01*
X46369Y230438D01*
X46537Y230284D01*
X46700Y230125D01*
X46860Y229963D01*
X47015Y229796D01*
X47167Y229626D01*
X47314Y229452D01*
X47457Y229275D01*
X47595Y229094D01*
X47729Y228910D01*
X47859Y228722D01*
X47984Y228532D01*
X48104Y228338D01*
X48219Y228142D01*
X48330Y227943D01*
X48436Y227741D01*
X48536Y227537D01*
X48632Y227330D01*
X48723Y227121D01*
X48808Y226910D01*
X48889Y226697D01*
X48964Y226482D01*
X49033Y226265D01*
X49098Y226046D01*
X49157Y225826D01*
X49211Y225605D01*
X49259Y225382D01*
X49302Y225158D01*
X49339Y224934D01*
X49371Y224708D01*
X49397Y224482D01*
X49418Y224255D01*
X49433Y224028D01*
X49443Y223800D01*
X49447Y223572D01*
X49445Y223345D01*
X49438Y223117D01*
X49426Y222889D01*
X49407Y222662D01*
X49384Y222436D01*
X49354Y222210D01*
X49320Y221985D01*
X49279Y221761D01*
X49234Y221537D01*
X49182Y221315D01*
X49126Y221095D01*
X49064Y220876D01*
X48996Y220658D01*
X48924Y220442D01*
X48846Y220228D01*
X48763Y220016D01*
X48675Y219806D01*
X48581Y219598D01*
X48483Y219393D01*
X48379Y219190D01*
X48271Y218989D01*
X48158Y218792D01*
X48040Y218597D01*
X47917Y218405D01*
X47790Y218216D01*
X47658Y218030D01*
X47521Y217848D01*
X47380Y217669D01*
X47235Y217494D01*
X47085Y217322D01*
X46932Y217153D01*
X46774Y216989D01*
X46612Y216829D01*
X46447Y216672D01*
X46277Y216520D01*
X46104Y216372D01*
X45928Y216228D01*
X45748Y216088D01*
X45564Y215953D01*
X45378Y215822D01*
X45188Y215697D01*
X44995Y215575D01*
X44799Y215459D01*
X44601Y215347D01*
X44400Y215240D01*
X44196Y215138D01*
X58335Y211663D02*
X58597Y212111D01*
X58847Y212565D01*
X59087Y213025D01*
X59315Y213491D01*
X59531Y213962D01*
X59736Y214438D01*
X59929Y214919D01*
X60110Y215405D01*
X60280Y215895D01*
X60437Y216389D01*
X60582Y216887D01*
X60715Y217388D01*
X60835Y217892D01*
X60943Y218400D01*
X60801Y227839D02*
X60679Y228308D01*
X60546Y228774D01*
X60402Y229237D01*
X60248Y229696D01*
X60083Y230152D01*
X59908Y230604D01*
X59722Y231052D01*
X59527Y231495D01*
X59321Y231934D01*
X59105Y232368D01*
X58880Y232797D01*
X58644Y233221D01*
X58399Y233639D01*
X58145Y234052D01*
X51221Y240883D02*
X50784Y241139D01*
X50341Y241384D01*
X49892Y241619D01*
X49438Y241842D01*
X48979Y242055D01*
X48515Y242256D01*
X48046Y242447D01*
X47572Y242626D01*
X47095Y242794D01*
X46613Y242950D01*
X46128Y243095D01*
X45640Y243228D01*
X45148Y243349D01*
X35425Y243396D02*
X34950Y243281D01*
X34478Y243156D01*
X34009Y243020D01*
X33543Y242873D01*
X33081Y242716D01*
X32622Y242548D01*
X32167Y242370D01*
X31717Y242181D01*
X31271Y241981D01*
X30830Y241772D01*
X30393Y241553D01*
X29962Y241323D01*
X29536Y241084D01*
X29116Y240835D01*
X22381Y234147D02*
X22112Y233732D01*
X21853Y233309D01*
X21605Y232881D01*
X21367Y232447D01*
X21139Y232007D01*
X20922Y231562D01*
X20716Y231111D01*
X20520Y230656D01*
X20336Y230197D01*
X20163Y229733D01*
X20001Y229265D01*
X19850Y228793D01*
X19711Y228318D01*
X19583Y227839D01*
X19535Y218352D02*
X19629Y217875D01*
X19734Y217401D01*
X19851Y216929D01*
X19979Y216461D01*
X20118Y215995D01*
X20268Y215533D01*
X20429Y215074D01*
X20600Y214620D01*
X20783Y214169D01*
X20976Y213723D01*
X21179Y213282D01*
X21393Y212846D01*
X21617Y212415D01*
X21851Y211989D01*
X22096Y211569D01*
M02*
