M48
;GenerationSoftware,Autodesk,EAGLE,9.1.1*%
;CreationDate,2018-10-10T06:53:54Z*%
FMAT,2
ICI,OFF
METRIC,TZ,000.000
T7C0.305
T6C0.700
T5C0.889
T4C1.000
T3C1.300
T2C1.500
T1C3.000
%
G90
M71
T1
X2540Y2540
X33020Y2540
T2
X10010Y39954
X4010Y39954
T3
X9301Y32325
X9301Y26925
T4
X3734Y31329
X32074Y19634
X32074Y11654
X3734Y27829
T5
X33985Y31775
X33985Y34315
X33985Y36855
X33985Y39395
X10160Y1500
X12700Y1500
X15240Y1500
X17780Y1500
X20320Y1500
X22860Y1500
X25400Y1500
T6
X4139Y13382
X4139Y8530
X4139Y8276
X4139Y8429
X1700Y14398
X1700Y7387
X1421Y14398
X1192Y7387
X1446Y7387
X4139Y13509
X4139Y13255
X1192Y14398
T7
X21361Y28448
X28219Y26086
X28219Y31013
X28473Y18034
X29667Y35052
X18110Y20193
X17780Y24740
X16256Y23216
X13513Y20904
X16510Y889
X19025Y889
X21590Y889
X24130Y889
X14935Y28575
X16764Y14605
X25146Y21971
X32258Y30099
X29718Y23495
X26695Y16739
X25400Y16713
X29693Y36474
X16815Y13411
X15697Y29413
X19507Y19101
X19050Y10820
X17755Y10846
X23393Y17120
X27356Y20091
X27356Y31013
X27356Y28219
X15418Y34773
X12243Y16332
X25222Y20930
X8255Y21082
X16129Y8128
X16129Y5588
X25705Y6833
X23393Y19101
X14148Y19990
X12929Y21946
X11074Y23825
X9550Y23876
M30