G04 EAGLE Gerber RS-274X export*
G75*
%MOMM*%
%FSLAX34Y34*%
%LPD*%
%AMOC8*
5,1,8,0,0,1.08239X$1,22.5*%
G01*
%ADD10C,0.101600*%
%ADD11C,0.127000*%
%ADD12C,0.076200*%
%ADD13C,0.254000*%
%ADD14C,0.152400*%
%ADD15C,0.050800*%
%ADD16C,0.203200*%
%ADD17C,0.400000*%


D10*
X98292Y32512D02*
X96766Y34037D01*
X96766Y37088D01*
X98292Y38613D01*
X99817Y38613D01*
X101342Y37088D01*
X101342Y35563D01*
X101342Y37088D02*
X102867Y38613D01*
X104393Y38613D01*
X105918Y37088D01*
X105918Y34037D01*
X104393Y32512D01*
X102867Y41867D02*
X96766Y41867D01*
X102867Y41867D02*
X105918Y44918D01*
X102867Y47968D01*
X96766Y47968D01*
X98292Y51222D02*
X96766Y52748D01*
X96766Y55798D01*
X98292Y57324D01*
X99817Y57324D01*
X101342Y55798D01*
X101342Y54273D01*
X101342Y55798D02*
X102867Y57324D01*
X104393Y57324D01*
X105918Y55798D01*
X105918Y52748D01*
X104393Y51222D01*
X122166Y37088D02*
X123692Y38613D01*
X122166Y37088D02*
X122166Y34037D01*
X123692Y32512D01*
X129793Y32512D01*
X131318Y34037D01*
X131318Y37088D01*
X129793Y38613D01*
X126742Y38613D01*
X126742Y35563D01*
X131318Y41867D02*
X122166Y41867D01*
X131318Y47968D01*
X122166Y47968D01*
X122166Y51222D02*
X131318Y51222D01*
X131318Y55798D01*
X129793Y57324D01*
X123692Y57324D01*
X122166Y55798D01*
X122166Y51222D01*
X147566Y37088D02*
X149092Y38613D01*
X147566Y37088D02*
X147566Y34037D01*
X149092Y32512D01*
X150617Y32512D01*
X152142Y34037D01*
X152142Y37088D01*
X153667Y38613D01*
X155193Y38613D01*
X156718Y37088D01*
X156718Y34037D01*
X155193Y32512D01*
X156718Y41867D02*
X147566Y41867D01*
X156718Y41867D02*
X156718Y46443D01*
X155193Y47968D01*
X149092Y47968D01*
X147566Y46443D01*
X147566Y41867D01*
X150617Y51222D02*
X156718Y51222D01*
X150617Y51222D02*
X147566Y54273D01*
X150617Y57324D01*
X156718Y57324D01*
X152142Y57324D02*
X152142Y51222D01*
X173474Y32512D02*
X182626Y32512D01*
X176525Y35563D02*
X173474Y32512D01*
X176525Y35563D02*
X173474Y38613D01*
X182626Y38613D01*
X182626Y41867D02*
X182626Y44918D01*
X182626Y43392D02*
X173474Y43392D01*
X173474Y41867D02*
X173474Y44918D01*
X173474Y52680D02*
X175000Y54205D01*
X173474Y52680D02*
X173474Y49629D01*
X175000Y48104D01*
X176525Y48104D01*
X178050Y49629D01*
X178050Y52680D01*
X179575Y54205D01*
X181101Y54205D01*
X182626Y52680D01*
X182626Y49629D01*
X181101Y48104D01*
X173474Y58984D02*
X173474Y62035D01*
X173474Y58984D02*
X175000Y57459D01*
X181101Y57459D01*
X182626Y58984D01*
X182626Y62035D01*
X181101Y63560D01*
X175000Y63560D01*
X173474Y62035D01*
X198366Y36834D02*
X199892Y38359D01*
X198366Y36834D02*
X198366Y33783D01*
X199892Y32258D01*
X201417Y32258D01*
X202942Y33783D01*
X202942Y36834D01*
X204467Y38359D01*
X205993Y38359D01*
X207518Y36834D01*
X207518Y33783D01*
X205993Y32258D01*
X198366Y46189D02*
X199892Y47714D01*
X198366Y46189D02*
X198366Y43138D01*
X199892Y41613D01*
X205993Y41613D01*
X207518Y43138D01*
X207518Y46189D01*
X205993Y47714D01*
X207518Y50968D02*
X198366Y50968D01*
X207518Y50968D02*
X207518Y57070D01*
X224274Y32258D02*
X233426Y32258D01*
X224274Y32258D02*
X224274Y36834D01*
X225800Y38359D01*
X228850Y38359D01*
X230375Y36834D01*
X230375Y32258D01*
X230375Y35309D02*
X233426Y38359D01*
X224274Y46189D02*
X225800Y47714D01*
X224274Y46189D02*
X224274Y43138D01*
X225800Y41613D01*
X227325Y41613D01*
X228850Y43138D01*
X228850Y46189D01*
X230375Y47714D01*
X231901Y47714D01*
X233426Y46189D01*
X233426Y43138D01*
X231901Y41613D01*
X233426Y54019D02*
X224274Y54019D01*
X224274Y50968D02*
X224274Y57070D01*
X258572Y35309D02*
X258572Y32258D01*
X258572Y33783D02*
X249420Y33783D01*
X249420Y32258D02*
X249420Y35309D01*
X249420Y38495D02*
X258572Y38495D01*
X258572Y44596D02*
X249420Y38495D01*
X249420Y44596D02*
X258572Y44596D01*
X258572Y50901D02*
X249420Y50901D01*
X249420Y53951D02*
X249420Y47850D01*
X69095Y223012D02*
X62993Y223012D01*
X69095Y223012D02*
X70620Y221487D01*
X70620Y218436D01*
X69095Y216911D01*
X62993Y216911D01*
X61468Y218436D01*
X61468Y221487D01*
X62993Y223012D01*
X64519Y219961D02*
X61468Y216911D01*
X62993Y213657D02*
X67569Y213657D01*
X62993Y213657D02*
X61468Y212132D01*
X62993Y210606D01*
X61468Y209081D01*
X62993Y207556D01*
X67569Y207556D01*
X67569Y204302D02*
X67569Y202776D01*
X61468Y202776D01*
X61468Y201251D02*
X61468Y204302D01*
X70620Y202776D02*
X72145Y202776D01*
X67569Y198065D02*
X67569Y196540D01*
X61468Y196540D01*
X61468Y198065D02*
X61468Y195014D01*
X70620Y196540D02*
X72145Y196540D01*
X67569Y190303D02*
X67569Y185727D01*
X67569Y190303D02*
X66044Y191828D01*
X62993Y191828D01*
X61468Y190303D01*
X61468Y185727D01*
X286506Y188468D02*
X292607Y188468D01*
X286506Y188468D02*
X284980Y189993D01*
X284980Y193044D01*
X286506Y194569D01*
X292607Y194569D01*
X294132Y193044D01*
X294132Y189993D01*
X292607Y188468D01*
X291081Y191519D02*
X294132Y194569D01*
X292607Y197823D02*
X288031Y197823D01*
X292607Y197823D02*
X294132Y199348D01*
X292607Y200874D01*
X294132Y202399D01*
X292607Y203924D01*
X288031Y203924D01*
X288031Y207178D02*
X288031Y208704D01*
X294132Y208704D01*
X294132Y210229D02*
X294132Y207178D01*
X284980Y208704D02*
X283455Y208704D01*
X288031Y213415D02*
X288031Y214940D01*
X294132Y214940D01*
X294132Y213415D02*
X294132Y216466D01*
X284980Y214940D02*
X283455Y214940D01*
X288031Y221177D02*
X288031Y225753D01*
X288031Y221177D02*
X289556Y219652D01*
X292607Y219652D01*
X294132Y221177D01*
X294132Y225753D01*
X300739Y411988D02*
X300739Y421140D01*
X303789Y421140D02*
X297688Y421140D01*
X307043Y421140D02*
X307043Y411988D01*
X307043Y421140D02*
X311619Y421140D01*
X313144Y419615D01*
X313144Y416564D01*
X311619Y415039D01*
X307043Y415039D01*
X310094Y415039D02*
X313144Y411988D01*
X316398Y411988D02*
X319449Y411988D01*
X317924Y411988D02*
X317924Y421140D01*
X319449Y421140D02*
X316398Y421140D01*
X327211Y421140D02*
X328736Y419615D01*
X327211Y421140D02*
X324160Y421140D01*
X322635Y419615D01*
X322635Y413513D01*
X324160Y411988D01*
X327211Y411988D01*
X328736Y413513D01*
X328736Y416564D01*
X325686Y416564D01*
X331990Y421140D02*
X338092Y421140D01*
X331990Y421140D02*
X331990Y411988D01*
X338092Y411988D01*
X335041Y416564D02*
X331990Y416564D01*
X341346Y411988D02*
X341346Y421140D01*
X345921Y421140D01*
X347447Y419615D01*
X347447Y416564D01*
X345921Y415039D01*
X341346Y415039D01*
X344396Y415039D02*
X347447Y411988D01*
D11*
X319408Y324495D02*
X315595Y320682D01*
X319408Y324495D02*
X319408Y313055D01*
X315595Y313055D02*
X323222Y313055D01*
X323222Y338455D02*
X315595Y338455D01*
X323222Y346082D01*
X323222Y347988D01*
X321315Y349895D01*
X317502Y349895D01*
X315595Y347988D01*
X315595Y373388D02*
X317502Y375295D01*
X321315Y375295D01*
X323222Y373388D01*
X323222Y371482D01*
X321315Y369575D01*
X319408Y369575D01*
X321315Y369575D02*
X323222Y367668D01*
X323222Y365762D01*
X321315Y363855D01*
X317502Y363855D01*
X315595Y365762D01*
X321315Y389255D02*
X321315Y400695D01*
X315595Y394975D01*
X323222Y394975D01*
D10*
X114808Y327160D02*
X114808Y321059D01*
X117859Y318008D01*
X120909Y321059D01*
X120909Y327160D01*
X125688Y327160D02*
X128739Y327160D01*
X125688Y327160D02*
X124163Y325635D01*
X124163Y319533D01*
X125688Y318008D01*
X128739Y318008D01*
X130264Y319533D01*
X130264Y325635D01*
X128739Y327160D01*
X133518Y322584D02*
X139620Y322584D01*
X136569Y325635D02*
X136569Y319533D01*
X114808Y273820D02*
X114808Y267719D01*
X117859Y264668D01*
X120909Y267719D01*
X120909Y273820D01*
X125688Y273820D02*
X128739Y273820D01*
X125688Y273820D02*
X124163Y272295D01*
X124163Y266193D01*
X125688Y264668D01*
X128739Y264668D01*
X130264Y266193D01*
X130264Y272295D01*
X128739Y273820D01*
X133518Y269244D02*
X139620Y269244D01*
D12*
X60833Y180473D02*
X60833Y173101D01*
X60833Y180473D02*
X64519Y180473D01*
X65748Y179245D01*
X65748Y176787D01*
X64519Y175558D01*
X60833Y175558D01*
X69546Y180473D02*
X72003Y180473D01*
X69546Y180473D02*
X68317Y179245D01*
X68317Y174330D01*
X69546Y173101D01*
X72003Y173101D01*
X73232Y174330D01*
X73232Y179245D01*
X72003Y180473D01*
X75801Y180473D02*
X75801Y173101D01*
X78259Y175558D01*
X80716Y173101D01*
X80716Y180473D01*
X83285Y180473D02*
X88200Y180473D01*
X83285Y180473D02*
X83285Y173101D01*
X88200Y173101D01*
X85743Y176787D02*
X83285Y176787D01*
X90770Y173101D02*
X90770Y180473D01*
X94456Y180473D01*
X95684Y179245D01*
X95684Y176787D01*
X94456Y175558D01*
X90770Y175558D01*
X93227Y175558D02*
X95684Y173101D01*
D13*
X42404Y144484D02*
X42404Y73364D01*
X24624Y73364D01*
X24624Y65744D01*
X4304Y65744D01*
X4304Y73364D01*
X-8396Y73364D01*
X-8396Y144484D01*
X4304Y144484D01*
X4304Y152104D01*
X24624Y152104D01*
X24624Y144484D01*
X42404Y144484D01*
D11*
X-10896Y374542D02*
X-10896Y424542D01*
X129104Y429542D02*
X129104Y369542D01*
X104Y374542D02*
X-10896Y374542D01*
X-10896Y424542D02*
X19104Y424542D01*
X19104Y369542D02*
X31104Y369542D01*
X19104Y424542D02*
X19104Y429542D01*
X51104Y429542D01*
X49104Y369542D02*
X129104Y369542D01*
X129104Y429542D02*
X119104Y429542D01*
X102104Y429542D02*
X69104Y429542D01*
D14*
X119104Y429542D02*
X119104Y417542D01*
X102104Y417542D01*
X102104Y429542D01*
D11*
X19104Y373542D02*
X19104Y369542D01*
X19104Y373542D02*
X19104Y374542D01*
X104Y374542D01*
D14*
X175182Y102796D02*
X269162Y102796D01*
X175182Y141912D02*
X175060Y141910D01*
X174938Y141904D01*
X174816Y141894D01*
X174695Y141881D01*
X174574Y141863D01*
X174454Y141842D01*
X174334Y141816D01*
X174216Y141787D01*
X174098Y141755D01*
X173981Y141718D01*
X173866Y141678D01*
X173752Y141634D01*
X173640Y141586D01*
X173529Y141535D01*
X173420Y141480D01*
X173312Y141422D01*
X173207Y141360D01*
X173104Y141295D01*
X173002Y141227D01*
X172903Y141155D01*
X172807Y141081D01*
X172712Y141003D01*
X172621Y140922D01*
X172531Y140839D01*
X172445Y140753D01*
X172362Y140663D01*
X172281Y140572D01*
X172203Y140477D01*
X172129Y140381D01*
X172057Y140282D01*
X171989Y140180D01*
X171924Y140077D01*
X171862Y139972D01*
X171804Y139864D01*
X171749Y139755D01*
X171698Y139644D01*
X171650Y139532D01*
X171606Y139418D01*
X171566Y139303D01*
X171529Y139186D01*
X171497Y139068D01*
X171468Y138950D01*
X171442Y138830D01*
X171421Y138710D01*
X171403Y138589D01*
X171390Y138468D01*
X171380Y138346D01*
X171374Y138224D01*
X171372Y138102D01*
X269162Y102796D02*
X269284Y102798D01*
X269406Y102804D01*
X269528Y102814D01*
X269649Y102827D01*
X269770Y102845D01*
X269890Y102866D01*
X270010Y102892D01*
X270128Y102921D01*
X270246Y102953D01*
X270363Y102990D01*
X270478Y103030D01*
X270592Y103074D01*
X270704Y103122D01*
X270815Y103173D01*
X270924Y103228D01*
X271032Y103286D01*
X271137Y103348D01*
X271240Y103413D01*
X271342Y103481D01*
X271441Y103553D01*
X271537Y103627D01*
X271632Y103705D01*
X271723Y103786D01*
X271813Y103869D01*
X271899Y103955D01*
X271982Y104045D01*
X272063Y104136D01*
X272141Y104231D01*
X272215Y104327D01*
X272287Y104426D01*
X272355Y104528D01*
X272420Y104631D01*
X272482Y104736D01*
X272540Y104844D01*
X272595Y104953D01*
X272646Y105064D01*
X272694Y105176D01*
X272738Y105290D01*
X272778Y105405D01*
X272815Y105522D01*
X272847Y105640D01*
X272876Y105758D01*
X272902Y105878D01*
X272923Y105998D01*
X272941Y106119D01*
X272954Y106240D01*
X272964Y106362D01*
X272970Y106484D01*
X272972Y106606D01*
X175182Y102796D02*
X175060Y102798D01*
X174938Y102804D01*
X174816Y102814D01*
X174695Y102827D01*
X174574Y102845D01*
X174454Y102866D01*
X174334Y102892D01*
X174216Y102921D01*
X174098Y102953D01*
X173981Y102990D01*
X173866Y103030D01*
X173752Y103074D01*
X173640Y103122D01*
X173529Y103173D01*
X173420Y103228D01*
X173312Y103286D01*
X173207Y103348D01*
X173104Y103413D01*
X173002Y103481D01*
X172903Y103553D01*
X172807Y103627D01*
X172712Y103705D01*
X172621Y103786D01*
X172531Y103869D01*
X172445Y103955D01*
X172362Y104045D01*
X172281Y104136D01*
X172203Y104231D01*
X172129Y104327D01*
X172057Y104426D01*
X171989Y104528D01*
X171924Y104631D01*
X171862Y104736D01*
X171804Y104844D01*
X171749Y104953D01*
X171698Y105064D01*
X171650Y105176D01*
X171606Y105290D01*
X171566Y105405D01*
X171529Y105522D01*
X171497Y105640D01*
X171468Y105758D01*
X171442Y105878D01*
X171421Y105998D01*
X171403Y106119D01*
X171390Y106240D01*
X171380Y106362D01*
X171374Y106484D01*
X171372Y106606D01*
X269162Y141912D02*
X269284Y141910D01*
X269406Y141904D01*
X269528Y141894D01*
X269649Y141881D01*
X269770Y141863D01*
X269890Y141842D01*
X270010Y141816D01*
X270128Y141787D01*
X270246Y141755D01*
X270363Y141718D01*
X270478Y141678D01*
X270592Y141634D01*
X270704Y141586D01*
X270815Y141535D01*
X270924Y141480D01*
X271032Y141422D01*
X271137Y141360D01*
X271240Y141295D01*
X271342Y141227D01*
X271441Y141155D01*
X271537Y141081D01*
X271632Y141003D01*
X271723Y140922D01*
X271813Y140839D01*
X271899Y140753D01*
X271982Y140663D01*
X272063Y140572D01*
X272141Y140477D01*
X272215Y140381D01*
X272287Y140282D01*
X272355Y140180D01*
X272420Y140077D01*
X272482Y139972D01*
X272540Y139864D01*
X272595Y139755D01*
X272646Y139644D01*
X272694Y139532D01*
X272738Y139418D01*
X272778Y139303D01*
X272815Y139186D01*
X272847Y139068D01*
X272876Y138950D01*
X272902Y138830D01*
X272923Y138710D01*
X272941Y138589D01*
X272954Y138468D01*
X272964Y138346D01*
X272970Y138224D01*
X272972Y138102D01*
X269162Y141912D02*
X175182Y141912D01*
X171372Y138102D02*
X171372Y106606D01*
X272972Y106606D02*
X272972Y138102D01*
X272972Y127434D02*
X272831Y127432D01*
X272690Y127426D01*
X272549Y127416D01*
X272408Y127403D01*
X272268Y127385D01*
X272129Y127363D01*
X271990Y127338D01*
X271851Y127309D01*
X271714Y127276D01*
X271578Y127239D01*
X271443Y127198D01*
X271308Y127154D01*
X271176Y127106D01*
X271044Y127054D01*
X270914Y126999D01*
X270786Y126940D01*
X270659Y126877D01*
X270535Y126811D01*
X270412Y126742D01*
X270291Y126669D01*
X270172Y126593D01*
X270055Y126513D01*
X269941Y126430D01*
X269828Y126345D01*
X269719Y126256D01*
X269611Y126164D01*
X269507Y126069D01*
X269405Y125971D01*
X269306Y125870D01*
X269209Y125767D01*
X269116Y125661D01*
X269026Y125553D01*
X268938Y125442D01*
X268854Y125329D01*
X268773Y125213D01*
X268695Y125095D01*
X268620Y124975D01*
X268549Y124853D01*
X268481Y124729D01*
X268417Y124603D01*
X268356Y124476D01*
X268299Y124347D01*
X268246Y124216D01*
X268196Y124084D01*
X268149Y123951D01*
X268107Y123816D01*
X268068Y123680D01*
X268033Y123543D01*
X268002Y123406D01*
X267975Y123267D01*
X267951Y123128D01*
X267932Y122988D01*
X267916Y122848D01*
X267904Y122707D01*
X267896Y122566D01*
X267892Y122425D01*
X267892Y122283D01*
X267896Y122142D01*
X267904Y122001D01*
X267916Y121860D01*
X267932Y121720D01*
X267951Y121580D01*
X267975Y121441D01*
X268002Y121302D01*
X268033Y121165D01*
X268068Y121028D01*
X268107Y120892D01*
X268149Y120757D01*
X268196Y120624D01*
X268246Y120492D01*
X268299Y120361D01*
X268356Y120232D01*
X268417Y120105D01*
X268481Y119979D01*
X268549Y119855D01*
X268620Y119733D01*
X268695Y119613D01*
X268773Y119495D01*
X268854Y119379D01*
X268938Y119266D01*
X269026Y119155D01*
X269116Y119047D01*
X269209Y118941D01*
X269306Y118838D01*
X269405Y118737D01*
X269507Y118639D01*
X269611Y118544D01*
X269719Y118452D01*
X269828Y118363D01*
X269941Y118278D01*
X270055Y118195D01*
X270172Y118115D01*
X270291Y118039D01*
X270412Y117966D01*
X270535Y117897D01*
X270659Y117831D01*
X270786Y117768D01*
X270914Y117709D01*
X271044Y117654D01*
X271176Y117602D01*
X271308Y117554D01*
X271443Y117510D01*
X271578Y117469D01*
X271714Y117432D01*
X271851Y117399D01*
X271990Y117370D01*
X272129Y117345D01*
X272268Y117323D01*
X272408Y117305D01*
X272549Y117292D01*
X272690Y117282D01*
X272831Y117276D01*
X272972Y117274D01*
D15*
X272972Y138356D02*
X171372Y138356D01*
D16*
X157704Y262582D02*
X243804Y262582D01*
X243804Y257582D01*
X243804Y224582D01*
X157704Y224582D02*
X157704Y257582D01*
X157704Y262582D01*
X157704Y224582D02*
X243804Y224582D01*
D14*
X185368Y334332D02*
X159368Y334332D01*
X159368Y301832D02*
X185368Y301832D01*
X156118Y331082D02*
X156120Y331193D01*
X156126Y331304D01*
X156135Y331414D01*
X156148Y331525D01*
X156165Y331634D01*
X156186Y331743D01*
X156210Y331851D01*
X156239Y331959D01*
X156270Y332065D01*
X156306Y332170D01*
X156345Y332274D01*
X156387Y332377D01*
X156433Y332478D01*
X156482Y332577D01*
X156535Y332675D01*
X156591Y332771D01*
X156650Y332864D01*
X156713Y332956D01*
X156778Y333046D01*
X156847Y333133D01*
X156918Y333218D01*
X156993Y333300D01*
X157070Y333380D01*
X157150Y333457D01*
X157232Y333532D01*
X157317Y333603D01*
X157404Y333672D01*
X157494Y333737D01*
X157586Y333800D01*
X157679Y333859D01*
X157775Y333915D01*
X157873Y333968D01*
X157972Y334017D01*
X158073Y334063D01*
X158176Y334105D01*
X158280Y334144D01*
X158385Y334180D01*
X158491Y334211D01*
X158599Y334240D01*
X158707Y334264D01*
X158816Y334285D01*
X158925Y334302D01*
X159036Y334315D01*
X159146Y334324D01*
X159257Y334330D01*
X159368Y334332D01*
X156118Y305082D02*
X156120Y304971D01*
X156126Y304860D01*
X156135Y304750D01*
X156148Y304639D01*
X156165Y304530D01*
X156186Y304421D01*
X156210Y304313D01*
X156239Y304205D01*
X156270Y304099D01*
X156306Y303994D01*
X156345Y303890D01*
X156387Y303787D01*
X156433Y303686D01*
X156482Y303587D01*
X156535Y303489D01*
X156591Y303393D01*
X156650Y303300D01*
X156713Y303208D01*
X156778Y303118D01*
X156847Y303031D01*
X156918Y302946D01*
X156993Y302864D01*
X157070Y302784D01*
X157150Y302707D01*
X157232Y302632D01*
X157317Y302561D01*
X157404Y302492D01*
X157494Y302427D01*
X157586Y302364D01*
X157679Y302305D01*
X157775Y302249D01*
X157873Y302196D01*
X157972Y302147D01*
X158073Y302101D01*
X158176Y302059D01*
X158280Y302020D01*
X158385Y301984D01*
X158491Y301953D01*
X158599Y301924D01*
X158707Y301900D01*
X158816Y301879D01*
X158925Y301862D01*
X159036Y301849D01*
X159146Y301840D01*
X159257Y301834D01*
X159368Y301832D01*
X185368Y301832D02*
X185479Y301834D01*
X185590Y301840D01*
X185700Y301849D01*
X185811Y301862D01*
X185920Y301879D01*
X186029Y301900D01*
X186137Y301924D01*
X186245Y301953D01*
X186351Y301984D01*
X186456Y302020D01*
X186560Y302059D01*
X186663Y302101D01*
X186764Y302147D01*
X186863Y302196D01*
X186961Y302249D01*
X187057Y302305D01*
X187150Y302364D01*
X187242Y302427D01*
X187332Y302492D01*
X187419Y302561D01*
X187504Y302632D01*
X187586Y302707D01*
X187666Y302784D01*
X187743Y302864D01*
X187818Y302946D01*
X187889Y303031D01*
X187958Y303118D01*
X188023Y303208D01*
X188086Y303300D01*
X188145Y303393D01*
X188201Y303489D01*
X188254Y303587D01*
X188303Y303686D01*
X188349Y303787D01*
X188391Y303890D01*
X188430Y303994D01*
X188466Y304099D01*
X188497Y304205D01*
X188526Y304313D01*
X188550Y304421D01*
X188571Y304530D01*
X188588Y304639D01*
X188601Y304750D01*
X188610Y304860D01*
X188616Y304971D01*
X188618Y305082D01*
X188618Y331082D02*
X188616Y331193D01*
X188610Y331304D01*
X188601Y331414D01*
X188588Y331525D01*
X188571Y331634D01*
X188550Y331743D01*
X188526Y331851D01*
X188497Y331959D01*
X188466Y332065D01*
X188430Y332170D01*
X188391Y332274D01*
X188349Y332377D01*
X188303Y332478D01*
X188254Y332577D01*
X188201Y332675D01*
X188145Y332771D01*
X188086Y332864D01*
X188023Y332956D01*
X187958Y333046D01*
X187889Y333133D01*
X187818Y333218D01*
X187743Y333300D01*
X187666Y333380D01*
X187586Y333457D01*
X187504Y333532D01*
X187419Y333603D01*
X187332Y333672D01*
X187242Y333737D01*
X187150Y333800D01*
X187057Y333859D01*
X186961Y333915D01*
X186863Y333968D01*
X186764Y334017D01*
X186663Y334063D01*
X186560Y334105D01*
X186456Y334144D01*
X186351Y334180D01*
X186245Y334211D01*
X186137Y334240D01*
X186029Y334264D01*
X185920Y334285D01*
X185811Y334302D01*
X185700Y334315D01*
X185590Y334324D01*
X185479Y334330D01*
X185368Y334332D01*
D15*
X175264Y308636D02*
X175266Y308777D01*
X175272Y308918D01*
X175282Y309058D01*
X175296Y309198D01*
X175314Y309338D01*
X175335Y309477D01*
X175361Y309616D01*
X175390Y309754D01*
X175424Y309890D01*
X175461Y310026D01*
X175502Y310161D01*
X175547Y310295D01*
X175596Y310427D01*
X175648Y310558D01*
X175704Y310687D01*
X175764Y310814D01*
X175827Y310940D01*
X175893Y311064D01*
X175964Y311187D01*
X176037Y311307D01*
X176114Y311425D01*
X176194Y311541D01*
X176278Y311654D01*
X176364Y311765D01*
X176454Y311874D01*
X176547Y311980D01*
X176642Y312083D01*
X176741Y312184D01*
X176842Y312282D01*
X176946Y312377D01*
X177053Y312469D01*
X177162Y312558D01*
X177274Y312643D01*
X177388Y312726D01*
X177504Y312806D01*
X177623Y312882D01*
X177744Y312954D01*
X177866Y313024D01*
X177991Y313089D01*
X178117Y313152D01*
X178245Y313210D01*
X178375Y313265D01*
X178506Y313317D01*
X178639Y313364D01*
X178773Y313408D01*
X178908Y313449D01*
X179044Y313485D01*
X179181Y313517D01*
X179319Y313546D01*
X179457Y313571D01*
X179597Y313591D01*
X179737Y313608D01*
X179877Y313621D01*
X180018Y313630D01*
X180158Y313635D01*
X180299Y313636D01*
X180440Y313633D01*
X180581Y313626D01*
X180721Y313615D01*
X180861Y313600D01*
X181001Y313581D01*
X181140Y313559D01*
X181278Y313532D01*
X181416Y313502D01*
X181552Y313467D01*
X181688Y313429D01*
X181822Y313387D01*
X181956Y313341D01*
X182088Y313292D01*
X182218Y313238D01*
X182347Y313181D01*
X182474Y313121D01*
X182600Y313057D01*
X182723Y312989D01*
X182845Y312918D01*
X182965Y312844D01*
X183082Y312766D01*
X183197Y312685D01*
X183310Y312601D01*
X183421Y312514D01*
X183529Y312423D01*
X183634Y312330D01*
X183737Y312233D01*
X183837Y312134D01*
X183934Y312032D01*
X184028Y311927D01*
X184119Y311820D01*
X184207Y311710D01*
X184292Y311598D01*
X184374Y311483D01*
X184453Y311366D01*
X184528Y311247D01*
X184600Y311126D01*
X184668Y311003D01*
X184733Y310878D01*
X184795Y310751D01*
X184852Y310622D01*
X184907Y310492D01*
X184957Y310361D01*
X185004Y310228D01*
X185047Y310094D01*
X185086Y309958D01*
X185121Y309822D01*
X185153Y309685D01*
X185180Y309547D01*
X185204Y309408D01*
X185224Y309268D01*
X185240Y309128D01*
X185252Y308988D01*
X185260Y308847D01*
X185264Y308706D01*
X185264Y308566D01*
X185260Y308425D01*
X185252Y308284D01*
X185240Y308144D01*
X185224Y308004D01*
X185204Y307864D01*
X185180Y307725D01*
X185153Y307587D01*
X185121Y307450D01*
X185086Y307314D01*
X185047Y307178D01*
X185004Y307044D01*
X184957Y306911D01*
X184907Y306780D01*
X184852Y306650D01*
X184795Y306521D01*
X184733Y306394D01*
X184668Y306269D01*
X184600Y306146D01*
X184528Y306025D01*
X184453Y305906D01*
X184374Y305789D01*
X184292Y305674D01*
X184207Y305562D01*
X184119Y305452D01*
X184028Y305345D01*
X183934Y305240D01*
X183837Y305138D01*
X183737Y305039D01*
X183634Y304942D01*
X183529Y304849D01*
X183421Y304758D01*
X183310Y304671D01*
X183197Y304587D01*
X183082Y304506D01*
X182965Y304428D01*
X182845Y304354D01*
X182723Y304283D01*
X182600Y304215D01*
X182474Y304151D01*
X182347Y304091D01*
X182218Y304034D01*
X182088Y303980D01*
X181956Y303931D01*
X181822Y303885D01*
X181688Y303843D01*
X181552Y303805D01*
X181416Y303770D01*
X181278Y303740D01*
X181140Y303713D01*
X181001Y303691D01*
X180861Y303672D01*
X180721Y303657D01*
X180581Y303646D01*
X180440Y303639D01*
X180299Y303636D01*
X180158Y303637D01*
X180018Y303642D01*
X179877Y303651D01*
X179737Y303664D01*
X179597Y303681D01*
X179457Y303701D01*
X179319Y303726D01*
X179181Y303755D01*
X179044Y303787D01*
X178908Y303823D01*
X178773Y303864D01*
X178639Y303908D01*
X178506Y303955D01*
X178375Y304007D01*
X178245Y304062D01*
X178117Y304120D01*
X177991Y304183D01*
X177866Y304248D01*
X177744Y304318D01*
X177623Y304390D01*
X177504Y304466D01*
X177388Y304546D01*
X177274Y304629D01*
X177162Y304714D01*
X177053Y304803D01*
X176946Y304895D01*
X176842Y304990D01*
X176741Y305088D01*
X176642Y305189D01*
X176547Y305292D01*
X176454Y305398D01*
X176364Y305507D01*
X176278Y305618D01*
X176194Y305731D01*
X176114Y305847D01*
X176037Y305965D01*
X175964Y306085D01*
X175893Y306208D01*
X175827Y306332D01*
X175764Y306458D01*
X175704Y306585D01*
X175648Y306714D01*
X175596Y306845D01*
X175547Y306977D01*
X175502Y307111D01*
X175461Y307246D01*
X175424Y307382D01*
X175390Y307518D01*
X175361Y307656D01*
X175335Y307795D01*
X175314Y307934D01*
X175296Y308074D01*
X175282Y308214D01*
X175272Y308354D01*
X175266Y308495D01*
X175264Y308636D01*
D14*
X114104Y121832D02*
X97896Y121832D01*
X97896Y150832D02*
X114104Y150832D01*
X114104Y141556D02*
X114104Y131108D01*
X97896Y140608D02*
X97896Y141556D01*
X97896Y132056D02*
X97896Y131108D01*
X97896Y149608D02*
X97896Y150832D01*
X97896Y123056D02*
X97896Y121832D01*
X114104Y121832D02*
X114104Y123056D01*
X114104Y149608D02*
X114104Y150832D01*
D11*
X71000Y152190D02*
X71000Y124250D01*
X71000Y152190D02*
X83700Y152190D01*
X83700Y124250D01*
X71000Y124250D01*
X233340Y342188D02*
X261280Y342188D01*
X261280Y329488D01*
X233340Y329488D01*
X233340Y342188D01*
X127966Y152314D02*
X127966Y124374D01*
X127966Y152314D02*
X140666Y152314D01*
X140666Y124374D01*
X127966Y124374D01*
X194224Y183946D02*
X222164Y183946D01*
X222164Y171246D01*
X194224Y171246D01*
X194224Y183946D01*
X249260Y263094D02*
X277200Y263094D01*
X249260Y263094D02*
X249260Y275794D01*
X277200Y275794D01*
X277200Y263094D01*
X186014Y341326D02*
X158074Y341326D01*
X158074Y354026D01*
X186014Y354026D01*
X186014Y341326D01*
X104306Y233350D02*
X104306Y205410D01*
X104306Y233350D02*
X117006Y233350D01*
X117006Y205410D01*
X104306Y205410D01*
X89066Y205410D02*
X89066Y233350D01*
X101766Y233350D01*
X101766Y205410D01*
X89066Y205410D01*
D17*
X299186Y181000D02*
X299188Y181075D01*
X299194Y181149D01*
X299204Y181223D01*
X299217Y181296D01*
X299235Y181369D01*
X299256Y181440D01*
X299281Y181511D01*
X299310Y181580D01*
X299343Y181647D01*
X299379Y181712D01*
X299418Y181776D01*
X299460Y181837D01*
X299506Y181896D01*
X299555Y181953D01*
X299607Y182006D01*
X299661Y182057D01*
X299718Y182106D01*
X299778Y182150D01*
X299840Y182192D01*
X299904Y182231D01*
X299970Y182266D01*
X300037Y182297D01*
X300107Y182325D01*
X300177Y182349D01*
X300249Y182370D01*
X300322Y182386D01*
X300395Y182399D01*
X300470Y182408D01*
X300544Y182413D01*
X300619Y182414D01*
X300693Y182411D01*
X300768Y182404D01*
X300841Y182393D01*
X300915Y182379D01*
X300987Y182360D01*
X301058Y182338D01*
X301128Y182312D01*
X301197Y182282D01*
X301263Y182249D01*
X301328Y182212D01*
X301391Y182172D01*
X301452Y182128D01*
X301510Y182082D01*
X301566Y182032D01*
X301619Y181980D01*
X301670Y181925D01*
X301717Y181867D01*
X301761Y181807D01*
X301802Y181744D01*
X301840Y181680D01*
X301874Y181614D01*
X301905Y181545D01*
X301932Y181476D01*
X301955Y181405D01*
X301974Y181333D01*
X301990Y181260D01*
X302002Y181186D01*
X302010Y181112D01*
X302014Y181037D01*
X302014Y180963D01*
X302010Y180888D01*
X302002Y180814D01*
X301990Y180740D01*
X301974Y180667D01*
X301955Y180595D01*
X301932Y180524D01*
X301905Y180455D01*
X301874Y180386D01*
X301840Y180320D01*
X301802Y180256D01*
X301761Y180193D01*
X301717Y180133D01*
X301670Y180075D01*
X301619Y180020D01*
X301566Y179968D01*
X301510Y179918D01*
X301452Y179872D01*
X301391Y179828D01*
X301328Y179788D01*
X301263Y179751D01*
X301197Y179718D01*
X301128Y179688D01*
X301058Y179662D01*
X300987Y179640D01*
X300915Y179621D01*
X300841Y179607D01*
X300768Y179596D01*
X300693Y179589D01*
X300619Y179586D01*
X300544Y179587D01*
X300470Y179592D01*
X300395Y179601D01*
X300322Y179614D01*
X300249Y179630D01*
X300177Y179651D01*
X300107Y179675D01*
X300037Y179703D01*
X299970Y179734D01*
X299904Y179769D01*
X299840Y179808D01*
X299778Y179850D01*
X299718Y179894D01*
X299661Y179943D01*
X299607Y179994D01*
X299555Y180047D01*
X299506Y180104D01*
X299460Y180163D01*
X299418Y180224D01*
X299379Y180288D01*
X299343Y180353D01*
X299310Y180420D01*
X299281Y180489D01*
X299256Y180560D01*
X299235Y180631D01*
X299217Y180704D01*
X299204Y180777D01*
X299194Y180851D01*
X299188Y180925D01*
X299186Y181000D01*
D13*
X349600Y191000D02*
X349600Y221000D01*
X323600Y176000D02*
X307100Y176000D01*
X307100Y228500D02*
X307100Y236000D01*
X323600Y236000D01*
X307100Y183500D02*
X307100Y176000D01*
D17*
X53586Y231000D02*
X53588Y231075D01*
X53594Y231149D01*
X53604Y231223D01*
X53617Y231296D01*
X53635Y231369D01*
X53656Y231440D01*
X53681Y231511D01*
X53710Y231580D01*
X53743Y231647D01*
X53779Y231712D01*
X53818Y231776D01*
X53860Y231837D01*
X53906Y231896D01*
X53955Y231953D01*
X54007Y232006D01*
X54061Y232057D01*
X54118Y232106D01*
X54178Y232150D01*
X54240Y232192D01*
X54304Y232231D01*
X54370Y232266D01*
X54437Y232297D01*
X54507Y232325D01*
X54577Y232349D01*
X54649Y232370D01*
X54722Y232386D01*
X54795Y232399D01*
X54870Y232408D01*
X54944Y232413D01*
X55019Y232414D01*
X55093Y232411D01*
X55168Y232404D01*
X55241Y232393D01*
X55315Y232379D01*
X55387Y232360D01*
X55458Y232338D01*
X55528Y232312D01*
X55597Y232282D01*
X55663Y232249D01*
X55728Y232212D01*
X55791Y232172D01*
X55852Y232128D01*
X55910Y232082D01*
X55966Y232032D01*
X56019Y231980D01*
X56070Y231925D01*
X56117Y231867D01*
X56161Y231807D01*
X56202Y231744D01*
X56240Y231680D01*
X56274Y231614D01*
X56305Y231545D01*
X56332Y231476D01*
X56355Y231405D01*
X56374Y231333D01*
X56390Y231260D01*
X56402Y231186D01*
X56410Y231112D01*
X56414Y231037D01*
X56414Y230963D01*
X56410Y230888D01*
X56402Y230814D01*
X56390Y230740D01*
X56374Y230667D01*
X56355Y230595D01*
X56332Y230524D01*
X56305Y230455D01*
X56274Y230386D01*
X56240Y230320D01*
X56202Y230256D01*
X56161Y230193D01*
X56117Y230133D01*
X56070Y230075D01*
X56019Y230020D01*
X55966Y229968D01*
X55910Y229918D01*
X55852Y229872D01*
X55791Y229828D01*
X55728Y229788D01*
X55663Y229751D01*
X55597Y229718D01*
X55528Y229688D01*
X55458Y229662D01*
X55387Y229640D01*
X55315Y229621D01*
X55241Y229607D01*
X55168Y229596D01*
X55093Y229589D01*
X55019Y229586D01*
X54944Y229587D01*
X54870Y229592D01*
X54795Y229601D01*
X54722Y229614D01*
X54649Y229630D01*
X54577Y229651D01*
X54507Y229675D01*
X54437Y229703D01*
X54370Y229734D01*
X54304Y229769D01*
X54240Y229808D01*
X54178Y229850D01*
X54118Y229894D01*
X54061Y229943D01*
X54007Y229994D01*
X53955Y230047D01*
X53906Y230104D01*
X53860Y230163D01*
X53818Y230224D01*
X53779Y230288D01*
X53743Y230353D01*
X53710Y230420D01*
X53681Y230489D01*
X53656Y230560D01*
X53635Y230631D01*
X53617Y230704D01*
X53604Y230777D01*
X53594Y230851D01*
X53588Y230925D01*
X53586Y231000D01*
D13*
X6000Y221000D02*
X6000Y191000D01*
X32000Y236000D02*
X48500Y236000D01*
X48500Y183500D02*
X48500Y176000D01*
X32000Y176000D01*
X48500Y228500D02*
X48500Y236000D01*
D11*
X222174Y74764D02*
X250114Y74764D01*
X250114Y62064D01*
X222174Y62064D01*
X222174Y74764D01*
X264702Y314770D02*
X292642Y314770D01*
X264702Y314770D02*
X264702Y327470D01*
X292642Y327470D01*
X292642Y314770D01*
X261422Y327464D02*
X233482Y327464D01*
X261422Y327464D02*
X261422Y314764D01*
X233482Y314764D01*
X233482Y327464D01*
X264724Y342196D02*
X292664Y342196D01*
X292664Y329496D01*
X264724Y329496D01*
X264724Y342196D01*
X261168Y356674D02*
X233228Y356674D01*
X261168Y356674D02*
X261168Y343974D01*
X233228Y343974D01*
X233228Y356674D01*
X233228Y371152D02*
X261168Y371152D01*
X261168Y358452D01*
X233228Y358452D01*
X233228Y371152D01*
X264978Y356674D02*
X292918Y356674D01*
X292918Y343974D01*
X264978Y343974D01*
X264978Y356674D01*
X264978Y371152D02*
X292918Y371152D01*
X292918Y358452D01*
X264978Y358452D01*
X264978Y371152D01*
X181158Y399854D02*
X153218Y399854D01*
X181158Y399854D02*
X181158Y387154D01*
X153218Y387154D01*
X153218Y399854D01*
X152964Y414586D02*
X180904Y414586D01*
X180904Y401886D01*
X152964Y401886D01*
X152964Y414586D01*
X119944Y169730D02*
X92004Y169730D01*
X119944Y169730D02*
X119944Y157030D01*
X92004Y157030D01*
X92004Y169730D01*
X85526Y159380D02*
X69526Y159380D01*
X69526Y167380D01*
X85526Y167380D01*
X85526Y159380D01*
X78796Y159570D02*
X78796Y167190D01*
X77526Y165285D01*
X76256Y163380D01*
X77526Y161475D01*
X78796Y159570D01*
X78161Y160840D02*
X78161Y165920D01*
X77526Y165285D02*
X77526Y161475D01*
X327152Y305054D02*
X352552Y305054D01*
X327152Y305054D02*
X327152Y406654D01*
X352552Y406654D01*
X352552Y305054D01*
X71338Y330286D02*
X15338Y330286D01*
X1338Y330286D01*
X1338Y260286D01*
X15338Y260286D01*
X71338Y260286D01*
X71338Y330286D01*
X15338Y330286D02*
X15338Y260286D01*
X88900Y27700D02*
X88900Y2300D01*
X88900Y27700D02*
X266700Y27700D01*
X266700Y2300D01*
X88900Y2300D01*
X73962Y251804D02*
X73962Y340704D01*
X112062Y340704D01*
X112062Y251804D01*
X73962Y251804D01*
X227584Y174244D02*
X255524Y174244D01*
X227584Y174244D02*
X227584Y186944D01*
X255524Y186944D01*
X255524Y174244D01*
X158242Y177546D02*
X158242Y149606D01*
X145542Y149606D01*
X145542Y177546D01*
X158242Y177546D01*
X157988Y356362D02*
X185928Y356362D01*
X157988Y356362D02*
X157988Y369062D01*
X185928Y369062D01*
X185928Y356362D01*
M02*
