G04 EAGLE Gerber RS-274X export*
G75*
%MOMM*%
%FSLAX34Y34*%
%LPD*%
%AMOC8*
5,1,8,0,0,1.08239X$1,22.5*%
G01*
%ADD10C,0.025400*%
%ADD11C,0.000000*%


D10*
X0Y0D02*
X355600Y0D01*
X355600Y457200D01*
X0Y457200D01*
X0Y0D01*
D11*
X10400Y25400D02*
X10405Y25768D01*
X10418Y26136D01*
X10441Y26503D01*
X10472Y26870D01*
X10513Y27236D01*
X10562Y27601D01*
X10621Y27964D01*
X10688Y28326D01*
X10764Y28687D01*
X10850Y29045D01*
X10943Y29401D01*
X11046Y29754D01*
X11157Y30105D01*
X11277Y30453D01*
X11405Y30798D01*
X11542Y31140D01*
X11687Y31479D01*
X11840Y31813D01*
X12002Y32144D01*
X12171Y32471D01*
X12349Y32793D01*
X12534Y33112D01*
X12727Y33425D01*
X12928Y33734D01*
X13136Y34037D01*
X13352Y34335D01*
X13575Y34628D01*
X13805Y34916D01*
X14042Y35198D01*
X14286Y35473D01*
X14536Y35743D01*
X14793Y36007D01*
X15057Y36264D01*
X15327Y36514D01*
X15602Y36758D01*
X15884Y36995D01*
X16172Y37225D01*
X16465Y37448D01*
X16763Y37664D01*
X17066Y37872D01*
X17375Y38073D01*
X17688Y38266D01*
X18007Y38451D01*
X18329Y38629D01*
X18656Y38798D01*
X18987Y38960D01*
X19321Y39113D01*
X19660Y39258D01*
X20002Y39395D01*
X20347Y39523D01*
X20695Y39643D01*
X21046Y39754D01*
X21399Y39857D01*
X21755Y39950D01*
X22113Y40036D01*
X22474Y40112D01*
X22836Y40179D01*
X23199Y40238D01*
X23564Y40287D01*
X23930Y40328D01*
X24297Y40359D01*
X24664Y40382D01*
X25032Y40395D01*
X25400Y40400D01*
X25768Y40395D01*
X26136Y40382D01*
X26503Y40359D01*
X26870Y40328D01*
X27236Y40287D01*
X27601Y40238D01*
X27964Y40179D01*
X28326Y40112D01*
X28687Y40036D01*
X29045Y39950D01*
X29401Y39857D01*
X29754Y39754D01*
X30105Y39643D01*
X30453Y39523D01*
X30798Y39395D01*
X31140Y39258D01*
X31479Y39113D01*
X31813Y38960D01*
X32144Y38798D01*
X32471Y38629D01*
X32793Y38451D01*
X33112Y38266D01*
X33425Y38073D01*
X33734Y37872D01*
X34037Y37664D01*
X34335Y37448D01*
X34628Y37225D01*
X34916Y36995D01*
X35198Y36758D01*
X35473Y36514D01*
X35743Y36264D01*
X36007Y36007D01*
X36264Y35743D01*
X36514Y35473D01*
X36758Y35198D01*
X36995Y34916D01*
X37225Y34628D01*
X37448Y34335D01*
X37664Y34037D01*
X37872Y33734D01*
X38073Y33425D01*
X38266Y33112D01*
X38451Y32793D01*
X38629Y32471D01*
X38798Y32144D01*
X38960Y31813D01*
X39113Y31479D01*
X39258Y31140D01*
X39395Y30798D01*
X39523Y30453D01*
X39643Y30105D01*
X39754Y29754D01*
X39857Y29401D01*
X39950Y29045D01*
X40036Y28687D01*
X40112Y28326D01*
X40179Y27964D01*
X40238Y27601D01*
X40287Y27236D01*
X40328Y26870D01*
X40359Y26503D01*
X40382Y26136D01*
X40395Y25768D01*
X40400Y25400D01*
X40395Y25032D01*
X40382Y24664D01*
X40359Y24297D01*
X40328Y23930D01*
X40287Y23564D01*
X40238Y23199D01*
X40179Y22836D01*
X40112Y22474D01*
X40036Y22113D01*
X39950Y21755D01*
X39857Y21399D01*
X39754Y21046D01*
X39643Y20695D01*
X39523Y20347D01*
X39395Y20002D01*
X39258Y19660D01*
X39113Y19321D01*
X38960Y18987D01*
X38798Y18656D01*
X38629Y18329D01*
X38451Y18007D01*
X38266Y17688D01*
X38073Y17375D01*
X37872Y17066D01*
X37664Y16763D01*
X37448Y16465D01*
X37225Y16172D01*
X36995Y15884D01*
X36758Y15602D01*
X36514Y15327D01*
X36264Y15057D01*
X36007Y14793D01*
X35743Y14536D01*
X35473Y14286D01*
X35198Y14042D01*
X34916Y13805D01*
X34628Y13575D01*
X34335Y13352D01*
X34037Y13136D01*
X33734Y12928D01*
X33425Y12727D01*
X33112Y12534D01*
X32793Y12349D01*
X32471Y12171D01*
X32144Y12002D01*
X31813Y11840D01*
X31479Y11687D01*
X31140Y11542D01*
X30798Y11405D01*
X30453Y11277D01*
X30105Y11157D01*
X29754Y11046D01*
X29401Y10943D01*
X29045Y10850D01*
X28687Y10764D01*
X28326Y10688D01*
X27964Y10621D01*
X27601Y10562D01*
X27236Y10513D01*
X26870Y10472D01*
X26503Y10441D01*
X26136Y10418D01*
X25768Y10405D01*
X25400Y10400D01*
X25032Y10405D01*
X24664Y10418D01*
X24297Y10441D01*
X23930Y10472D01*
X23564Y10513D01*
X23199Y10562D01*
X22836Y10621D01*
X22474Y10688D01*
X22113Y10764D01*
X21755Y10850D01*
X21399Y10943D01*
X21046Y11046D01*
X20695Y11157D01*
X20347Y11277D01*
X20002Y11405D01*
X19660Y11542D01*
X19321Y11687D01*
X18987Y11840D01*
X18656Y12002D01*
X18329Y12171D01*
X18007Y12349D01*
X17688Y12534D01*
X17375Y12727D01*
X17066Y12928D01*
X16763Y13136D01*
X16465Y13352D01*
X16172Y13575D01*
X15884Y13805D01*
X15602Y14042D01*
X15327Y14286D01*
X15057Y14536D01*
X14793Y14793D01*
X14536Y15057D01*
X14286Y15327D01*
X14042Y15602D01*
X13805Y15884D01*
X13575Y16172D01*
X13352Y16465D01*
X13136Y16763D01*
X12928Y17066D01*
X12727Y17375D01*
X12534Y17688D01*
X12349Y18007D01*
X12171Y18329D01*
X12002Y18656D01*
X11840Y18987D01*
X11687Y19321D01*
X11542Y19660D01*
X11405Y20002D01*
X11277Y20347D01*
X11157Y20695D01*
X11046Y21046D01*
X10943Y21399D01*
X10850Y21755D01*
X10764Y22113D01*
X10688Y22474D01*
X10621Y22836D01*
X10562Y23199D01*
X10513Y23564D01*
X10472Y23930D01*
X10441Y24297D01*
X10418Y24664D01*
X10405Y25032D01*
X10400Y25400D01*
X315200Y25400D02*
X315205Y25768D01*
X315218Y26136D01*
X315241Y26503D01*
X315272Y26870D01*
X315313Y27236D01*
X315362Y27601D01*
X315421Y27964D01*
X315488Y28326D01*
X315564Y28687D01*
X315650Y29045D01*
X315743Y29401D01*
X315846Y29754D01*
X315957Y30105D01*
X316077Y30453D01*
X316205Y30798D01*
X316342Y31140D01*
X316487Y31479D01*
X316640Y31813D01*
X316802Y32144D01*
X316971Y32471D01*
X317149Y32793D01*
X317334Y33112D01*
X317527Y33425D01*
X317728Y33734D01*
X317936Y34037D01*
X318152Y34335D01*
X318375Y34628D01*
X318605Y34916D01*
X318842Y35198D01*
X319086Y35473D01*
X319336Y35743D01*
X319593Y36007D01*
X319857Y36264D01*
X320127Y36514D01*
X320402Y36758D01*
X320684Y36995D01*
X320972Y37225D01*
X321265Y37448D01*
X321563Y37664D01*
X321866Y37872D01*
X322175Y38073D01*
X322488Y38266D01*
X322807Y38451D01*
X323129Y38629D01*
X323456Y38798D01*
X323787Y38960D01*
X324121Y39113D01*
X324460Y39258D01*
X324802Y39395D01*
X325147Y39523D01*
X325495Y39643D01*
X325846Y39754D01*
X326199Y39857D01*
X326555Y39950D01*
X326913Y40036D01*
X327274Y40112D01*
X327636Y40179D01*
X327999Y40238D01*
X328364Y40287D01*
X328730Y40328D01*
X329097Y40359D01*
X329464Y40382D01*
X329832Y40395D01*
X330200Y40400D01*
X330568Y40395D01*
X330936Y40382D01*
X331303Y40359D01*
X331670Y40328D01*
X332036Y40287D01*
X332401Y40238D01*
X332764Y40179D01*
X333126Y40112D01*
X333487Y40036D01*
X333845Y39950D01*
X334201Y39857D01*
X334554Y39754D01*
X334905Y39643D01*
X335253Y39523D01*
X335598Y39395D01*
X335940Y39258D01*
X336279Y39113D01*
X336613Y38960D01*
X336944Y38798D01*
X337271Y38629D01*
X337593Y38451D01*
X337912Y38266D01*
X338225Y38073D01*
X338534Y37872D01*
X338837Y37664D01*
X339135Y37448D01*
X339428Y37225D01*
X339716Y36995D01*
X339998Y36758D01*
X340273Y36514D01*
X340543Y36264D01*
X340807Y36007D01*
X341064Y35743D01*
X341314Y35473D01*
X341558Y35198D01*
X341795Y34916D01*
X342025Y34628D01*
X342248Y34335D01*
X342464Y34037D01*
X342672Y33734D01*
X342873Y33425D01*
X343066Y33112D01*
X343251Y32793D01*
X343429Y32471D01*
X343598Y32144D01*
X343760Y31813D01*
X343913Y31479D01*
X344058Y31140D01*
X344195Y30798D01*
X344323Y30453D01*
X344443Y30105D01*
X344554Y29754D01*
X344657Y29401D01*
X344750Y29045D01*
X344836Y28687D01*
X344912Y28326D01*
X344979Y27964D01*
X345038Y27601D01*
X345087Y27236D01*
X345128Y26870D01*
X345159Y26503D01*
X345182Y26136D01*
X345195Y25768D01*
X345200Y25400D01*
X345195Y25032D01*
X345182Y24664D01*
X345159Y24297D01*
X345128Y23930D01*
X345087Y23564D01*
X345038Y23199D01*
X344979Y22836D01*
X344912Y22474D01*
X344836Y22113D01*
X344750Y21755D01*
X344657Y21399D01*
X344554Y21046D01*
X344443Y20695D01*
X344323Y20347D01*
X344195Y20002D01*
X344058Y19660D01*
X343913Y19321D01*
X343760Y18987D01*
X343598Y18656D01*
X343429Y18329D01*
X343251Y18007D01*
X343066Y17688D01*
X342873Y17375D01*
X342672Y17066D01*
X342464Y16763D01*
X342248Y16465D01*
X342025Y16172D01*
X341795Y15884D01*
X341558Y15602D01*
X341314Y15327D01*
X341064Y15057D01*
X340807Y14793D01*
X340543Y14536D01*
X340273Y14286D01*
X339998Y14042D01*
X339716Y13805D01*
X339428Y13575D01*
X339135Y13352D01*
X338837Y13136D01*
X338534Y12928D01*
X338225Y12727D01*
X337912Y12534D01*
X337593Y12349D01*
X337271Y12171D01*
X336944Y12002D01*
X336613Y11840D01*
X336279Y11687D01*
X335940Y11542D01*
X335598Y11405D01*
X335253Y11277D01*
X334905Y11157D01*
X334554Y11046D01*
X334201Y10943D01*
X333845Y10850D01*
X333487Y10764D01*
X333126Y10688D01*
X332764Y10621D01*
X332401Y10562D01*
X332036Y10513D01*
X331670Y10472D01*
X331303Y10441D01*
X330936Y10418D01*
X330568Y10405D01*
X330200Y10400D01*
X329832Y10405D01*
X329464Y10418D01*
X329097Y10441D01*
X328730Y10472D01*
X328364Y10513D01*
X327999Y10562D01*
X327636Y10621D01*
X327274Y10688D01*
X326913Y10764D01*
X326555Y10850D01*
X326199Y10943D01*
X325846Y11046D01*
X325495Y11157D01*
X325147Y11277D01*
X324802Y11405D01*
X324460Y11542D01*
X324121Y11687D01*
X323787Y11840D01*
X323456Y12002D01*
X323129Y12171D01*
X322807Y12349D01*
X322488Y12534D01*
X322175Y12727D01*
X321866Y12928D01*
X321563Y13136D01*
X321265Y13352D01*
X320972Y13575D01*
X320684Y13805D01*
X320402Y14042D01*
X320127Y14286D01*
X319857Y14536D01*
X319593Y14793D01*
X319336Y15057D01*
X319086Y15327D01*
X318842Y15602D01*
X318605Y15884D01*
X318375Y16172D01*
X318152Y16465D01*
X317936Y16763D01*
X317728Y17066D01*
X317527Y17375D01*
X317334Y17688D01*
X317149Y18007D01*
X316971Y18329D01*
X316802Y18656D01*
X316640Y18987D01*
X316487Y19321D01*
X316342Y19660D01*
X316205Y20002D01*
X316077Y20347D01*
X315957Y20695D01*
X315846Y21046D01*
X315743Y21399D01*
X315650Y21755D01*
X315564Y22113D01*
X315488Y22474D01*
X315421Y22836D01*
X315362Y23199D01*
X315313Y23564D01*
X315272Y23930D01*
X315241Y24297D01*
X315218Y24664D01*
X315205Y25032D01*
X315200Y25400D01*
X92604Y399542D02*
X92606Y399726D01*
X92613Y399910D01*
X92624Y400094D01*
X92640Y400277D01*
X92660Y400460D01*
X92685Y400642D01*
X92714Y400824D01*
X92748Y401005D01*
X92786Y401185D01*
X92829Y401364D01*
X92876Y401542D01*
X92927Y401719D01*
X92983Y401895D01*
X93042Y402069D01*
X93107Y402241D01*
X93175Y402412D01*
X93247Y402581D01*
X93324Y402749D01*
X93405Y402914D01*
X93490Y403077D01*
X93578Y403239D01*
X93671Y403398D01*
X93768Y403554D01*
X93868Y403709D01*
X93972Y403861D01*
X94080Y404010D01*
X94191Y404156D01*
X94306Y404300D01*
X94425Y404441D01*
X94547Y404579D01*
X94672Y404714D01*
X94801Y404845D01*
X94932Y404974D01*
X95067Y405099D01*
X95205Y405221D01*
X95346Y405340D01*
X95490Y405455D01*
X95636Y405566D01*
X95785Y405674D01*
X95937Y405778D01*
X96092Y405878D01*
X96248Y405975D01*
X96407Y406068D01*
X96569Y406156D01*
X96732Y406241D01*
X96897Y406322D01*
X97065Y406399D01*
X97234Y406471D01*
X97405Y406539D01*
X97577Y406604D01*
X97751Y406663D01*
X97927Y406719D01*
X98104Y406770D01*
X98282Y406817D01*
X98461Y406860D01*
X98641Y406898D01*
X98822Y406932D01*
X99004Y406961D01*
X99186Y406986D01*
X99369Y407006D01*
X99552Y407022D01*
X99736Y407033D01*
X99920Y407040D01*
X100104Y407042D01*
X100288Y407040D01*
X100472Y407033D01*
X100656Y407022D01*
X100839Y407006D01*
X101022Y406986D01*
X101204Y406961D01*
X101386Y406932D01*
X101567Y406898D01*
X101747Y406860D01*
X101926Y406817D01*
X102104Y406770D01*
X102281Y406719D01*
X102457Y406663D01*
X102631Y406604D01*
X102803Y406539D01*
X102974Y406471D01*
X103143Y406399D01*
X103311Y406322D01*
X103476Y406241D01*
X103639Y406156D01*
X103801Y406068D01*
X103960Y405975D01*
X104116Y405878D01*
X104271Y405778D01*
X104423Y405674D01*
X104572Y405566D01*
X104718Y405455D01*
X104862Y405340D01*
X105003Y405221D01*
X105141Y405099D01*
X105276Y404974D01*
X105407Y404845D01*
X105536Y404714D01*
X105661Y404579D01*
X105783Y404441D01*
X105902Y404300D01*
X106017Y404156D01*
X106128Y404010D01*
X106236Y403861D01*
X106340Y403709D01*
X106440Y403554D01*
X106537Y403398D01*
X106630Y403239D01*
X106718Y403077D01*
X106803Y402914D01*
X106884Y402749D01*
X106961Y402581D01*
X107033Y402412D01*
X107101Y402241D01*
X107166Y402069D01*
X107225Y401895D01*
X107281Y401719D01*
X107332Y401542D01*
X107379Y401364D01*
X107422Y401185D01*
X107460Y401005D01*
X107494Y400824D01*
X107523Y400642D01*
X107548Y400460D01*
X107568Y400277D01*
X107584Y400094D01*
X107595Y399910D01*
X107602Y399726D01*
X107604Y399542D01*
X107602Y399358D01*
X107595Y399174D01*
X107584Y398990D01*
X107568Y398807D01*
X107548Y398624D01*
X107523Y398442D01*
X107494Y398260D01*
X107460Y398079D01*
X107422Y397899D01*
X107379Y397720D01*
X107332Y397542D01*
X107281Y397365D01*
X107225Y397189D01*
X107166Y397015D01*
X107101Y396843D01*
X107033Y396672D01*
X106961Y396503D01*
X106884Y396335D01*
X106803Y396170D01*
X106718Y396007D01*
X106630Y395845D01*
X106537Y395686D01*
X106440Y395530D01*
X106340Y395375D01*
X106236Y395223D01*
X106128Y395074D01*
X106017Y394928D01*
X105902Y394784D01*
X105783Y394643D01*
X105661Y394505D01*
X105536Y394370D01*
X105407Y394239D01*
X105276Y394110D01*
X105141Y393985D01*
X105003Y393863D01*
X104862Y393744D01*
X104718Y393629D01*
X104572Y393518D01*
X104423Y393410D01*
X104271Y393306D01*
X104116Y393206D01*
X103960Y393109D01*
X103801Y393016D01*
X103639Y392928D01*
X103476Y392843D01*
X103311Y392762D01*
X103143Y392685D01*
X102974Y392613D01*
X102803Y392545D01*
X102631Y392480D01*
X102457Y392421D01*
X102281Y392365D01*
X102104Y392314D01*
X101926Y392267D01*
X101747Y392224D01*
X101567Y392186D01*
X101386Y392152D01*
X101204Y392123D01*
X101022Y392098D01*
X100839Y392078D01*
X100656Y392062D01*
X100472Y392051D01*
X100288Y392044D01*
X100104Y392042D01*
X99920Y392044D01*
X99736Y392051D01*
X99552Y392062D01*
X99369Y392078D01*
X99186Y392098D01*
X99004Y392123D01*
X98822Y392152D01*
X98641Y392186D01*
X98461Y392224D01*
X98282Y392267D01*
X98104Y392314D01*
X97927Y392365D01*
X97751Y392421D01*
X97577Y392480D01*
X97405Y392545D01*
X97234Y392613D01*
X97065Y392685D01*
X96897Y392762D01*
X96732Y392843D01*
X96569Y392928D01*
X96407Y393016D01*
X96248Y393109D01*
X96092Y393206D01*
X95937Y393306D01*
X95785Y393410D01*
X95636Y393518D01*
X95490Y393629D01*
X95346Y393744D01*
X95205Y393863D01*
X95067Y393985D01*
X94932Y394110D01*
X94801Y394239D01*
X94672Y394370D01*
X94547Y394505D01*
X94425Y394643D01*
X94306Y394784D01*
X94191Y394928D01*
X94080Y395074D01*
X93972Y395223D01*
X93868Y395375D01*
X93768Y395530D01*
X93671Y395686D01*
X93578Y395845D01*
X93490Y396007D01*
X93405Y396170D01*
X93324Y396335D01*
X93247Y396503D01*
X93175Y396672D01*
X93107Y396843D01*
X93042Y397015D01*
X92983Y397189D01*
X92927Y397365D01*
X92876Y397542D01*
X92829Y397720D01*
X92786Y397899D01*
X92748Y398079D01*
X92714Y398260D01*
X92685Y398442D01*
X92660Y398624D01*
X92640Y398807D01*
X92624Y398990D01*
X92613Y399174D01*
X92606Y399358D01*
X92604Y399542D01*
X32604Y399542D02*
X32606Y399726D01*
X32613Y399910D01*
X32624Y400094D01*
X32640Y400277D01*
X32660Y400460D01*
X32685Y400642D01*
X32714Y400824D01*
X32748Y401005D01*
X32786Y401185D01*
X32829Y401364D01*
X32876Y401542D01*
X32927Y401719D01*
X32983Y401895D01*
X33042Y402069D01*
X33107Y402241D01*
X33175Y402412D01*
X33247Y402581D01*
X33324Y402749D01*
X33405Y402914D01*
X33490Y403077D01*
X33578Y403239D01*
X33671Y403398D01*
X33768Y403554D01*
X33868Y403709D01*
X33972Y403861D01*
X34080Y404010D01*
X34191Y404156D01*
X34306Y404300D01*
X34425Y404441D01*
X34547Y404579D01*
X34672Y404714D01*
X34801Y404845D01*
X34932Y404974D01*
X35067Y405099D01*
X35205Y405221D01*
X35346Y405340D01*
X35490Y405455D01*
X35636Y405566D01*
X35785Y405674D01*
X35937Y405778D01*
X36092Y405878D01*
X36248Y405975D01*
X36407Y406068D01*
X36569Y406156D01*
X36732Y406241D01*
X36897Y406322D01*
X37065Y406399D01*
X37234Y406471D01*
X37405Y406539D01*
X37577Y406604D01*
X37751Y406663D01*
X37927Y406719D01*
X38104Y406770D01*
X38282Y406817D01*
X38461Y406860D01*
X38641Y406898D01*
X38822Y406932D01*
X39004Y406961D01*
X39186Y406986D01*
X39369Y407006D01*
X39552Y407022D01*
X39736Y407033D01*
X39920Y407040D01*
X40104Y407042D01*
X40288Y407040D01*
X40472Y407033D01*
X40656Y407022D01*
X40839Y407006D01*
X41022Y406986D01*
X41204Y406961D01*
X41386Y406932D01*
X41567Y406898D01*
X41747Y406860D01*
X41926Y406817D01*
X42104Y406770D01*
X42281Y406719D01*
X42457Y406663D01*
X42631Y406604D01*
X42803Y406539D01*
X42974Y406471D01*
X43143Y406399D01*
X43311Y406322D01*
X43476Y406241D01*
X43639Y406156D01*
X43801Y406068D01*
X43960Y405975D01*
X44116Y405878D01*
X44271Y405778D01*
X44423Y405674D01*
X44572Y405566D01*
X44718Y405455D01*
X44862Y405340D01*
X45003Y405221D01*
X45141Y405099D01*
X45276Y404974D01*
X45407Y404845D01*
X45536Y404714D01*
X45661Y404579D01*
X45783Y404441D01*
X45902Y404300D01*
X46017Y404156D01*
X46128Y404010D01*
X46236Y403861D01*
X46340Y403709D01*
X46440Y403554D01*
X46537Y403398D01*
X46630Y403239D01*
X46718Y403077D01*
X46803Y402914D01*
X46884Y402749D01*
X46961Y402581D01*
X47033Y402412D01*
X47101Y402241D01*
X47166Y402069D01*
X47225Y401895D01*
X47281Y401719D01*
X47332Y401542D01*
X47379Y401364D01*
X47422Y401185D01*
X47460Y401005D01*
X47494Y400824D01*
X47523Y400642D01*
X47548Y400460D01*
X47568Y400277D01*
X47584Y400094D01*
X47595Y399910D01*
X47602Y399726D01*
X47604Y399542D01*
X47602Y399358D01*
X47595Y399174D01*
X47584Y398990D01*
X47568Y398807D01*
X47548Y398624D01*
X47523Y398442D01*
X47494Y398260D01*
X47460Y398079D01*
X47422Y397899D01*
X47379Y397720D01*
X47332Y397542D01*
X47281Y397365D01*
X47225Y397189D01*
X47166Y397015D01*
X47101Y396843D01*
X47033Y396672D01*
X46961Y396503D01*
X46884Y396335D01*
X46803Y396170D01*
X46718Y396007D01*
X46630Y395845D01*
X46537Y395686D01*
X46440Y395530D01*
X46340Y395375D01*
X46236Y395223D01*
X46128Y395074D01*
X46017Y394928D01*
X45902Y394784D01*
X45783Y394643D01*
X45661Y394505D01*
X45536Y394370D01*
X45407Y394239D01*
X45276Y394110D01*
X45141Y393985D01*
X45003Y393863D01*
X44862Y393744D01*
X44718Y393629D01*
X44572Y393518D01*
X44423Y393410D01*
X44271Y393306D01*
X44116Y393206D01*
X43960Y393109D01*
X43801Y393016D01*
X43639Y392928D01*
X43476Y392843D01*
X43311Y392762D01*
X43143Y392685D01*
X42974Y392613D01*
X42803Y392545D01*
X42631Y392480D01*
X42457Y392421D01*
X42281Y392365D01*
X42104Y392314D01*
X41926Y392267D01*
X41747Y392224D01*
X41567Y392186D01*
X41386Y392152D01*
X41204Y392123D01*
X41022Y392098D01*
X40839Y392078D01*
X40656Y392062D01*
X40472Y392051D01*
X40288Y392044D01*
X40104Y392042D01*
X39920Y392044D01*
X39736Y392051D01*
X39552Y392062D01*
X39369Y392078D01*
X39186Y392098D01*
X39004Y392123D01*
X38822Y392152D01*
X38641Y392186D01*
X38461Y392224D01*
X38282Y392267D01*
X38104Y392314D01*
X37927Y392365D01*
X37751Y392421D01*
X37577Y392480D01*
X37405Y392545D01*
X37234Y392613D01*
X37065Y392685D01*
X36897Y392762D01*
X36732Y392843D01*
X36569Y392928D01*
X36407Y393016D01*
X36248Y393109D01*
X36092Y393206D01*
X35937Y393306D01*
X35785Y393410D01*
X35636Y393518D01*
X35490Y393629D01*
X35346Y393744D01*
X35205Y393863D01*
X35067Y393985D01*
X34932Y394110D01*
X34801Y394239D01*
X34672Y394370D01*
X34547Y394505D01*
X34425Y394643D01*
X34306Y394784D01*
X34191Y394928D01*
X34080Y395074D01*
X33972Y395223D01*
X33868Y395375D01*
X33768Y395530D01*
X33671Y395686D01*
X33578Y395845D01*
X33490Y396007D01*
X33405Y396170D01*
X33324Y396335D01*
X33247Y396503D01*
X33175Y396672D01*
X33107Y396843D01*
X33042Y397015D01*
X32983Y397189D01*
X32927Y397365D01*
X32876Y397542D01*
X32829Y397720D01*
X32786Y397899D01*
X32748Y398079D01*
X32714Y398260D01*
X32685Y398442D01*
X32660Y398624D01*
X32640Y398807D01*
X32624Y398990D01*
X32613Y399174D01*
X32606Y399358D01*
X32604Y399542D01*
X315738Y196336D02*
X315740Y196477D01*
X315746Y196618D01*
X315756Y196758D01*
X315770Y196898D01*
X315788Y197038D01*
X315809Y197177D01*
X315835Y197316D01*
X315864Y197454D01*
X315898Y197590D01*
X315935Y197726D01*
X315976Y197861D01*
X316021Y197995D01*
X316070Y198127D01*
X316122Y198258D01*
X316178Y198387D01*
X316238Y198514D01*
X316301Y198640D01*
X316367Y198764D01*
X316438Y198887D01*
X316511Y199007D01*
X316588Y199125D01*
X316668Y199241D01*
X316752Y199354D01*
X316838Y199465D01*
X316928Y199574D01*
X317021Y199680D01*
X317116Y199783D01*
X317215Y199884D01*
X317316Y199982D01*
X317420Y200077D01*
X317527Y200169D01*
X317636Y200258D01*
X317748Y200343D01*
X317862Y200426D01*
X317978Y200506D01*
X318097Y200582D01*
X318218Y200654D01*
X318340Y200724D01*
X318465Y200789D01*
X318591Y200852D01*
X318719Y200910D01*
X318849Y200965D01*
X318980Y201017D01*
X319113Y201064D01*
X319247Y201108D01*
X319382Y201149D01*
X319518Y201185D01*
X319655Y201217D01*
X319793Y201246D01*
X319931Y201271D01*
X320071Y201291D01*
X320211Y201308D01*
X320351Y201321D01*
X320492Y201330D01*
X320632Y201335D01*
X320773Y201336D01*
X320914Y201333D01*
X321055Y201326D01*
X321195Y201315D01*
X321335Y201300D01*
X321475Y201281D01*
X321614Y201259D01*
X321752Y201232D01*
X321890Y201202D01*
X322026Y201167D01*
X322162Y201129D01*
X322296Y201087D01*
X322430Y201041D01*
X322562Y200992D01*
X322692Y200938D01*
X322821Y200881D01*
X322948Y200821D01*
X323074Y200757D01*
X323197Y200689D01*
X323319Y200618D01*
X323439Y200544D01*
X323556Y200466D01*
X323671Y200385D01*
X323784Y200301D01*
X323895Y200214D01*
X324003Y200123D01*
X324108Y200030D01*
X324211Y199933D01*
X324311Y199834D01*
X324408Y199732D01*
X324502Y199627D01*
X324593Y199520D01*
X324681Y199410D01*
X324766Y199298D01*
X324848Y199183D01*
X324927Y199066D01*
X325002Y198947D01*
X325074Y198826D01*
X325142Y198703D01*
X325207Y198578D01*
X325269Y198451D01*
X325326Y198322D01*
X325381Y198192D01*
X325431Y198061D01*
X325478Y197928D01*
X325521Y197794D01*
X325560Y197658D01*
X325595Y197522D01*
X325627Y197385D01*
X325654Y197247D01*
X325678Y197108D01*
X325698Y196968D01*
X325714Y196828D01*
X325726Y196688D01*
X325734Y196547D01*
X325738Y196406D01*
X325738Y196266D01*
X325734Y196125D01*
X325726Y195984D01*
X325714Y195844D01*
X325698Y195704D01*
X325678Y195564D01*
X325654Y195425D01*
X325627Y195287D01*
X325595Y195150D01*
X325560Y195014D01*
X325521Y194878D01*
X325478Y194744D01*
X325431Y194611D01*
X325381Y194480D01*
X325326Y194350D01*
X325269Y194221D01*
X325207Y194094D01*
X325142Y193969D01*
X325074Y193846D01*
X325002Y193725D01*
X324927Y193606D01*
X324848Y193489D01*
X324766Y193374D01*
X324681Y193262D01*
X324593Y193152D01*
X324502Y193045D01*
X324408Y192940D01*
X324311Y192838D01*
X324211Y192739D01*
X324108Y192642D01*
X324003Y192549D01*
X323895Y192458D01*
X323784Y192371D01*
X323671Y192287D01*
X323556Y192206D01*
X323439Y192128D01*
X323319Y192054D01*
X323197Y191983D01*
X323074Y191915D01*
X322948Y191851D01*
X322821Y191791D01*
X322692Y191734D01*
X322562Y191680D01*
X322430Y191631D01*
X322296Y191585D01*
X322162Y191543D01*
X322026Y191505D01*
X321890Y191470D01*
X321752Y191440D01*
X321614Y191413D01*
X321475Y191391D01*
X321335Y191372D01*
X321195Y191357D01*
X321055Y191346D01*
X320914Y191339D01*
X320773Y191336D01*
X320632Y191337D01*
X320492Y191342D01*
X320351Y191351D01*
X320211Y191364D01*
X320071Y191381D01*
X319931Y191401D01*
X319793Y191426D01*
X319655Y191455D01*
X319518Y191487D01*
X319382Y191523D01*
X319247Y191564D01*
X319113Y191608D01*
X318980Y191655D01*
X318849Y191707D01*
X318719Y191762D01*
X318591Y191820D01*
X318465Y191883D01*
X318340Y191948D01*
X318218Y192018D01*
X318097Y192090D01*
X317978Y192166D01*
X317862Y192246D01*
X317748Y192329D01*
X317636Y192414D01*
X317527Y192503D01*
X317420Y192595D01*
X317316Y192690D01*
X317215Y192788D01*
X317116Y192889D01*
X317021Y192992D01*
X316928Y193098D01*
X316838Y193207D01*
X316752Y193318D01*
X316668Y193431D01*
X316588Y193547D01*
X316511Y193665D01*
X316438Y193785D01*
X316367Y193908D01*
X316301Y194032D01*
X316238Y194158D01*
X316178Y194285D01*
X316122Y194414D01*
X316070Y194545D01*
X316021Y194677D01*
X315976Y194811D01*
X315935Y194946D01*
X315898Y195082D01*
X315864Y195218D01*
X315835Y195356D01*
X315809Y195495D01*
X315788Y195634D01*
X315770Y195774D01*
X315756Y195914D01*
X315746Y196054D01*
X315740Y196195D01*
X315738Y196336D01*
X315738Y116536D02*
X315740Y116677D01*
X315746Y116818D01*
X315756Y116958D01*
X315770Y117098D01*
X315788Y117238D01*
X315809Y117377D01*
X315835Y117516D01*
X315864Y117654D01*
X315898Y117790D01*
X315935Y117926D01*
X315976Y118061D01*
X316021Y118195D01*
X316070Y118327D01*
X316122Y118458D01*
X316178Y118587D01*
X316238Y118714D01*
X316301Y118840D01*
X316367Y118964D01*
X316438Y119087D01*
X316511Y119207D01*
X316588Y119325D01*
X316668Y119441D01*
X316752Y119554D01*
X316838Y119665D01*
X316928Y119774D01*
X317021Y119880D01*
X317116Y119983D01*
X317215Y120084D01*
X317316Y120182D01*
X317420Y120277D01*
X317527Y120369D01*
X317636Y120458D01*
X317748Y120543D01*
X317862Y120626D01*
X317978Y120706D01*
X318097Y120782D01*
X318218Y120854D01*
X318340Y120924D01*
X318465Y120989D01*
X318591Y121052D01*
X318719Y121110D01*
X318849Y121165D01*
X318980Y121217D01*
X319113Y121264D01*
X319247Y121308D01*
X319382Y121349D01*
X319518Y121385D01*
X319655Y121417D01*
X319793Y121446D01*
X319931Y121471D01*
X320071Y121491D01*
X320211Y121508D01*
X320351Y121521D01*
X320492Y121530D01*
X320632Y121535D01*
X320773Y121536D01*
X320914Y121533D01*
X321055Y121526D01*
X321195Y121515D01*
X321335Y121500D01*
X321475Y121481D01*
X321614Y121459D01*
X321752Y121432D01*
X321890Y121402D01*
X322026Y121367D01*
X322162Y121329D01*
X322296Y121287D01*
X322430Y121241D01*
X322562Y121192D01*
X322692Y121138D01*
X322821Y121081D01*
X322948Y121021D01*
X323074Y120957D01*
X323197Y120889D01*
X323319Y120818D01*
X323439Y120744D01*
X323556Y120666D01*
X323671Y120585D01*
X323784Y120501D01*
X323895Y120414D01*
X324003Y120323D01*
X324108Y120230D01*
X324211Y120133D01*
X324311Y120034D01*
X324408Y119932D01*
X324502Y119827D01*
X324593Y119720D01*
X324681Y119610D01*
X324766Y119498D01*
X324848Y119383D01*
X324927Y119266D01*
X325002Y119147D01*
X325074Y119026D01*
X325142Y118903D01*
X325207Y118778D01*
X325269Y118651D01*
X325326Y118522D01*
X325381Y118392D01*
X325431Y118261D01*
X325478Y118128D01*
X325521Y117994D01*
X325560Y117858D01*
X325595Y117722D01*
X325627Y117585D01*
X325654Y117447D01*
X325678Y117308D01*
X325698Y117168D01*
X325714Y117028D01*
X325726Y116888D01*
X325734Y116747D01*
X325738Y116606D01*
X325738Y116466D01*
X325734Y116325D01*
X325726Y116184D01*
X325714Y116044D01*
X325698Y115904D01*
X325678Y115764D01*
X325654Y115625D01*
X325627Y115487D01*
X325595Y115350D01*
X325560Y115214D01*
X325521Y115078D01*
X325478Y114944D01*
X325431Y114811D01*
X325381Y114680D01*
X325326Y114550D01*
X325269Y114421D01*
X325207Y114294D01*
X325142Y114169D01*
X325074Y114046D01*
X325002Y113925D01*
X324927Y113806D01*
X324848Y113689D01*
X324766Y113574D01*
X324681Y113462D01*
X324593Y113352D01*
X324502Y113245D01*
X324408Y113140D01*
X324311Y113038D01*
X324211Y112939D01*
X324108Y112842D01*
X324003Y112749D01*
X323895Y112658D01*
X323784Y112571D01*
X323671Y112487D01*
X323556Y112406D01*
X323439Y112328D01*
X323319Y112254D01*
X323197Y112183D01*
X323074Y112115D01*
X322948Y112051D01*
X322821Y111991D01*
X322692Y111934D01*
X322562Y111880D01*
X322430Y111831D01*
X322296Y111785D01*
X322162Y111743D01*
X322026Y111705D01*
X321890Y111670D01*
X321752Y111640D01*
X321614Y111613D01*
X321475Y111591D01*
X321335Y111572D01*
X321195Y111557D01*
X321055Y111546D01*
X320914Y111539D01*
X320773Y111536D01*
X320632Y111537D01*
X320492Y111542D01*
X320351Y111551D01*
X320211Y111564D01*
X320071Y111581D01*
X319931Y111601D01*
X319793Y111626D01*
X319655Y111655D01*
X319518Y111687D01*
X319382Y111723D01*
X319247Y111764D01*
X319113Y111808D01*
X318980Y111855D01*
X318849Y111907D01*
X318719Y111962D01*
X318591Y112020D01*
X318465Y112083D01*
X318340Y112148D01*
X318218Y112218D01*
X318097Y112290D01*
X317978Y112366D01*
X317862Y112446D01*
X317748Y112529D01*
X317636Y112614D01*
X317527Y112703D01*
X317420Y112795D01*
X317316Y112890D01*
X317215Y112988D01*
X317116Y113089D01*
X317021Y113192D01*
X316928Y113298D01*
X316838Y113407D01*
X316752Y113518D01*
X316668Y113631D01*
X316588Y113747D01*
X316511Y113865D01*
X316438Y113985D01*
X316367Y114108D01*
X316301Y114232D01*
X316238Y114358D01*
X316178Y114485D01*
X316122Y114614D01*
X316070Y114745D01*
X316021Y114877D01*
X315976Y115011D01*
X315935Y115146D01*
X315898Y115282D01*
X315864Y115418D01*
X315835Y115556D01*
X315809Y115695D01*
X315788Y115834D01*
X315770Y115974D01*
X315756Y116114D01*
X315746Y116254D01*
X315740Y116395D01*
X315738Y116536D01*
M02*
