G04 EAGLE Gerber RS-274X export*
G75*
%MOMM*%
%FSLAX34Y34*%
%LPD*%
%AMOC8*
5,1,8,0,0,1.08239X$1,22.5*%
G01*
%ADD10C,0.040638*%
%ADD11C,0.152400*%
%ADD12R,1.500000X2.800000*%
%ADD13R,0.660400X2.032000*%
%ADD14R,0.600000X2.200000*%
%ADD15R,1.200000X0.300000*%
%ADD16R,1.570000X1.890000*%
%ADD17R,1.200000X0.400000*%
%ADD18C,0.222250*%
%ADD19R,1.350000X0.600000*%
%ADD20R,2.000000X1.200000*%
%ADD21C,0.158750*%


D10*
X34860Y120303D02*
X34860Y123961D01*
X47916Y123961D01*
X47916Y120303D01*
X34860Y120303D01*
X34860Y120689D02*
X47916Y120689D01*
X47916Y121075D02*
X34860Y121075D01*
X34860Y121461D02*
X47916Y121461D01*
X47916Y121847D02*
X34860Y121847D01*
X34860Y122233D02*
X47916Y122233D01*
X47916Y122619D02*
X34860Y122619D01*
X34860Y123005D02*
X47916Y123005D01*
X47916Y123391D02*
X34860Y123391D01*
X34860Y123777D02*
X47916Y123777D01*
X34860Y117357D02*
X34860Y113699D01*
X34860Y117357D02*
X47916Y117357D01*
X47916Y113699D01*
X34860Y113699D01*
X34860Y114085D02*
X47916Y114085D01*
X47916Y114471D02*
X34860Y114471D01*
X34860Y114857D02*
X47916Y114857D01*
X47916Y115243D02*
X34860Y115243D01*
X34860Y115629D02*
X47916Y115629D01*
X47916Y116015D02*
X34860Y116015D01*
X34860Y116401D02*
X47916Y116401D01*
X47916Y116787D02*
X34860Y116787D01*
X34860Y117173D02*
X47916Y117173D01*
X34860Y110753D02*
X34860Y107095D01*
X34860Y110753D02*
X47916Y110753D01*
X47916Y107095D01*
X34860Y107095D01*
X34860Y107481D02*
X47916Y107481D01*
X47916Y107867D02*
X34860Y107867D01*
X34860Y108253D02*
X47916Y108253D01*
X47916Y108639D02*
X34860Y108639D01*
X34860Y109025D02*
X47916Y109025D01*
X47916Y109411D02*
X34860Y109411D01*
X34860Y109797D02*
X47916Y109797D01*
X47916Y110183D02*
X34860Y110183D01*
X34860Y110569D02*
X47916Y110569D01*
X34860Y104149D02*
X34860Y100491D01*
X34860Y104149D02*
X47916Y104149D01*
X47916Y100491D01*
X34860Y100491D01*
X34860Y100877D02*
X47916Y100877D01*
X47916Y101263D02*
X34860Y101263D01*
X34860Y101649D02*
X47916Y101649D01*
X47916Y102035D02*
X34860Y102035D01*
X34860Y102421D02*
X47916Y102421D01*
X47916Y102807D02*
X34860Y102807D01*
X34860Y103193D02*
X47916Y103193D01*
X47916Y103579D02*
X34860Y103579D01*
X34860Y103965D02*
X47916Y103965D01*
X34860Y97545D02*
X34860Y93887D01*
X34860Y97545D02*
X47916Y97545D01*
X47916Y93887D01*
X34860Y93887D01*
X34860Y94273D02*
X47916Y94273D01*
X47916Y94659D02*
X34860Y94659D01*
X34860Y95045D02*
X47916Y95045D01*
X47916Y95431D02*
X34860Y95431D01*
X34860Y95817D02*
X47916Y95817D01*
X47916Y96203D02*
X34860Y96203D01*
X34860Y96589D02*
X47916Y96589D01*
X47916Y96975D02*
X34860Y96975D01*
X34860Y97361D02*
X47916Y97361D01*
D11*
X7606Y112226D02*
X7606Y125942D01*
X21322Y125942D01*
X21322Y112226D01*
X7606Y112226D01*
X7606Y113674D02*
X21322Y113674D01*
X21322Y115122D02*
X7606Y115122D01*
X7606Y116570D02*
X21322Y116570D01*
X21322Y118018D02*
X7606Y118018D01*
X7606Y119466D02*
X21322Y119466D01*
X21322Y120914D02*
X7606Y120914D01*
X7606Y122362D02*
X21322Y122362D01*
X21322Y123810D02*
X7606Y123810D01*
X7606Y125258D02*
X21322Y125258D01*
X7606Y105622D02*
X7606Y91906D01*
X7606Y105622D02*
X21322Y105622D01*
X21322Y91906D01*
X7606Y91906D01*
X7606Y93354D02*
X21322Y93354D01*
X21322Y94802D02*
X7606Y94802D01*
X7606Y96250D02*
X21322Y96250D01*
X21322Y97698D02*
X7606Y97698D01*
X7606Y99146D02*
X21322Y99146D01*
X21322Y100594D02*
X7606Y100594D01*
X7606Y102042D02*
X21322Y102042D01*
X21322Y103490D02*
X7606Y103490D01*
X7606Y104938D02*
X21322Y104938D01*
D12*
X40104Y362542D03*
X110104Y363542D03*
X60104Y435542D03*
D13*
X266622Y153088D03*
X266622Y91620D03*
X253922Y153088D03*
X241222Y153088D03*
X253922Y91620D03*
X241222Y91620D03*
X228522Y153088D03*
X228522Y91620D03*
X215822Y153088D03*
X215822Y91620D03*
X203122Y153088D03*
X190422Y153088D03*
X203122Y91620D03*
X190422Y91620D03*
X177722Y153088D03*
X177722Y91620D03*
D14*
X226154Y269582D03*
X226154Y217582D03*
X238854Y269582D03*
X213454Y269582D03*
X200754Y269582D03*
X238854Y217582D03*
X213454Y217582D03*
X200754Y217582D03*
X175354Y269582D03*
X175354Y217582D03*
X188054Y269582D03*
X162654Y269582D03*
X188054Y217582D03*
X162654Y217582D03*
D15*
X151238Y308332D03*
X151238Y314832D03*
X151238Y321332D03*
X151238Y327832D03*
X193488Y327832D03*
X193488Y321332D03*
X193488Y314832D03*
X193488Y308332D03*
D16*
X172358Y318092D03*
D17*
X92999Y145832D03*
X92999Y136332D03*
X92999Y126832D03*
X119001Y126832D03*
X119001Y145832D03*
D18*
X80684Y133934D02*
X80684Y127266D01*
X74016Y127266D01*
X74016Y133934D01*
X80684Y133934D01*
X80684Y129378D02*
X74016Y129378D01*
X74016Y131490D02*
X80684Y131490D01*
X80684Y133602D02*
X74016Y133602D01*
X80684Y142506D02*
X80684Y149174D01*
X80684Y142506D02*
X74016Y142506D01*
X74016Y149174D01*
X80684Y149174D01*
X80684Y144618D02*
X74016Y144618D01*
X74016Y146730D02*
X80684Y146730D01*
X80684Y148842D02*
X74016Y148842D01*
X236356Y332504D02*
X243024Y332504D01*
X236356Y332504D02*
X236356Y339172D01*
X243024Y339172D01*
X243024Y332504D01*
X243024Y334616D02*
X236356Y334616D01*
X236356Y336728D02*
X243024Y336728D01*
X243024Y338840D02*
X236356Y338840D01*
X251596Y332504D02*
X258264Y332504D01*
X251596Y332504D02*
X251596Y339172D01*
X258264Y339172D01*
X258264Y332504D01*
X258264Y334616D02*
X251596Y334616D01*
X251596Y336728D02*
X258264Y336728D01*
X258264Y338840D02*
X251596Y338840D01*
X137650Y134058D02*
X137650Y127390D01*
X130982Y127390D01*
X130982Y134058D01*
X137650Y134058D01*
X137650Y129502D02*
X130982Y129502D01*
X130982Y131614D02*
X137650Y131614D01*
X137650Y133726D02*
X130982Y133726D01*
X137650Y142630D02*
X137650Y149298D01*
X137650Y142630D02*
X130982Y142630D01*
X130982Y149298D01*
X137650Y149298D01*
X137650Y144742D02*
X130982Y144742D01*
X130982Y146854D02*
X137650Y146854D01*
X137650Y148966D02*
X130982Y148966D01*
X197240Y174262D02*
X203908Y174262D01*
X197240Y174262D02*
X197240Y180930D01*
X203908Y180930D01*
X203908Y174262D01*
X203908Y176374D02*
X197240Y176374D01*
X197240Y178486D02*
X203908Y178486D01*
X203908Y180598D02*
X197240Y180598D01*
X212480Y174262D02*
X219148Y174262D01*
X212480Y174262D02*
X212480Y180930D01*
X219148Y180930D01*
X219148Y174262D01*
X219148Y176374D02*
X212480Y176374D01*
X212480Y178486D02*
X219148Y178486D01*
X219148Y180598D02*
X212480Y180598D01*
X267516Y272778D02*
X274184Y272778D01*
X274184Y266110D01*
X267516Y266110D01*
X267516Y272778D01*
X267516Y268222D02*
X274184Y268222D01*
X274184Y270334D02*
X267516Y270334D01*
X267516Y272446D02*
X274184Y272446D01*
X258944Y272778D02*
X252276Y272778D01*
X258944Y272778D02*
X258944Y266110D01*
X252276Y266110D01*
X252276Y272778D01*
X252276Y268222D02*
X258944Y268222D01*
X258944Y270334D02*
X252276Y270334D01*
X252276Y272446D02*
X258944Y272446D01*
X182998Y351010D02*
X176330Y351010D01*
X182998Y351010D02*
X182998Y344342D01*
X176330Y344342D01*
X176330Y351010D01*
X176330Y346454D02*
X182998Y346454D01*
X182998Y348566D02*
X176330Y348566D01*
X176330Y350678D02*
X182998Y350678D01*
X167758Y351010D02*
X161090Y351010D01*
X167758Y351010D02*
X167758Y344342D01*
X161090Y344342D01*
X161090Y351010D01*
X161090Y346454D02*
X167758Y346454D01*
X167758Y348566D02*
X161090Y348566D01*
X161090Y350678D02*
X167758Y350678D01*
X113990Y215094D02*
X113990Y208426D01*
X107322Y208426D01*
X107322Y215094D01*
X113990Y215094D01*
X113990Y210538D02*
X107322Y210538D01*
X107322Y212650D02*
X113990Y212650D01*
X113990Y214762D02*
X107322Y214762D01*
X113990Y223666D02*
X113990Y230334D01*
X113990Y223666D02*
X107322Y223666D01*
X107322Y230334D01*
X113990Y230334D01*
X113990Y225778D02*
X107322Y225778D01*
X107322Y227890D02*
X113990Y227890D01*
X113990Y230002D02*
X107322Y230002D01*
X98750Y215094D02*
X98750Y208426D01*
X92082Y208426D01*
X92082Y215094D01*
X98750Y215094D01*
X98750Y210538D02*
X92082Y210538D01*
X92082Y212650D02*
X98750Y212650D01*
X98750Y214762D02*
X92082Y214762D01*
X98750Y223666D02*
X98750Y230334D01*
X98750Y223666D02*
X92082Y223666D01*
X92082Y230334D01*
X98750Y230334D01*
X98750Y225778D02*
X92082Y225778D01*
X92082Y227890D02*
X98750Y227890D01*
X98750Y230002D02*
X92082Y230002D01*
D19*
X303600Y191000D03*
X303600Y201000D03*
X303600Y211000D03*
X303600Y221000D03*
D20*
X340350Y234000D03*
X340350Y178000D03*
D19*
X52000Y221000D03*
X52000Y211000D03*
X52000Y201000D03*
X52000Y191000D03*
D20*
X15250Y178000D03*
X15250Y234000D03*
D18*
X225190Y65080D02*
X231858Y65080D01*
X225190Y65080D02*
X225190Y71748D01*
X231858Y71748D01*
X231858Y65080D01*
X231858Y67192D02*
X225190Y67192D01*
X225190Y69304D02*
X231858Y69304D01*
X231858Y71416D02*
X225190Y71416D01*
X240430Y65080D02*
X247098Y65080D01*
X240430Y65080D02*
X240430Y71748D01*
X247098Y71748D01*
X247098Y65080D01*
X247098Y67192D02*
X240430Y67192D01*
X240430Y69304D02*
X247098Y69304D01*
X247098Y71416D02*
X240430Y71416D01*
X282958Y324454D02*
X289626Y324454D01*
X289626Y317786D01*
X282958Y317786D01*
X282958Y324454D01*
X282958Y319898D02*
X289626Y319898D01*
X289626Y322010D02*
X282958Y322010D01*
X282958Y324122D02*
X289626Y324122D01*
X274386Y324454D02*
X267718Y324454D01*
X274386Y324454D02*
X274386Y317786D01*
X267718Y317786D01*
X267718Y324454D01*
X267718Y319898D02*
X274386Y319898D01*
X274386Y322010D02*
X267718Y322010D01*
X267718Y324122D02*
X274386Y324122D01*
X243166Y317780D02*
X236498Y317780D01*
X236498Y324448D01*
X243166Y324448D01*
X243166Y317780D01*
X243166Y319892D02*
X236498Y319892D01*
X236498Y322004D02*
X243166Y322004D01*
X243166Y324116D02*
X236498Y324116D01*
X251738Y317780D02*
X258406Y317780D01*
X251738Y317780D02*
X251738Y324448D01*
X258406Y324448D01*
X258406Y317780D01*
X258406Y319892D02*
X251738Y319892D01*
X251738Y322004D02*
X258406Y322004D01*
X258406Y324116D02*
X251738Y324116D01*
X267740Y332512D02*
X274408Y332512D01*
X267740Y332512D02*
X267740Y339180D01*
X274408Y339180D01*
X274408Y332512D01*
X274408Y334624D02*
X267740Y334624D01*
X267740Y336736D02*
X274408Y336736D01*
X274408Y338848D02*
X267740Y338848D01*
X282980Y332512D02*
X289648Y332512D01*
X282980Y332512D02*
X282980Y339180D01*
X289648Y339180D01*
X289648Y332512D01*
X289648Y334624D02*
X282980Y334624D01*
X282980Y336736D02*
X289648Y336736D01*
X289648Y338848D02*
X282980Y338848D01*
X242912Y346990D02*
X236244Y346990D01*
X236244Y353658D01*
X242912Y353658D01*
X242912Y346990D01*
X242912Y349102D02*
X236244Y349102D01*
X236244Y351214D02*
X242912Y351214D01*
X242912Y353326D02*
X236244Y353326D01*
X251484Y346990D02*
X258152Y346990D01*
X251484Y346990D02*
X251484Y353658D01*
X258152Y353658D01*
X258152Y346990D01*
X258152Y349102D02*
X251484Y349102D01*
X251484Y351214D02*
X258152Y351214D01*
X258152Y353326D02*
X251484Y353326D01*
X242912Y361468D02*
X236244Y361468D01*
X236244Y368136D01*
X242912Y368136D01*
X242912Y361468D01*
X242912Y363580D02*
X236244Y363580D01*
X236244Y365692D02*
X242912Y365692D01*
X242912Y367804D02*
X236244Y367804D01*
X251484Y361468D02*
X258152Y361468D01*
X251484Y361468D02*
X251484Y368136D01*
X258152Y368136D01*
X258152Y361468D01*
X258152Y363580D02*
X251484Y363580D01*
X251484Y365692D02*
X258152Y365692D01*
X258152Y367804D02*
X251484Y367804D01*
X267994Y346990D02*
X274662Y346990D01*
X267994Y346990D02*
X267994Y353658D01*
X274662Y353658D01*
X274662Y346990D01*
X274662Y349102D02*
X267994Y349102D01*
X267994Y351214D02*
X274662Y351214D01*
X274662Y353326D02*
X267994Y353326D01*
X283234Y346990D02*
X289902Y346990D01*
X283234Y346990D02*
X283234Y353658D01*
X289902Y353658D01*
X289902Y346990D01*
X289902Y349102D02*
X283234Y349102D01*
X283234Y351214D02*
X289902Y351214D01*
X289902Y353326D02*
X283234Y353326D01*
X274662Y361468D02*
X267994Y361468D01*
X267994Y368136D01*
X274662Y368136D01*
X274662Y361468D01*
X274662Y363580D02*
X267994Y363580D01*
X267994Y365692D02*
X274662Y365692D01*
X274662Y367804D02*
X267994Y367804D01*
X283234Y361468D02*
X289902Y361468D01*
X283234Y361468D02*
X283234Y368136D01*
X289902Y368136D01*
X289902Y361468D01*
X289902Y363580D02*
X283234Y363580D01*
X283234Y365692D02*
X289902Y365692D01*
X289902Y367804D02*
X283234Y367804D01*
X162902Y390170D02*
X156234Y390170D01*
X156234Y396838D01*
X162902Y396838D01*
X162902Y390170D01*
X162902Y392282D02*
X156234Y392282D01*
X156234Y394394D02*
X162902Y394394D01*
X162902Y396506D02*
X156234Y396506D01*
X171474Y390170D02*
X178142Y390170D01*
X171474Y390170D02*
X171474Y396838D01*
X178142Y396838D01*
X178142Y390170D01*
X178142Y392282D02*
X171474Y392282D01*
X171474Y394394D02*
X178142Y394394D01*
X178142Y396506D02*
X171474Y396506D01*
X162648Y404902D02*
X155980Y404902D01*
X155980Y411570D01*
X162648Y411570D01*
X162648Y404902D01*
X162648Y407014D02*
X155980Y407014D01*
X155980Y409126D02*
X162648Y409126D01*
X162648Y411238D02*
X155980Y411238D01*
X171220Y404902D02*
X177888Y404902D01*
X171220Y404902D02*
X171220Y411570D01*
X177888Y411570D01*
X177888Y404902D01*
X177888Y407014D02*
X171220Y407014D01*
X171220Y409126D02*
X177888Y409126D01*
X177888Y411238D02*
X171220Y411238D01*
X101688Y160046D02*
X95020Y160046D01*
X95020Y166714D01*
X101688Y166714D01*
X101688Y160046D01*
X101688Y162158D02*
X95020Y162158D01*
X95020Y164270D02*
X101688Y164270D01*
X101688Y166382D02*
X95020Y166382D01*
X110260Y160046D02*
X116928Y160046D01*
X110260Y160046D02*
X110260Y166714D01*
X116928Y166714D01*
X116928Y160046D01*
X116928Y162158D02*
X110260Y162158D01*
X110260Y164270D02*
X116928Y164270D01*
X116928Y166382D02*
X110260Y166382D01*
D21*
X86892Y166586D02*
X82130Y166586D01*
X86892Y166586D02*
X86892Y160174D01*
X82130Y160174D01*
X82130Y166586D01*
X82130Y161683D02*
X86892Y161683D01*
X86892Y163192D02*
X82130Y163192D01*
X82130Y164701D02*
X86892Y164701D01*
X86892Y166210D02*
X82130Y166210D01*
X72922Y166586D02*
X68160Y166586D01*
X72922Y166586D02*
X72922Y160174D01*
X68160Y160174D01*
X68160Y166586D01*
X68160Y161683D02*
X72922Y161683D01*
X72922Y163192D02*
X68160Y163192D01*
X68160Y164701D02*
X72922Y164701D01*
X72922Y166210D02*
X68160Y166210D01*
D18*
X245840Y183928D02*
X252508Y183928D01*
X252508Y177260D01*
X245840Y177260D01*
X245840Y183928D01*
X245840Y179372D02*
X252508Y179372D01*
X252508Y181484D02*
X245840Y181484D01*
X245840Y183596D02*
X252508Y183596D01*
X237268Y183928D02*
X230600Y183928D01*
X237268Y183928D02*
X237268Y177260D01*
X230600Y177260D01*
X230600Y183928D01*
X230600Y179372D02*
X237268Y179372D01*
X237268Y181484D02*
X230600Y181484D01*
X230600Y183596D02*
X237268Y183596D01*
X148558Y174530D02*
X148558Y167862D01*
X148558Y174530D02*
X155226Y174530D01*
X155226Y167862D01*
X148558Y167862D01*
X148558Y169974D02*
X155226Y169974D01*
X155226Y172086D02*
X148558Y172086D01*
X148558Y174198D02*
X155226Y174198D01*
X148558Y159290D02*
X148558Y152622D01*
X148558Y159290D02*
X155226Y159290D01*
X155226Y152622D01*
X148558Y152622D01*
X148558Y154734D02*
X155226Y154734D01*
X155226Y156846D02*
X148558Y156846D01*
X148558Y158958D02*
X155226Y158958D01*
X176244Y366046D02*
X182912Y366046D01*
X182912Y359378D01*
X176244Y359378D01*
X176244Y366046D01*
X176244Y361490D02*
X182912Y361490D01*
X182912Y363602D02*
X176244Y363602D01*
X176244Y365714D02*
X182912Y365714D01*
X167672Y366046D02*
X161004Y366046D01*
X167672Y366046D02*
X167672Y359378D01*
X161004Y359378D01*
X161004Y366046D01*
X161004Y361490D02*
X167672Y361490D01*
X167672Y363602D02*
X161004Y363602D01*
X161004Y365714D02*
X167672Y365714D01*
M02*
