G04 EAGLE Gerber RS-274X export*
G75*
%MOMM*%
%FSLAX34Y34*%
%LPD*%
%AMOC8*
5,1,8,0,0,1.08239X$1,22.5*%
G01*
%ADD10C,3.101600*%
%ADD11C,0.142238*%
%ADD12C,0.260094*%
%ADD13C,1.309600*%
%ADD14C,1.371600*%
%ADD15R,1.601600X2.901600*%
%ADD16C,1.601600*%
%ADD17R,0.762000X2.133600*%
%ADD18R,0.701600X2.301600*%
%ADD19R,1.301600X0.401600*%
%ADD20R,1.671600X1.991600*%
%ADD21C,1.101600*%
%ADD22R,1.301600X0.501600*%
%ADD23C,0.326897*%
%ADD24R,1.451600X0.701600*%
%ADD25R,2.101600X1.301600*%
%ADD26C,0.257809*%
%ADD27R,1.752600X1.752600*%
%ADD28C,1.752600*%
%ADD29C,2.286000*%
%ADD30C,2.641600*%


D10*
X25400Y25400D03*
X330200Y25400D03*
D11*
X34860Y120303D02*
X34860Y123961D01*
X47916Y123961D01*
X47916Y120303D01*
X34860Y120303D01*
X34860Y121654D02*
X47916Y121654D01*
X47916Y123005D02*
X34860Y123005D01*
X34860Y117357D02*
X34860Y113699D01*
X34860Y117357D02*
X47916Y117357D01*
X47916Y113699D01*
X34860Y113699D01*
X34860Y115050D02*
X47916Y115050D01*
X47916Y116401D02*
X34860Y116401D01*
X34860Y110753D02*
X34860Y107095D01*
X34860Y110753D02*
X47916Y110753D01*
X47916Y107095D01*
X34860Y107095D01*
X34860Y108446D02*
X47916Y108446D01*
X47916Y109797D02*
X34860Y109797D01*
X34860Y104149D02*
X34860Y100491D01*
X34860Y104149D02*
X47916Y104149D01*
X47916Y100491D01*
X34860Y100491D01*
X34860Y101842D02*
X47916Y101842D01*
X47916Y103193D02*
X34860Y103193D01*
X34860Y97545D02*
X34860Y93887D01*
X34860Y97545D02*
X47916Y97545D01*
X47916Y93887D01*
X34860Y93887D01*
X34860Y95238D02*
X47916Y95238D01*
X47916Y96589D02*
X34860Y96589D01*
D12*
X7636Y112256D02*
X7636Y125912D01*
X21292Y125912D01*
X21292Y112256D01*
X7636Y112256D01*
X7636Y114727D02*
X21292Y114727D01*
X21292Y117198D02*
X7636Y117198D01*
X7636Y119669D02*
X21292Y119669D01*
X21292Y122140D02*
X7636Y122140D01*
X7636Y124611D02*
X21292Y124611D01*
X7636Y105592D02*
X7636Y91936D01*
X7636Y105592D02*
X21292Y105592D01*
X21292Y91936D01*
X7636Y91936D01*
X7636Y94407D02*
X21292Y94407D01*
X21292Y96878D02*
X7636Y96878D01*
X7636Y99349D02*
X21292Y99349D01*
X21292Y101820D02*
X7636Y101820D01*
X7636Y104291D02*
X21292Y104291D01*
D13*
X41388Y135086D03*
X41388Y132546D03*
X41388Y133816D03*
X41388Y85302D03*
X41388Y82762D03*
X41388Y84286D03*
D14*
X17004Y143976D03*
X17004Y73872D03*
X11924Y143976D03*
X14210Y143976D03*
X11924Y73872D03*
X14464Y73872D03*
D15*
X40104Y362542D03*
X110104Y363542D03*
X60104Y435542D03*
D16*
X100104Y399542D03*
X40104Y399542D03*
D17*
X266622Y153088D03*
X266622Y91620D03*
X253922Y153088D03*
X241222Y153088D03*
X253922Y91620D03*
X241222Y91620D03*
X228522Y153088D03*
X228522Y91620D03*
X215822Y153088D03*
X215822Y91620D03*
X203122Y153088D03*
X190422Y153088D03*
X203122Y91620D03*
X190422Y91620D03*
X177722Y153088D03*
X177722Y91620D03*
D18*
X226154Y269582D03*
X226154Y217582D03*
X238854Y269582D03*
X213454Y269582D03*
X200754Y269582D03*
X238854Y217582D03*
X213454Y217582D03*
X200754Y217582D03*
X175354Y269582D03*
X175354Y217582D03*
X188054Y269582D03*
X162654Y269582D03*
X188054Y217582D03*
X162654Y217582D03*
D19*
X151238Y308332D03*
X151238Y314832D03*
X151238Y321332D03*
X151238Y327832D03*
X193488Y327832D03*
X193488Y321332D03*
X193488Y314832D03*
X193488Y308332D03*
D20*
X172358Y318092D03*
D21*
X320738Y196336D03*
X320738Y116536D03*
D22*
X92999Y145832D03*
X92999Y136332D03*
X92999Y126832D03*
X119001Y126832D03*
X119001Y145832D03*
D23*
X80669Y133919D02*
X80669Y127281D01*
X74031Y127281D01*
X74031Y133919D01*
X80669Y133919D01*
X80669Y130387D02*
X74031Y130387D01*
X74031Y133493D02*
X80669Y133493D01*
X80669Y142521D02*
X80669Y149159D01*
X80669Y142521D02*
X74031Y142521D01*
X74031Y149159D01*
X80669Y149159D01*
X80669Y145627D02*
X74031Y145627D01*
X74031Y148733D02*
X80669Y148733D01*
X236371Y332519D02*
X243009Y332519D01*
X236371Y332519D02*
X236371Y339157D01*
X243009Y339157D01*
X243009Y332519D01*
X243009Y335625D02*
X236371Y335625D01*
X236371Y338731D02*
X243009Y338731D01*
X251611Y332519D02*
X258249Y332519D01*
X251611Y332519D02*
X251611Y339157D01*
X258249Y339157D01*
X258249Y332519D01*
X258249Y335625D02*
X251611Y335625D01*
X251611Y338731D02*
X258249Y338731D01*
X137635Y134043D02*
X137635Y127405D01*
X130997Y127405D01*
X130997Y134043D01*
X137635Y134043D01*
X137635Y130511D02*
X130997Y130511D01*
X130997Y133617D02*
X137635Y133617D01*
X137635Y142645D02*
X137635Y149283D01*
X137635Y142645D02*
X130997Y142645D01*
X130997Y149283D01*
X137635Y149283D01*
X137635Y145751D02*
X130997Y145751D01*
X130997Y148857D02*
X137635Y148857D01*
X197255Y174277D02*
X203893Y174277D01*
X197255Y174277D02*
X197255Y180915D01*
X203893Y180915D01*
X203893Y174277D01*
X203893Y177383D02*
X197255Y177383D01*
X197255Y180489D02*
X203893Y180489D01*
X212495Y174277D02*
X219133Y174277D01*
X212495Y174277D02*
X212495Y180915D01*
X219133Y180915D01*
X219133Y174277D01*
X219133Y177383D02*
X212495Y177383D01*
X212495Y180489D02*
X219133Y180489D01*
X267531Y272763D02*
X274169Y272763D01*
X274169Y266125D01*
X267531Y266125D01*
X267531Y272763D01*
X267531Y269231D02*
X274169Y269231D01*
X274169Y272337D02*
X267531Y272337D01*
X258929Y272763D02*
X252291Y272763D01*
X258929Y272763D02*
X258929Y266125D01*
X252291Y266125D01*
X252291Y272763D01*
X252291Y269231D02*
X258929Y269231D01*
X258929Y272337D02*
X252291Y272337D01*
X182983Y350995D02*
X176345Y350995D01*
X182983Y350995D02*
X182983Y344357D01*
X176345Y344357D01*
X176345Y350995D01*
X176345Y347463D02*
X182983Y347463D01*
X182983Y350569D02*
X176345Y350569D01*
X167743Y350995D02*
X161105Y350995D01*
X167743Y350995D02*
X167743Y344357D01*
X161105Y344357D01*
X161105Y350995D01*
X161105Y347463D02*
X167743Y347463D01*
X167743Y350569D02*
X161105Y350569D01*
X113975Y215079D02*
X113975Y208441D01*
X107337Y208441D01*
X107337Y215079D01*
X113975Y215079D01*
X113975Y211547D02*
X107337Y211547D01*
X107337Y214653D02*
X113975Y214653D01*
X113975Y223681D02*
X113975Y230319D01*
X113975Y223681D02*
X107337Y223681D01*
X107337Y230319D01*
X113975Y230319D01*
X113975Y226787D02*
X107337Y226787D01*
X107337Y229893D02*
X113975Y229893D01*
X98735Y215079D02*
X98735Y208441D01*
X92097Y208441D01*
X92097Y215079D01*
X98735Y215079D01*
X98735Y211547D02*
X92097Y211547D01*
X92097Y214653D02*
X98735Y214653D01*
X98735Y223681D02*
X98735Y230319D01*
X98735Y223681D02*
X92097Y223681D01*
X92097Y230319D01*
X98735Y230319D01*
X98735Y226787D02*
X92097Y226787D01*
X92097Y229893D02*
X98735Y229893D01*
D24*
X303600Y191000D03*
X303600Y201000D03*
X303600Y211000D03*
X303600Y221000D03*
D25*
X340350Y234000D03*
X340350Y178000D03*
D24*
X52000Y221000D03*
X52000Y211000D03*
X52000Y201000D03*
X52000Y191000D03*
D25*
X15250Y178000D03*
X15250Y234000D03*
D23*
X225205Y65095D02*
X231843Y65095D01*
X225205Y65095D02*
X225205Y71733D01*
X231843Y71733D01*
X231843Y65095D01*
X231843Y68201D02*
X225205Y68201D01*
X225205Y71307D02*
X231843Y71307D01*
X240445Y65095D02*
X247083Y65095D01*
X240445Y65095D02*
X240445Y71733D01*
X247083Y71733D01*
X247083Y65095D01*
X247083Y68201D02*
X240445Y68201D01*
X240445Y71307D02*
X247083Y71307D01*
X282973Y324439D02*
X289611Y324439D01*
X289611Y317801D01*
X282973Y317801D01*
X282973Y324439D01*
X282973Y320907D02*
X289611Y320907D01*
X289611Y324013D02*
X282973Y324013D01*
X274371Y324439D02*
X267733Y324439D01*
X274371Y324439D02*
X274371Y317801D01*
X267733Y317801D01*
X267733Y324439D01*
X267733Y320907D02*
X274371Y320907D01*
X274371Y324013D02*
X267733Y324013D01*
X243151Y317795D02*
X236513Y317795D01*
X236513Y324433D01*
X243151Y324433D01*
X243151Y317795D01*
X243151Y320901D02*
X236513Y320901D01*
X236513Y324007D02*
X243151Y324007D01*
X251753Y317795D02*
X258391Y317795D01*
X251753Y317795D02*
X251753Y324433D01*
X258391Y324433D01*
X258391Y317795D01*
X258391Y320901D02*
X251753Y320901D01*
X251753Y324007D02*
X258391Y324007D01*
X267755Y332527D02*
X274393Y332527D01*
X267755Y332527D02*
X267755Y339165D01*
X274393Y339165D01*
X274393Y332527D01*
X274393Y335633D02*
X267755Y335633D01*
X267755Y338739D02*
X274393Y338739D01*
X282995Y332527D02*
X289633Y332527D01*
X282995Y332527D02*
X282995Y339165D01*
X289633Y339165D01*
X289633Y332527D01*
X289633Y335633D02*
X282995Y335633D01*
X282995Y338739D02*
X289633Y338739D01*
X242897Y347005D02*
X236259Y347005D01*
X236259Y353643D01*
X242897Y353643D01*
X242897Y347005D01*
X242897Y350111D02*
X236259Y350111D01*
X236259Y353217D02*
X242897Y353217D01*
X251499Y347005D02*
X258137Y347005D01*
X251499Y347005D02*
X251499Y353643D01*
X258137Y353643D01*
X258137Y347005D01*
X258137Y350111D02*
X251499Y350111D01*
X251499Y353217D02*
X258137Y353217D01*
X242897Y361483D02*
X236259Y361483D01*
X236259Y368121D01*
X242897Y368121D01*
X242897Y361483D01*
X242897Y364589D02*
X236259Y364589D01*
X236259Y367695D02*
X242897Y367695D01*
X251499Y361483D02*
X258137Y361483D01*
X251499Y361483D02*
X251499Y368121D01*
X258137Y368121D01*
X258137Y361483D01*
X258137Y364589D02*
X251499Y364589D01*
X251499Y367695D02*
X258137Y367695D01*
X268009Y347005D02*
X274647Y347005D01*
X268009Y347005D02*
X268009Y353643D01*
X274647Y353643D01*
X274647Y347005D01*
X274647Y350111D02*
X268009Y350111D01*
X268009Y353217D02*
X274647Y353217D01*
X283249Y347005D02*
X289887Y347005D01*
X283249Y347005D02*
X283249Y353643D01*
X289887Y353643D01*
X289887Y347005D01*
X289887Y350111D02*
X283249Y350111D01*
X283249Y353217D02*
X289887Y353217D01*
X274647Y361483D02*
X268009Y361483D01*
X268009Y368121D01*
X274647Y368121D01*
X274647Y361483D01*
X274647Y364589D02*
X268009Y364589D01*
X268009Y367695D02*
X274647Y367695D01*
X283249Y361483D02*
X289887Y361483D01*
X283249Y361483D02*
X283249Y368121D01*
X289887Y368121D01*
X289887Y361483D01*
X289887Y364589D02*
X283249Y364589D01*
X283249Y367695D02*
X289887Y367695D01*
X162887Y390185D02*
X156249Y390185D01*
X156249Y396823D01*
X162887Y396823D01*
X162887Y390185D01*
X162887Y393291D02*
X156249Y393291D01*
X156249Y396397D02*
X162887Y396397D01*
X171489Y390185D02*
X178127Y390185D01*
X171489Y390185D02*
X171489Y396823D01*
X178127Y396823D01*
X178127Y390185D01*
X178127Y393291D02*
X171489Y393291D01*
X171489Y396397D02*
X178127Y396397D01*
X162633Y404917D02*
X155995Y404917D01*
X155995Y411555D01*
X162633Y411555D01*
X162633Y404917D01*
X162633Y408023D02*
X155995Y408023D01*
X155995Y411129D02*
X162633Y411129D01*
X171235Y404917D02*
X177873Y404917D01*
X171235Y404917D02*
X171235Y411555D01*
X177873Y411555D01*
X177873Y404917D01*
X177873Y408023D02*
X171235Y408023D01*
X171235Y411129D02*
X177873Y411129D01*
X101673Y160061D02*
X95035Y160061D01*
X95035Y166699D01*
X101673Y166699D01*
X101673Y160061D01*
X101673Y163167D02*
X95035Y163167D01*
X95035Y166273D02*
X101673Y166273D01*
X110275Y160061D02*
X116913Y160061D01*
X110275Y160061D02*
X110275Y166699D01*
X116913Y166699D01*
X116913Y160061D01*
X116913Y163167D02*
X110275Y163167D01*
X110275Y166273D02*
X116913Y166273D01*
D26*
X86905Y166599D02*
X82117Y166599D01*
X86905Y166599D02*
X86905Y160161D01*
X82117Y160161D01*
X82117Y166599D01*
X82117Y162610D02*
X86905Y162610D01*
X86905Y165059D02*
X82117Y165059D01*
X72935Y166599D02*
X68147Y166599D01*
X72935Y166599D02*
X72935Y160161D01*
X68147Y160161D01*
X68147Y166599D01*
X68147Y162610D02*
X72935Y162610D01*
X72935Y165059D02*
X68147Y165059D01*
D27*
X339852Y317754D03*
D28*
X339852Y343154D03*
X339852Y368554D03*
X339852Y393954D03*
D29*
X37338Y278286D03*
X37338Y313286D03*
D27*
X101600Y15000D03*
D28*
X127000Y15000D03*
X152400Y15000D03*
X177800Y15000D03*
X203200Y15000D03*
X228600Y15000D03*
X254000Y15000D03*
D30*
X93012Y269254D03*
X93012Y323254D03*
D23*
X245855Y183913D02*
X252493Y183913D01*
X252493Y177275D01*
X245855Y177275D01*
X245855Y183913D01*
X245855Y180381D02*
X252493Y180381D01*
X252493Y183487D02*
X245855Y183487D01*
X237253Y183913D02*
X230615Y183913D01*
X237253Y183913D02*
X237253Y177275D01*
X230615Y177275D01*
X230615Y183913D01*
X230615Y180381D02*
X237253Y180381D01*
X237253Y183487D02*
X230615Y183487D01*
X148573Y174515D02*
X148573Y167877D01*
X148573Y174515D02*
X155211Y174515D01*
X155211Y167877D01*
X148573Y167877D01*
X148573Y170983D02*
X155211Y170983D01*
X155211Y174089D02*
X148573Y174089D01*
X148573Y159275D02*
X148573Y152637D01*
X148573Y159275D02*
X155211Y159275D01*
X155211Y152637D01*
X148573Y152637D01*
X148573Y155743D02*
X155211Y155743D01*
X155211Y158849D02*
X148573Y158849D01*
X176259Y366031D02*
X182897Y366031D01*
X182897Y359393D01*
X176259Y359393D01*
X176259Y366031D01*
X176259Y362499D02*
X182897Y362499D01*
X182897Y365605D02*
X176259Y365605D01*
X167657Y366031D02*
X161019Y366031D01*
X167657Y366031D02*
X167657Y359393D01*
X161019Y359393D01*
X161019Y366031D01*
X161019Y362499D02*
X167657Y362499D01*
X167657Y365605D02*
X161019Y365605D01*
M02*
