G04 EAGLE Gerber RS-274X export*
G75*
%MOMM*%
%FSLAX34Y34*%
%LPD*%
%AMOC8*
5,1,8,0,0,1.08239X$1,22.5*%
G01*
%ADD10C,1.208000*%
%ADD11C,1.270000*%
%ADD12R,1.400000X0.700000*%
%ADD13R,1.400000X1.200000*%
%ADD14R,2.200000X1.200000*%
%ADD15R,1.400000X1.600000*%
%ADD16R,0.635000X1.270000*%
%ADD17C,0.203200*%
%ADD18R,1.270000X0.635000*%
%ADD19R,1.651000X1.651000*%
%ADD20C,1.651000*%
%ADD21C,2.184400*%
%ADD22C,2.540000*%
%ADD23C,0.609600*%
%ADD24C,0.304800*%

G36*
X90780Y5223D02*
X90780Y5223D01*
X90882Y5231D01*
X90910Y5243D01*
X90941Y5248D01*
X91033Y5292D01*
X91129Y5330D01*
X91152Y5350D01*
X91180Y5363D01*
X91255Y5433D01*
X91335Y5498D01*
X91352Y5524D01*
X91374Y5545D01*
X91425Y5634D01*
X91482Y5719D01*
X91488Y5743D01*
X91506Y5775D01*
X91564Y6035D01*
X91561Y6073D01*
X91566Y6096D01*
X91566Y23992D01*
X92608Y25034D01*
X110592Y25034D01*
X111634Y23992D01*
X111634Y6096D01*
X111649Y5994D01*
X111657Y5892D01*
X111669Y5864D01*
X111674Y5833D01*
X111718Y5741D01*
X111756Y5645D01*
X111776Y5622D01*
X111789Y5594D01*
X111859Y5519D01*
X111924Y5439D01*
X111950Y5422D01*
X111971Y5400D01*
X112060Y5349D01*
X112145Y5292D01*
X112169Y5286D01*
X112201Y5268D01*
X112461Y5210D01*
X112499Y5213D01*
X112522Y5208D01*
X119380Y5208D01*
X119431Y5215D01*
X119483Y5214D01*
X119562Y5235D01*
X119643Y5248D01*
X119690Y5270D01*
X119739Y5284D01*
X119809Y5328D01*
X119883Y5363D01*
X119920Y5398D01*
X119964Y5426D01*
X120017Y5489D01*
X120077Y5545D01*
X120102Y5589D01*
X120136Y5629D01*
X120168Y5704D01*
X120209Y5775D01*
X120220Y5826D01*
X120240Y5873D01*
X120249Y5955D01*
X120267Y6035D01*
X120262Y6086D01*
X120268Y6138D01*
X120252Y6218D01*
X120245Y6300D01*
X120226Y6348D01*
X120216Y6398D01*
X120188Y6442D01*
X120146Y6547D01*
X120033Y6686D01*
X120008Y6724D01*
X118765Y7967D01*
X117767Y9342D01*
X116995Y10856D01*
X116470Y12472D01*
X116351Y13223D01*
X126111Y13223D01*
X126212Y13238D01*
X126315Y13246D01*
X126343Y13258D01*
X126374Y13263D01*
X126466Y13307D01*
X126561Y13345D01*
X126585Y13365D01*
X126613Y13378D01*
X126688Y13448D01*
X126768Y13513D01*
X126785Y13539D01*
X126807Y13560D01*
X126858Y13649D01*
X126915Y13734D01*
X126920Y13758D01*
X126939Y13790D01*
X126997Y14050D01*
X126994Y14088D01*
X126999Y14111D01*
X126999Y15001D01*
X127001Y15001D01*
X127001Y14111D01*
X127016Y14009D01*
X127025Y13907D01*
X127036Y13879D01*
X127041Y13848D01*
X127085Y13756D01*
X127124Y13660D01*
X127143Y13637D01*
X127156Y13609D01*
X127226Y13534D01*
X127291Y13454D01*
X127317Y13437D01*
X127338Y13415D01*
X127427Y13364D01*
X127512Y13307D01*
X127536Y13301D01*
X127569Y13283D01*
X127828Y13225D01*
X127866Y13228D01*
X127889Y13223D01*
X137649Y13223D01*
X137530Y12472D01*
X137005Y10856D01*
X136233Y9342D01*
X135235Y7967D01*
X133992Y6724D01*
X133961Y6683D01*
X133923Y6647D01*
X133882Y6576D01*
X133834Y6510D01*
X133817Y6461D01*
X133791Y6417D01*
X133773Y6337D01*
X133746Y6259D01*
X133745Y6207D01*
X133733Y6157D01*
X133740Y6075D01*
X133737Y5993D01*
X133751Y5944D01*
X133755Y5892D01*
X133786Y5816D01*
X133807Y5737D01*
X133835Y5693D01*
X133854Y5645D01*
X133906Y5582D01*
X133950Y5513D01*
X133989Y5479D01*
X134022Y5439D01*
X134090Y5394D01*
X134152Y5341D01*
X134200Y5320D01*
X134243Y5292D01*
X134293Y5280D01*
X134397Y5236D01*
X134575Y5218D01*
X134620Y5208D01*
X145858Y5208D01*
X145909Y5215D01*
X145961Y5214D01*
X146040Y5235D01*
X146121Y5248D01*
X146167Y5270D01*
X146217Y5284D01*
X146286Y5328D01*
X146360Y5363D01*
X146398Y5398D01*
X146441Y5426D01*
X146495Y5489D01*
X146554Y5545D01*
X146580Y5589D01*
X146613Y5629D01*
X146646Y5704D01*
X146686Y5775D01*
X146698Y5826D01*
X146718Y5873D01*
X146726Y5955D01*
X146744Y6035D01*
X146740Y6086D01*
X146745Y6138D01*
X146729Y6218D01*
X146723Y6300D01*
X146703Y6348D01*
X146693Y6398D01*
X146666Y6442D01*
X146624Y6547D01*
X146511Y6686D01*
X146486Y6724D01*
X143894Y9316D01*
X142366Y13004D01*
X142366Y16996D01*
X143894Y20684D01*
X146716Y23506D01*
X149057Y24476D01*
X149110Y24508D01*
X149168Y24531D01*
X149223Y24576D01*
X149285Y24613D01*
X149326Y24659D01*
X149374Y24698D01*
X149414Y24758D01*
X149461Y24812D01*
X149487Y24868D01*
X149521Y24920D01*
X149532Y24967D01*
X149571Y25053D01*
X149598Y25266D01*
X149605Y25296D01*
X149605Y98910D01*
X149602Y98931D01*
X149604Y98952D01*
X149582Y99062D01*
X149565Y99173D01*
X149556Y99192D01*
X149552Y99212D01*
X149528Y99251D01*
X149450Y99412D01*
X149373Y99494D01*
X149345Y99538D01*
X126491Y122392D01*
X126491Y158415D01*
X126484Y158466D01*
X126485Y158517D01*
X126464Y158597D01*
X126451Y158678D01*
X126429Y158724D01*
X126415Y158774D01*
X126371Y158843D01*
X126336Y158917D01*
X126300Y158955D01*
X126273Y158998D01*
X126210Y159051D01*
X126154Y159111D01*
X126110Y159137D01*
X126070Y159170D01*
X125995Y159203D01*
X125924Y159243D01*
X125873Y159254D01*
X125826Y159275D01*
X125744Y159283D01*
X125664Y159301D01*
X125613Y159297D01*
X125561Y159302D01*
X125481Y159286D01*
X125399Y159279D01*
X125351Y159260D01*
X125301Y159250D01*
X125257Y159222D01*
X125152Y159180D01*
X125013Y159067D01*
X124975Y159043D01*
X124427Y158495D01*
X120429Y158495D01*
X117601Y161323D01*
X117601Y165321D01*
X118865Y166585D01*
X118878Y166602D01*
X118894Y166615D01*
X118956Y166709D01*
X119023Y166799D01*
X119030Y166819D01*
X119041Y166836D01*
X119051Y166881D01*
X119110Y167050D01*
X119114Y167163D01*
X119125Y167213D01*
X119125Y206629D01*
X119110Y206731D01*
X119102Y206833D01*
X119090Y206861D01*
X119085Y206892D01*
X119041Y206984D01*
X119003Y207080D01*
X118983Y207103D01*
X118970Y207131D01*
X118900Y207206D01*
X118835Y207286D01*
X118809Y207303D01*
X118788Y207325D01*
X118699Y207376D01*
X118614Y207433D01*
X118590Y207439D01*
X118558Y207457D01*
X118298Y207515D01*
X118260Y207512D01*
X118237Y207517D01*
X86441Y207517D01*
X86421Y207514D01*
X86400Y207516D01*
X86289Y207494D01*
X86178Y207477D01*
X86160Y207468D01*
X86139Y207464D01*
X86100Y207440D01*
X85939Y207362D01*
X85857Y207285D01*
X85813Y207257D01*
X84549Y205993D01*
X80551Y205993D01*
X77723Y208821D01*
X77723Y212819D01*
X80551Y215647D01*
X84549Y215647D01*
X85813Y214383D01*
X85830Y214370D01*
X85843Y214354D01*
X85937Y214292D01*
X86027Y214225D01*
X86047Y214218D01*
X86064Y214207D01*
X86109Y214197D01*
X86278Y214138D01*
X86391Y214134D01*
X86441Y214123D01*
X98848Y214123D01*
X98869Y214126D01*
X98890Y214124D01*
X99000Y214146D01*
X99111Y214163D01*
X99130Y214172D01*
X99150Y214176D01*
X99189Y214200D01*
X99269Y214239D01*
X99308Y214254D01*
X99317Y214262D01*
X99350Y214278D01*
X99433Y214355D01*
X99476Y214383D01*
X99485Y214392D01*
X99498Y214409D01*
X99514Y214422D01*
X99530Y214446D01*
X99544Y214460D01*
X99577Y214516D01*
X99643Y214606D01*
X99650Y214626D01*
X99661Y214643D01*
X99669Y214678D01*
X99676Y214690D01*
X99684Y214724D01*
X99730Y214857D01*
X99733Y214946D01*
X99734Y214950D01*
X99734Y214957D01*
X99734Y214970D01*
X99745Y215020D01*
X99745Y215431D01*
X99730Y215533D01*
X99722Y215635D01*
X99710Y215663D01*
X99705Y215694D01*
X99661Y215786D01*
X99623Y215882D01*
X99603Y215905D01*
X99590Y215933D01*
X99520Y216008D01*
X99455Y216088D01*
X99429Y216105D01*
X99408Y216127D01*
X99319Y216178D01*
X99234Y216235D01*
X99210Y216241D01*
X99178Y216259D01*
X98918Y216317D01*
X98880Y216314D01*
X98857Y216319D01*
X91008Y216319D01*
X89966Y217361D01*
X89966Y231535D01*
X91008Y232577D01*
X91237Y232577D01*
X91339Y232592D01*
X91441Y232600D01*
X91469Y232612D01*
X91500Y232617D01*
X91592Y232661D01*
X91688Y232699D01*
X91711Y232719D01*
X91739Y232732D01*
X91814Y232802D01*
X91894Y232867D01*
X91911Y232893D01*
X91933Y232914D01*
X91984Y233003D01*
X92041Y233088D01*
X92047Y233112D01*
X92065Y233144D01*
X92123Y233404D01*
X92122Y233421D01*
X92123Y233427D01*
X92121Y233448D01*
X92125Y233465D01*
X92125Y234945D01*
X92122Y234965D01*
X92124Y234986D01*
X92102Y235097D01*
X92085Y235208D01*
X92076Y235226D01*
X92072Y235247D01*
X92048Y235286D01*
X91970Y235447D01*
X91893Y235529D01*
X91865Y235573D01*
X90677Y236761D01*
X90677Y240759D01*
X93505Y243587D01*
X97503Y243587D01*
X100331Y240759D01*
X100331Y236761D01*
X97975Y234405D01*
X97962Y234388D01*
X97946Y234375D01*
X97884Y234281D01*
X97817Y234191D01*
X97810Y234171D01*
X97799Y234154D01*
X97789Y234109D01*
X97730Y233940D01*
X97726Y233827D01*
X97715Y233777D01*
X97715Y233465D01*
X97730Y233363D01*
X97738Y233261D01*
X97750Y233233D01*
X97755Y233202D01*
X97799Y233110D01*
X97837Y233014D01*
X97857Y232991D01*
X97870Y232963D01*
X97940Y232888D01*
X98005Y232808D01*
X98031Y232791D01*
X98052Y232769D01*
X98141Y232718D01*
X98226Y232661D01*
X98250Y232655D01*
X98282Y232637D01*
X98542Y232579D01*
X98580Y232582D01*
X98603Y232577D01*
X107061Y232577D01*
X107163Y232592D01*
X107265Y232600D01*
X107293Y232612D01*
X107324Y232617D01*
X107416Y232661D01*
X107512Y232699D01*
X107535Y232719D01*
X107563Y232732D01*
X107638Y232802D01*
X107718Y232867D01*
X107735Y232893D01*
X107757Y232914D01*
X107808Y233003D01*
X107865Y233088D01*
X107871Y233112D01*
X107889Y233144D01*
X107947Y233404D01*
X107946Y233421D01*
X107947Y233427D01*
X107945Y233448D01*
X107949Y233465D01*
X107949Y233853D01*
X107946Y233873D01*
X107948Y233894D01*
X107926Y234005D01*
X107909Y234116D01*
X107900Y234134D01*
X107896Y234155D01*
X107872Y234194D01*
X107794Y234355D01*
X107717Y234437D01*
X107689Y234481D01*
X105917Y236253D01*
X105917Y240251D01*
X108745Y243079D01*
X112743Y243079D01*
X115571Y240251D01*
X115571Y236253D01*
X113799Y234481D01*
X113786Y234464D01*
X113770Y234451D01*
X113708Y234357D01*
X113641Y234267D01*
X113634Y234247D01*
X113623Y234230D01*
X113613Y234185D01*
X113554Y234016D01*
X113550Y233903D01*
X113539Y233853D01*
X113539Y233465D01*
X113554Y233363D01*
X113562Y233261D01*
X113574Y233233D01*
X113579Y233202D01*
X113623Y233110D01*
X113661Y233014D01*
X113681Y232991D01*
X113694Y232963D01*
X113764Y232888D01*
X113829Y232808D01*
X113855Y232791D01*
X113876Y232769D01*
X113965Y232718D01*
X114050Y232661D01*
X114074Y232655D01*
X114106Y232637D01*
X114366Y232579D01*
X114404Y232582D01*
X114427Y232577D01*
X115088Y232577D01*
X116130Y231535D01*
X116130Y217361D01*
X115088Y216319D01*
X107239Y216319D01*
X107137Y216304D01*
X107035Y216296D01*
X107007Y216284D01*
X106976Y216279D01*
X106884Y216235D01*
X106788Y216197D01*
X106765Y216177D01*
X106737Y216164D01*
X106662Y216094D01*
X106582Y216029D01*
X106565Y216003D01*
X106543Y215982D01*
X106492Y215893D01*
X106435Y215808D01*
X106429Y215784D01*
X106411Y215752D01*
X106353Y215492D01*
X106356Y215454D01*
X106351Y215431D01*
X106351Y215011D01*
X106366Y214909D01*
X106374Y214807D01*
X106386Y214779D01*
X106391Y214748D01*
X106435Y214656D01*
X106473Y214560D01*
X106493Y214537D01*
X106506Y214509D01*
X106576Y214434D01*
X106641Y214354D01*
X106667Y214337D01*
X106688Y214315D01*
X106777Y214264D01*
X106862Y214207D01*
X106886Y214201D01*
X106918Y214183D01*
X107178Y214125D01*
X107216Y214128D01*
X107239Y214123D01*
X118237Y214123D01*
X118339Y214138D01*
X118441Y214146D01*
X118469Y214158D01*
X118500Y214163D01*
X118592Y214207D01*
X118688Y214245D01*
X118711Y214265D01*
X118739Y214278D01*
X118814Y214348D01*
X118894Y214413D01*
X118911Y214439D01*
X118933Y214460D01*
X118984Y214549D01*
X119041Y214634D01*
X119047Y214658D01*
X119065Y214690D01*
X119123Y214950D01*
X119120Y214988D01*
X119125Y215011D01*
X119125Y317344D01*
X149091Y347310D01*
X149104Y347327D01*
X149120Y347340D01*
X149182Y347434D01*
X149249Y347524D01*
X149256Y347544D01*
X149267Y347561D01*
X149277Y347606D01*
X149336Y347775D01*
X149340Y347888D01*
X149351Y347938D01*
X149351Y349725D01*
X152179Y352553D01*
X156177Y352553D01*
X159005Y349725D01*
X159005Y345727D01*
X156177Y342899D01*
X154390Y342899D01*
X154369Y342896D01*
X154348Y342898D01*
X154238Y342876D01*
X154127Y342859D01*
X154108Y342850D01*
X154088Y342846D01*
X154049Y342822D01*
X153888Y342744D01*
X153805Y342667D01*
X153762Y342639D01*
X125991Y314868D01*
X125978Y314851D01*
X125962Y314838D01*
X125900Y314744D01*
X125833Y314654D01*
X125826Y314634D01*
X125815Y314617D01*
X125805Y314572D01*
X125746Y314403D01*
X125742Y314290D01*
X125731Y314240D01*
X125731Y224871D01*
X125738Y224820D01*
X125737Y224769D01*
X125758Y224689D01*
X125771Y224608D01*
X125793Y224562D01*
X125807Y224512D01*
X125851Y224443D01*
X125886Y224369D01*
X125922Y224331D01*
X125949Y224288D01*
X126012Y224235D01*
X126068Y224175D01*
X126112Y224149D01*
X126152Y224116D01*
X126227Y224083D01*
X126298Y224043D01*
X126349Y224032D01*
X126396Y224011D01*
X126478Y224003D01*
X126558Y223985D01*
X126609Y223989D01*
X126661Y223984D01*
X126741Y224000D01*
X126823Y224007D01*
X126871Y224026D01*
X126921Y224036D01*
X126965Y224064D01*
X127070Y224106D01*
X127209Y224219D01*
X127247Y224243D01*
X127287Y224283D01*
X131285Y224283D01*
X134113Y221455D01*
X134113Y217457D01*
X132341Y215685D01*
X132328Y215668D01*
X132312Y215655D01*
X132250Y215561D01*
X132183Y215471D01*
X132176Y215451D01*
X132165Y215434D01*
X132155Y215389D01*
X132096Y215220D01*
X132092Y215107D01*
X132081Y215057D01*
X132081Y214757D01*
X132096Y214655D01*
X132104Y214553D01*
X132116Y214525D01*
X132121Y214494D01*
X132165Y214402D01*
X132203Y214306D01*
X132223Y214283D01*
X132236Y214255D01*
X132306Y214180D01*
X132371Y214100D01*
X132397Y214083D01*
X132418Y214061D01*
X132507Y214010D01*
X132592Y213953D01*
X132616Y213947D01*
X132648Y213929D01*
X132908Y213871D01*
X132946Y213874D01*
X132969Y213869D01*
X137127Y213869D01*
X139955Y211041D01*
X139955Y207043D01*
X139153Y206241D01*
X139122Y206200D01*
X139085Y206164D01*
X139044Y206093D01*
X138995Y206027D01*
X138978Y205978D01*
X138953Y205934D01*
X138935Y205854D01*
X138908Y205776D01*
X138906Y205724D01*
X138895Y205674D01*
X138902Y205592D01*
X138899Y205510D01*
X138912Y205461D01*
X138917Y205409D01*
X138947Y205333D01*
X138969Y205254D01*
X138996Y205210D01*
X139016Y205162D01*
X139067Y205099D01*
X139111Y205030D01*
X139151Y204996D01*
X139183Y204956D01*
X139252Y204911D01*
X139314Y204858D01*
X139361Y204837D01*
X139404Y204809D01*
X139455Y204797D01*
X139558Y204753D01*
X139737Y204735D01*
X139781Y204725D01*
X143477Y204725D01*
X145041Y203161D01*
X145082Y203130D01*
X145118Y203093D01*
X145189Y203052D01*
X145255Y203003D01*
X145304Y202986D01*
X145348Y202961D01*
X145428Y202943D01*
X145506Y202916D01*
X145558Y202914D01*
X145608Y202903D01*
X145690Y202910D01*
X145772Y202907D01*
X145821Y202920D01*
X145873Y202925D01*
X145949Y202955D01*
X146028Y202977D01*
X146072Y203004D01*
X146120Y203024D01*
X146183Y203075D01*
X146252Y203119D01*
X146286Y203159D01*
X146326Y203191D01*
X146371Y203260D01*
X146424Y203322D01*
X146445Y203369D01*
X146473Y203412D01*
X146485Y203463D01*
X146529Y203566D01*
X146547Y203745D01*
X146557Y203789D01*
X146557Y281351D01*
X146554Y281371D01*
X146556Y281392D01*
X146534Y281503D01*
X146517Y281614D01*
X146508Y281632D01*
X146504Y281653D01*
X146480Y281692D01*
X146402Y281853D01*
X146325Y281935D01*
X146297Y281979D01*
X144525Y283751D01*
X144525Y287749D01*
X147353Y290577D01*
X151557Y290577D01*
X151608Y290584D01*
X151659Y290583D01*
X151739Y290604D01*
X151820Y290617D01*
X151866Y290639D01*
X151916Y290653D01*
X151985Y290697D01*
X152059Y290732D01*
X152097Y290768D01*
X152140Y290795D01*
X152193Y290858D01*
X152253Y290914D01*
X152279Y290958D01*
X152312Y290998D01*
X152345Y291073D01*
X152385Y291144D01*
X152396Y291195D01*
X152417Y291242D01*
X152425Y291324D01*
X152443Y291404D01*
X152439Y291455D01*
X152444Y291507D01*
X152428Y291587D01*
X152421Y291669D01*
X152402Y291717D01*
X152392Y291767D01*
X152364Y291811D01*
X152322Y291916D01*
X152209Y292055D01*
X152185Y292093D01*
X152145Y292133D01*
X152145Y296131D01*
X154973Y298959D01*
X158971Y298959D01*
X161799Y296131D01*
X161799Y292133D01*
X159773Y290107D01*
X159760Y290090D01*
X159744Y290077D01*
X159682Y289983D01*
X159615Y289893D01*
X159608Y289873D01*
X159597Y289856D01*
X159587Y289811D01*
X159528Y289642D01*
X159525Y289554D01*
X159515Y289509D01*
X159516Y289494D01*
X159513Y289479D01*
X159513Y237871D01*
X159528Y237769D01*
X159536Y237667D01*
X159548Y237639D01*
X159553Y237608D01*
X159597Y237516D01*
X159635Y237420D01*
X159655Y237397D01*
X159668Y237369D01*
X159738Y237294D01*
X159803Y237214D01*
X159829Y237197D01*
X159850Y237175D01*
X159939Y237124D01*
X160024Y237067D01*
X160048Y237061D01*
X160080Y237043D01*
X160340Y236985D01*
X160378Y236988D01*
X160401Y236983D01*
X163066Y236983D01*
X163087Y236986D01*
X163108Y236984D01*
X163218Y237006D01*
X163329Y237023D01*
X163348Y237032D01*
X163369Y237036D01*
X163407Y237060D01*
X163569Y237138D01*
X163651Y237215D01*
X163695Y237243D01*
X172713Y246261D01*
X172726Y246278D01*
X172742Y246292D01*
X172804Y246385D01*
X172871Y246475D01*
X172878Y246495D01*
X172889Y246513D01*
X172899Y246557D01*
X172958Y246726D01*
X172962Y246839D01*
X172973Y246890D01*
X172973Y249395D01*
X175801Y252223D01*
X179799Y252223D01*
X182627Y249395D01*
X182627Y245397D01*
X179799Y242569D01*
X177294Y242569D01*
X177273Y242566D01*
X177252Y242568D01*
X177142Y242546D01*
X177031Y242529D01*
X177012Y242520D01*
X176991Y242516D01*
X176953Y242492D01*
X176791Y242414D01*
X176709Y242337D01*
X176665Y242309D01*
X167647Y233291D01*
X167634Y233274D01*
X167618Y233260D01*
X167556Y233167D01*
X167489Y233077D01*
X167482Y233057D01*
X167471Y233039D01*
X167461Y232995D01*
X167402Y232826D01*
X167398Y232713D01*
X167387Y232662D01*
X167387Y230157D01*
X164559Y227329D01*
X160401Y227329D01*
X160299Y227314D01*
X160197Y227306D01*
X160169Y227294D01*
X160138Y227289D01*
X160046Y227245D01*
X159950Y227207D01*
X159927Y227187D01*
X159899Y227174D01*
X159824Y227104D01*
X159744Y227039D01*
X159727Y227013D01*
X159705Y226992D01*
X159654Y226903D01*
X159597Y226818D01*
X159591Y226794D01*
X159573Y226762D01*
X159515Y226502D01*
X159518Y226464D01*
X159513Y226441D01*
X159513Y147068D01*
X159516Y147047D01*
X159514Y147026D01*
X159536Y146916D01*
X159553Y146805D01*
X159562Y146786D01*
X159566Y146765D01*
X159590Y146727D01*
X159668Y146565D01*
X159745Y146483D01*
X159773Y146439D01*
X167013Y139199D01*
X167030Y139186D01*
X167044Y139170D01*
X167137Y139108D01*
X167227Y139041D01*
X167247Y139034D01*
X167265Y139023D01*
X167309Y139013D01*
X167478Y138954D01*
X167591Y138950D01*
X167642Y138939D01*
X170147Y138939D01*
X172975Y136111D01*
X172975Y132113D01*
X170147Y129285D01*
X166149Y129285D01*
X163321Y132113D01*
X163321Y134618D01*
X163318Y134639D01*
X163320Y134660D01*
X163298Y134770D01*
X163281Y134881D01*
X163272Y134900D01*
X163268Y134921D01*
X163244Y134959D01*
X163166Y135121D01*
X163089Y135203D01*
X163061Y135247D01*
X153923Y144384D01*
X153923Y281351D01*
X153914Y281411D01*
X153915Y281472D01*
X153894Y281542D01*
X153883Y281614D01*
X153857Y281669D01*
X153840Y281727D01*
X153799Y281788D01*
X153768Y281853D01*
X153726Y281898D01*
X153692Y281948D01*
X153636Y281994D01*
X153586Y282047D01*
X153533Y282078D01*
X153486Y282116D01*
X153419Y282143D01*
X153356Y282179D01*
X153296Y282192D01*
X153239Y282215D01*
X153167Y282221D01*
X153096Y282237D01*
X153035Y282232D01*
X152974Y282237D01*
X152903Y282221D01*
X152831Y282215D01*
X152775Y282193D01*
X152715Y282179D01*
X152652Y282143D01*
X152584Y282116D01*
X152537Y282078D01*
X152484Y282048D01*
X152454Y282010D01*
X152378Y281949D01*
X152261Y281774D01*
X152241Y281748D01*
X152237Y281737D01*
X152231Y281728D01*
X152223Y281695D01*
X152159Y281495D01*
X152157Y281398D01*
X152147Y281351D01*
X152147Y121174D01*
X152150Y121153D01*
X152148Y121132D01*
X152170Y121022D01*
X152187Y120911D01*
X152196Y120892D01*
X152200Y120871D01*
X152224Y120833D01*
X152302Y120671D01*
X152379Y120589D01*
X152407Y120545D01*
X248696Y24257D01*
X248746Y24220D01*
X248789Y24176D01*
X248852Y24142D01*
X248910Y24099D01*
X248968Y24079D01*
X249023Y24049D01*
X249093Y24035D01*
X249161Y24012D01*
X249223Y24010D01*
X249283Y23998D01*
X249331Y24006D01*
X249426Y24003D01*
X249633Y24059D01*
X249664Y24064D01*
X252004Y25034D01*
X255996Y25034D01*
X259684Y23506D01*
X262506Y20684D01*
X264034Y16996D01*
X264034Y13004D01*
X262506Y9316D01*
X259914Y6724D01*
X259883Y6683D01*
X259846Y6647D01*
X259805Y6576D01*
X259756Y6510D01*
X259739Y6461D01*
X259714Y6417D01*
X259696Y6337D01*
X259669Y6259D01*
X259667Y6207D01*
X259656Y6157D01*
X259662Y6075D01*
X259660Y5993D01*
X259673Y5944D01*
X259677Y5892D01*
X259708Y5816D01*
X259730Y5737D01*
X259757Y5693D01*
X259776Y5645D01*
X259828Y5582D01*
X259872Y5513D01*
X259911Y5479D01*
X259944Y5439D01*
X260012Y5394D01*
X260075Y5341D01*
X260122Y5320D01*
X260165Y5292D01*
X260216Y5280D01*
X260319Y5236D01*
X260498Y5218D01*
X260542Y5208D01*
X313679Y5208D01*
X313710Y5212D01*
X313741Y5210D01*
X313841Y5232D01*
X313942Y5248D01*
X313970Y5261D01*
X314000Y5268D01*
X314089Y5319D01*
X314181Y5363D01*
X314204Y5385D01*
X314231Y5400D01*
X314301Y5475D01*
X314375Y5545D01*
X314391Y5572D01*
X314412Y5594D01*
X314457Y5687D01*
X314507Y5775D01*
X314514Y5806D01*
X314528Y5834D01*
X314543Y5935D01*
X314565Y6035D01*
X314563Y6066D01*
X314567Y6097D01*
X314552Y6198D01*
X314544Y6300D01*
X314532Y6329D01*
X314527Y6359D01*
X314502Y6404D01*
X314445Y6547D01*
X314362Y6649D01*
X314335Y6694D01*
X309159Y12372D01*
X305874Y20853D01*
X305874Y29947D01*
X309159Y38428D01*
X315286Y45149D01*
X323428Y49203D01*
X332483Y50042D01*
X341231Y47553D01*
X348489Y42072D01*
X348749Y41652D01*
X348762Y41636D01*
X348771Y41617D01*
X348848Y41535D01*
X348921Y41449D01*
X348938Y41438D01*
X348953Y41423D01*
X349050Y41367D01*
X349145Y41307D01*
X349165Y41301D01*
X349183Y41291D01*
X349293Y41266D01*
X349402Y41237D01*
X349423Y41238D01*
X349443Y41233D01*
X349555Y41242D01*
X349667Y41246D01*
X349687Y41253D01*
X349708Y41255D01*
X349813Y41297D01*
X349919Y41334D01*
X349935Y41346D01*
X349955Y41354D01*
X350042Y41425D01*
X350132Y41492D01*
X350145Y41508D01*
X350161Y41521D01*
X350224Y41615D01*
X350290Y41706D01*
X350297Y41725D01*
X350308Y41742D01*
X350318Y41787D01*
X350377Y41957D01*
X350381Y42069D01*
X350392Y42119D01*
X350392Y307124D01*
X350385Y307175D01*
X350386Y307227D01*
X350365Y307306D01*
X350352Y307387D01*
X350330Y307434D01*
X350316Y307483D01*
X350272Y307553D01*
X350237Y307626D01*
X350201Y307664D01*
X350174Y307708D01*
X350111Y307761D01*
X350055Y307821D01*
X350011Y307846D01*
X349971Y307880D01*
X349896Y307912D01*
X349825Y307953D01*
X349774Y307964D01*
X349727Y307984D01*
X349645Y307993D01*
X349565Y308011D01*
X349514Y308006D01*
X349462Y308012D01*
X349382Y307996D01*
X349300Y307989D01*
X349252Y307970D01*
X349202Y307960D01*
X349158Y307932D01*
X349053Y307890D01*
X348914Y307777D01*
X348876Y307752D01*
X348844Y307720D01*
X330860Y307720D01*
X329818Y308762D01*
X329818Y326746D01*
X330860Y327788D01*
X348844Y327788D01*
X348876Y327756D01*
X348917Y327725D01*
X348953Y327687D01*
X349024Y327646D01*
X349090Y327598D01*
X349139Y327581D01*
X349183Y327555D01*
X349263Y327537D01*
X349341Y327510D01*
X349393Y327509D01*
X349443Y327497D01*
X349525Y327504D01*
X349607Y327501D01*
X349656Y327515D01*
X349708Y327519D01*
X349784Y327550D01*
X349863Y327571D01*
X349907Y327599D01*
X349955Y327618D01*
X350018Y327670D01*
X350087Y327714D01*
X350121Y327753D01*
X350161Y327786D01*
X350206Y327854D01*
X350259Y327916D01*
X350280Y327964D01*
X350308Y328007D01*
X350320Y328057D01*
X350364Y328161D01*
X350382Y328339D01*
X350392Y328384D01*
X350392Y337916D01*
X350378Y338007D01*
X350373Y338099D01*
X350359Y338138D01*
X350352Y338178D01*
X350312Y338261D01*
X350280Y338348D01*
X350255Y338381D01*
X350237Y338418D01*
X350174Y338485D01*
X350117Y338558D01*
X350084Y338582D01*
X350055Y338612D01*
X349975Y338658D01*
X349900Y338711D01*
X349860Y338724D01*
X349825Y338744D01*
X349734Y338764D01*
X349647Y338792D01*
X349605Y338793D01*
X349565Y338802D01*
X349473Y338794D01*
X349381Y338795D01*
X349341Y338783D01*
X349300Y338780D01*
X349215Y338746D01*
X349126Y338719D01*
X349092Y338696D01*
X349053Y338681D01*
X348982Y338623D01*
X348905Y338571D01*
X348887Y338546D01*
X348847Y338514D01*
X348700Y338292D01*
X348695Y338272D01*
X348683Y338255D01*
X348358Y337470D01*
X345536Y334648D01*
X341848Y333120D01*
X337856Y333120D01*
X334168Y334648D01*
X331346Y337470D01*
X329818Y341158D01*
X329818Y345150D01*
X331346Y348838D01*
X334168Y351660D01*
X337856Y353188D01*
X341848Y353188D01*
X345536Y351660D01*
X348358Y348838D01*
X348683Y348053D01*
X348731Y347973D01*
X348771Y347890D01*
X348799Y347860D01*
X348821Y347825D01*
X348890Y347764D01*
X348953Y347696D01*
X348988Y347676D01*
X349019Y347648D01*
X349103Y347610D01*
X349183Y347564D01*
X349224Y347555D01*
X349261Y347538D01*
X349353Y347526D01*
X349443Y347506D01*
X349484Y347510D01*
X349525Y347504D01*
X349616Y347520D01*
X349708Y347528D01*
X349746Y347543D01*
X349787Y347550D01*
X349869Y347592D01*
X349955Y347627D01*
X349987Y347653D01*
X350023Y347672D01*
X350089Y347736D01*
X350161Y347794D01*
X350184Y347829D01*
X350213Y347858D01*
X350257Y347939D01*
X350308Y348016D01*
X350315Y348046D01*
X350340Y348091D01*
X350391Y348352D01*
X350388Y348372D01*
X350392Y348392D01*
X350392Y363316D01*
X350378Y363407D01*
X350373Y363499D01*
X350359Y363538D01*
X350352Y363578D01*
X350312Y363661D01*
X350280Y363748D01*
X350255Y363781D01*
X350237Y363818D01*
X350174Y363885D01*
X350117Y363958D01*
X350084Y363982D01*
X350055Y364012D01*
X349975Y364058D01*
X349900Y364111D01*
X349860Y364124D01*
X349825Y364144D01*
X349734Y364164D01*
X349647Y364192D01*
X349605Y364193D01*
X349565Y364202D01*
X349473Y364194D01*
X349381Y364195D01*
X349341Y364183D01*
X349300Y364180D01*
X349215Y364146D01*
X349126Y364119D01*
X349092Y364096D01*
X349053Y364081D01*
X348982Y364023D01*
X348905Y363971D01*
X348887Y363946D01*
X348847Y363914D01*
X348700Y363692D01*
X348695Y363672D01*
X348683Y363655D01*
X348358Y362870D01*
X345536Y360048D01*
X341848Y358520D01*
X337856Y358520D01*
X334168Y360048D01*
X331346Y362870D01*
X329818Y366558D01*
X329818Y370550D01*
X331346Y374238D01*
X334168Y377060D01*
X337856Y378588D01*
X341848Y378588D01*
X345536Y377060D01*
X348358Y374238D01*
X348683Y373453D01*
X348714Y373402D01*
X348722Y373381D01*
X348735Y373365D01*
X348771Y373290D01*
X348799Y373260D01*
X348821Y373225D01*
X348890Y373164D01*
X348953Y373096D01*
X348988Y373076D01*
X349019Y373048D01*
X349103Y373010D01*
X349183Y372964D01*
X349224Y372955D01*
X349261Y372938D01*
X349353Y372926D01*
X349443Y372906D01*
X349484Y372910D01*
X349525Y372904D01*
X349616Y372920D01*
X349708Y372928D01*
X349746Y372943D01*
X349787Y372950D01*
X349869Y372992D01*
X349955Y373027D01*
X349987Y373053D01*
X350023Y373072D01*
X350089Y373136D01*
X350161Y373194D01*
X350184Y373229D01*
X350213Y373258D01*
X350257Y373339D01*
X350308Y373416D01*
X350315Y373446D01*
X350340Y373491D01*
X350391Y373752D01*
X350389Y373765D01*
X350390Y373770D01*
X350389Y373780D01*
X350392Y373792D01*
X350392Y388716D01*
X350378Y388807D01*
X350373Y388899D01*
X350359Y388938D01*
X350352Y388978D01*
X350312Y389061D01*
X350280Y389148D01*
X350255Y389181D01*
X350237Y389218D01*
X350174Y389285D01*
X350117Y389358D01*
X350084Y389382D01*
X350055Y389412D01*
X349975Y389458D01*
X349900Y389511D01*
X349860Y389524D01*
X349825Y389544D01*
X349734Y389564D01*
X349647Y389592D01*
X349605Y389593D01*
X349565Y389602D01*
X349473Y389594D01*
X349381Y389595D01*
X349341Y389583D01*
X349300Y389580D01*
X349215Y389546D01*
X349126Y389519D01*
X349092Y389496D01*
X349053Y389481D01*
X348982Y389423D01*
X348905Y389371D01*
X348887Y389346D01*
X348847Y389314D01*
X348700Y389092D01*
X348695Y389072D01*
X348683Y389055D01*
X348358Y388270D01*
X345536Y385448D01*
X341848Y383920D01*
X337856Y383920D01*
X334168Y385448D01*
X331346Y388270D01*
X330376Y390611D01*
X330344Y390664D01*
X330321Y390722D01*
X330276Y390777D01*
X330239Y390839D01*
X330193Y390880D01*
X330154Y390928D01*
X330094Y390968D01*
X330040Y391015D01*
X329984Y391041D01*
X329932Y391075D01*
X329885Y391086D01*
X329799Y391125D01*
X329586Y391152D01*
X329556Y391159D01*
X284482Y391159D01*
X284461Y391156D01*
X284440Y391158D01*
X284330Y391136D01*
X284219Y391119D01*
X284200Y391110D01*
X284179Y391106D01*
X284141Y391082D01*
X283979Y391004D01*
X283897Y390927D01*
X283853Y390899D01*
X207492Y314538D01*
X207462Y314497D01*
X207424Y314461D01*
X207383Y314390D01*
X207335Y314324D01*
X207318Y314275D01*
X207292Y314231D01*
X207274Y314151D01*
X207247Y314073D01*
X207246Y314021D01*
X207234Y313971D01*
X207241Y313889D01*
X207238Y313807D01*
X207252Y313758D01*
X207256Y313706D01*
X207286Y313630D01*
X207308Y313551D01*
X207336Y313507D01*
X207355Y313459D01*
X207407Y313396D01*
X207451Y313327D01*
X207490Y313293D01*
X207523Y313253D01*
X207591Y313208D01*
X207653Y313155D01*
X207701Y313134D01*
X207744Y313106D01*
X207794Y313094D01*
X207898Y313050D01*
X208076Y313032D01*
X208120Y313022D01*
X211963Y313022D01*
X211963Y308893D01*
X204659Y308893D01*
X204659Y309561D01*
X204652Y309612D01*
X204653Y309663D01*
X204632Y309742D01*
X204619Y309823D01*
X204597Y309870D01*
X204583Y309920D01*
X204539Y309989D01*
X204504Y310063D01*
X204469Y310100D01*
X204441Y310144D01*
X204378Y310197D01*
X204322Y310257D01*
X204278Y310283D01*
X204238Y310316D01*
X204163Y310348D01*
X204092Y310389D01*
X204041Y310400D01*
X203994Y310420D01*
X203912Y310429D01*
X203832Y310447D01*
X203781Y310442D01*
X203729Y310448D01*
X203649Y310432D01*
X203567Y310425D01*
X203519Y310406D01*
X203469Y310396D01*
X203425Y310368D01*
X203320Y310326D01*
X203181Y310213D01*
X203143Y310189D01*
X202191Y309237D01*
X202178Y309220D01*
X202162Y309206D01*
X202100Y309113D01*
X202033Y309023D01*
X202026Y309003D01*
X202015Y308985D01*
X202005Y308941D01*
X201946Y308771D01*
X201942Y308659D01*
X201931Y308608D01*
X201931Y218806D01*
X200034Y216909D01*
X200033Y216909D01*
X186189Y203065D01*
X186176Y203048D01*
X186160Y203034D01*
X186098Y202941D01*
X186031Y202851D01*
X186024Y202831D01*
X186013Y202813D01*
X186003Y202769D01*
X185944Y202600D01*
X185941Y202504D01*
X185931Y202460D01*
X185932Y202450D01*
X185929Y202436D01*
X185929Y199931D01*
X183101Y197103D01*
X179103Y197103D01*
X176275Y199931D01*
X176275Y203929D01*
X179103Y206757D01*
X181608Y206757D01*
X181629Y206760D01*
X181650Y206758D01*
X181760Y206780D01*
X181871Y206797D01*
X181890Y206806D01*
X181911Y206810D01*
X181949Y206834D01*
X182111Y206912D01*
X182193Y206989D01*
X182237Y207017D01*
X196081Y220861D01*
X196094Y220878D01*
X196110Y220892D01*
X196172Y220985D01*
X196239Y221075D01*
X196246Y221095D01*
X196257Y221113D01*
X196267Y221157D01*
X196326Y221326D01*
X196330Y221439D01*
X196341Y221490D01*
X196341Y311292D01*
X281798Y396749D01*
X329556Y396749D01*
X329617Y396758D01*
X329679Y396757D01*
X329748Y396778D01*
X329818Y396789D01*
X329874Y396816D01*
X329934Y396833D01*
X329993Y396873D01*
X330058Y396904D01*
X330103Y396947D01*
X330155Y396981D01*
X330182Y397020D01*
X330252Y397086D01*
X330358Y397272D01*
X330376Y397297D01*
X331346Y399638D01*
X334168Y402460D01*
X337856Y403988D01*
X341848Y403988D01*
X345536Y402460D01*
X348358Y399638D01*
X348683Y398853D01*
X348731Y398773D01*
X348771Y398690D01*
X348799Y398660D01*
X348821Y398625D01*
X348890Y398564D01*
X348953Y398496D01*
X348988Y398476D01*
X349019Y398448D01*
X349103Y398410D01*
X349183Y398364D01*
X349224Y398355D01*
X349261Y398338D01*
X349353Y398326D01*
X349443Y398306D01*
X349484Y398310D01*
X349525Y398304D01*
X349616Y398320D01*
X349708Y398328D01*
X349746Y398343D01*
X349787Y398350D01*
X349869Y398392D01*
X349955Y398427D01*
X349987Y398453D01*
X350023Y398472D01*
X350089Y398536D01*
X350161Y398594D01*
X350184Y398629D01*
X350213Y398658D01*
X350257Y398739D01*
X350308Y398816D01*
X350315Y398846D01*
X350340Y398891D01*
X350391Y399152D01*
X350388Y399172D01*
X350392Y399192D01*
X350392Y451104D01*
X350377Y451206D01*
X350369Y451308D01*
X350357Y451336D01*
X350352Y451367D01*
X350308Y451459D01*
X350270Y451555D01*
X350250Y451578D01*
X350237Y451606D01*
X350167Y451681D01*
X350102Y451761D01*
X350076Y451778D01*
X350055Y451800D01*
X349966Y451851D01*
X349881Y451908D01*
X349857Y451914D01*
X349825Y451932D01*
X349565Y451990D01*
X349527Y451987D01*
X349504Y451992D01*
X6096Y451992D01*
X5994Y451977D01*
X5892Y451969D01*
X5864Y451957D01*
X5833Y451952D01*
X5741Y451908D01*
X5645Y451870D01*
X5622Y451850D01*
X5594Y451837D01*
X5519Y451767D01*
X5439Y451702D01*
X5422Y451676D01*
X5400Y451655D01*
X5349Y451566D01*
X5292Y451481D01*
X5286Y451457D01*
X5268Y451425D01*
X5210Y451165D01*
X5213Y451127D01*
X5208Y451104D01*
X5208Y151843D01*
X5222Y151747D01*
X5229Y151649D01*
X5242Y151616D01*
X5248Y151580D01*
X5290Y151492D01*
X5325Y151401D01*
X5348Y151373D01*
X5363Y151341D01*
X5430Y151269D01*
X5490Y151193D01*
X5520Y151173D01*
X5545Y151146D01*
X5629Y151098D01*
X5710Y151043D01*
X5744Y151032D01*
X5775Y151015D01*
X5871Y150993D01*
X5964Y150965D01*
X6000Y150965D01*
X6035Y150957D01*
X6132Y150965D01*
X6230Y150965D01*
X6255Y150975D01*
X6300Y150978D01*
X6547Y151077D01*
X6571Y151097D01*
X6589Y151104D01*
X7713Y151855D01*
X9331Y152525D01*
X10352Y152728D01*
X10428Y152651D01*
X10512Y152561D01*
X10521Y152555D01*
X10528Y152548D01*
X10636Y152490D01*
X10742Y152429D01*
X10753Y152426D01*
X10762Y152421D01*
X10882Y152398D01*
X11002Y152371D01*
X11012Y152372D01*
X11023Y152370D01*
X11054Y152375D01*
X11267Y152393D01*
X11355Y152428D01*
X11403Y152436D01*
X11617Y152525D01*
X12958Y152792D01*
X12973Y152797D01*
X12989Y152799D01*
X13061Y152827D01*
X13130Y152812D01*
X13176Y152792D01*
X14291Y152570D01*
X14556Y152558D01*
X14606Y152571D01*
X14637Y152570D01*
X15244Y152691D01*
X15259Y152696D01*
X15275Y152698D01*
X15384Y152741D01*
X15494Y152781D01*
X15507Y152791D01*
X15515Y152794D01*
X15699Y152785D01*
X15722Y152791D01*
X15822Y152734D01*
X15924Y152711D01*
X15970Y152691D01*
X16803Y152525D01*
X17525Y152226D01*
X17535Y152224D01*
X17544Y152218D01*
X17664Y152192D01*
X17783Y152162D01*
X17794Y152163D01*
X17804Y152161D01*
X17926Y152171D01*
X18048Y152178D01*
X18058Y152181D01*
X18069Y152182D01*
X18183Y152228D01*
X18297Y152271D01*
X18306Y152277D01*
X18316Y152281D01*
X18412Y152359D01*
X18508Y152434D01*
X18514Y152442D01*
X18522Y152449D01*
X18590Y152551D01*
X18660Y152651D01*
X18664Y152661D01*
X18669Y152670D01*
X18676Y152700D01*
X18679Y152708D01*
X19597Y152525D01*
X21215Y151855D01*
X22672Y150882D01*
X23910Y149644D01*
X24883Y148187D01*
X25553Y146569D01*
X25721Y145725D01*
X17865Y145725D01*
X17764Y145710D01*
X17661Y145702D01*
X17633Y145690D01*
X17602Y145685D01*
X17510Y145641D01*
X17415Y145603D01*
X17391Y145583D01*
X17363Y145570D01*
X17288Y145500D01*
X17208Y145435D01*
X17191Y145409D01*
X17169Y145388D01*
X17118Y145299D01*
X17061Y145214D01*
X17056Y145190D01*
X17037Y145158D01*
X17008Y145029D01*
X17007Y145041D01*
X16996Y145069D01*
X16991Y145100D01*
X16947Y145192D01*
X16908Y145288D01*
X16889Y145311D01*
X16876Y145339D01*
X16805Y145414D01*
X16741Y145494D01*
X16715Y145511D01*
X16694Y145533D01*
X16605Y145584D01*
X16520Y145641D01*
X16496Y145647D01*
X16463Y145665D01*
X16204Y145723D01*
X16166Y145720D01*
X16143Y145725D01*
X15071Y145725D01*
X14970Y145710D01*
X14867Y145702D01*
X14839Y145690D01*
X14808Y145685D01*
X14716Y145641D01*
X14621Y145603D01*
X14597Y145583D01*
X14569Y145570D01*
X14494Y145500D01*
X14414Y145435D01*
X14397Y145409D01*
X14375Y145388D01*
X14324Y145299D01*
X14267Y145214D01*
X14262Y145190D01*
X14243Y145158D01*
X14214Y145029D01*
X14213Y145041D01*
X14202Y145069D01*
X14197Y145100D01*
X14153Y145192D01*
X14114Y145288D01*
X14095Y145311D01*
X14082Y145339D01*
X14011Y145414D01*
X13947Y145494D01*
X13921Y145511D01*
X13900Y145533D01*
X13811Y145584D01*
X13726Y145641D01*
X13702Y145647D01*
X13669Y145665D01*
X13410Y145723D01*
X13372Y145720D01*
X13349Y145725D01*
X12785Y145725D01*
X12684Y145710D01*
X12581Y145702D01*
X12553Y145690D01*
X12522Y145685D01*
X12430Y145641D01*
X12335Y145603D01*
X12311Y145583D01*
X12283Y145570D01*
X12208Y145500D01*
X12128Y145435D01*
X12111Y145409D01*
X12089Y145388D01*
X12038Y145299D01*
X11981Y145214D01*
X11976Y145190D01*
X11957Y145158D01*
X11928Y145029D01*
X11927Y145041D01*
X11916Y145069D01*
X11911Y145100D01*
X11867Y145192D01*
X11828Y145288D01*
X11809Y145311D01*
X11796Y145339D01*
X11725Y145414D01*
X11661Y145494D01*
X11635Y145511D01*
X11614Y145533D01*
X11525Y145584D01*
X11440Y145641D01*
X11416Y145647D01*
X11383Y145665D01*
X11124Y145723D01*
X11086Y145720D01*
X11063Y145725D01*
X6096Y145725D01*
X5994Y145710D01*
X5892Y145702D01*
X5864Y145690D01*
X5833Y145685D01*
X5741Y145641D01*
X5645Y145603D01*
X5622Y145583D01*
X5594Y145570D01*
X5519Y145500D01*
X5439Y145435D01*
X5422Y145409D01*
X5400Y145388D01*
X5349Y145299D01*
X5292Y145214D01*
X5286Y145190D01*
X5268Y145158D01*
X5210Y144898D01*
X5213Y144860D01*
X5208Y144837D01*
X5208Y143115D01*
X5223Y143013D01*
X5231Y142911D01*
X5243Y142883D01*
X5248Y142852D01*
X5292Y142760D01*
X5330Y142664D01*
X5350Y142641D01*
X5363Y142613D01*
X5433Y142538D01*
X5498Y142458D01*
X5524Y142441D01*
X5545Y142419D01*
X5634Y142368D01*
X5719Y142311D01*
X5743Y142305D01*
X5775Y142287D01*
X6035Y142229D01*
X6073Y142232D01*
X6096Y142227D01*
X11063Y142227D01*
X11164Y142242D01*
X11267Y142250D01*
X11295Y142262D01*
X11326Y142266D01*
X11418Y142311D01*
X11513Y142349D01*
X11537Y142369D01*
X11565Y142382D01*
X11640Y142452D01*
X11720Y142517D01*
X11737Y142543D01*
X11759Y142564D01*
X11810Y142653D01*
X11867Y142738D01*
X11872Y142762D01*
X11891Y142794D01*
X11920Y142923D01*
X11921Y142911D01*
X11932Y142883D01*
X11937Y142852D01*
X11981Y142760D01*
X12020Y142664D01*
X12039Y142641D01*
X12052Y142613D01*
X12123Y142538D01*
X12187Y142458D01*
X12213Y142441D01*
X12234Y142419D01*
X12323Y142368D01*
X12408Y142311D01*
X12432Y142305D01*
X12465Y142287D01*
X12724Y142229D01*
X12762Y142232D01*
X12785Y142227D01*
X13349Y142227D01*
X13450Y142242D01*
X13553Y142250D01*
X13581Y142262D01*
X13612Y142266D01*
X13704Y142311D01*
X13799Y142349D01*
X13823Y142369D01*
X13851Y142382D01*
X13926Y142452D01*
X14006Y142517D01*
X14023Y142543D01*
X14045Y142564D01*
X14096Y142653D01*
X14153Y142738D01*
X14158Y142762D01*
X14177Y142794D01*
X14206Y142923D01*
X14207Y142911D01*
X14218Y142883D01*
X14223Y142852D01*
X14267Y142760D01*
X14306Y142664D01*
X14325Y142641D01*
X14338Y142613D01*
X14409Y142538D01*
X14473Y142458D01*
X14499Y142441D01*
X14520Y142419D01*
X14609Y142368D01*
X14694Y142311D01*
X14718Y142305D01*
X14751Y142287D01*
X15010Y142229D01*
X15048Y142232D01*
X15071Y142227D01*
X16143Y142227D01*
X16244Y142242D01*
X16347Y142250D01*
X16375Y142262D01*
X16406Y142266D01*
X16498Y142311D01*
X16593Y142349D01*
X16617Y142369D01*
X16645Y142382D01*
X16720Y142452D01*
X16800Y142517D01*
X16817Y142543D01*
X16839Y142564D01*
X16890Y142653D01*
X16947Y142738D01*
X16952Y142762D01*
X16971Y142794D01*
X17000Y142923D01*
X17001Y142911D01*
X17012Y142883D01*
X17017Y142852D01*
X17061Y142760D01*
X17100Y142664D01*
X17119Y142641D01*
X17132Y142613D01*
X17203Y142538D01*
X17267Y142458D01*
X17293Y142441D01*
X17314Y142419D01*
X17403Y142368D01*
X17488Y142311D01*
X17512Y142305D01*
X17545Y142287D01*
X17804Y142229D01*
X17842Y142232D01*
X17865Y142227D01*
X25721Y142227D01*
X25553Y141383D01*
X24883Y139765D01*
X23910Y138308D01*
X22672Y137070D01*
X21215Y136097D01*
X19597Y135427D01*
X18678Y135244D01*
X18651Y135297D01*
X18638Y135324D01*
X18631Y135343D01*
X18627Y135347D01*
X18598Y135407D01*
X18591Y135415D01*
X18586Y135424D01*
X18500Y135512D01*
X18416Y135602D01*
X18407Y135607D01*
X18400Y135614D01*
X18292Y135673D01*
X18186Y135734D01*
X18175Y135736D01*
X18166Y135741D01*
X18046Y135765D01*
X17926Y135791D01*
X17916Y135791D01*
X17905Y135793D01*
X17875Y135787D01*
X17661Y135770D01*
X17599Y135745D01*
X17571Y135741D01*
X17549Y135730D01*
X17525Y135726D01*
X16803Y135427D01*
X15970Y135261D01*
X15955Y135256D01*
X15939Y135254D01*
X15830Y135211D01*
X15720Y135171D01*
X15707Y135161D01*
X15699Y135158D01*
X15515Y135167D01*
X15492Y135161D01*
X15392Y135218D01*
X15290Y135241D01*
X15244Y135261D01*
X14637Y135382D01*
X14372Y135394D01*
X14322Y135381D01*
X14291Y135382D01*
X13176Y135160D01*
X13161Y135155D01*
X13145Y135153D01*
X13073Y135125D01*
X13004Y135140D01*
X12958Y135160D01*
X11617Y135427D01*
X11403Y135516D01*
X11393Y135518D01*
X11384Y135523D01*
X11264Y135550D01*
X11145Y135579D01*
X11134Y135579D01*
X11124Y135581D01*
X11002Y135571D01*
X10880Y135564D01*
X10870Y135560D01*
X10859Y135559D01*
X10745Y135514D01*
X10631Y135471D01*
X10622Y135464D01*
X10612Y135460D01*
X10516Y135382D01*
X10420Y135308D01*
X10414Y135300D01*
X10406Y135293D01*
X10359Y135222D01*
X9331Y135427D01*
X7713Y136097D01*
X6589Y136848D01*
X6501Y136889D01*
X6417Y136937D01*
X6381Y136945D01*
X6349Y136961D01*
X6252Y136974D01*
X6157Y136995D01*
X6121Y136992D01*
X6086Y136997D01*
X5989Y136982D01*
X5892Y136974D01*
X5859Y136960D01*
X5823Y136954D01*
X5736Y136911D01*
X5645Y136875D01*
X5617Y136852D01*
X5585Y136836D01*
X5515Y136769D01*
X5439Y136707D01*
X5419Y136677D01*
X5393Y136652D01*
X5346Y136567D01*
X5292Y136486D01*
X5286Y136459D01*
X5264Y136420D01*
X5209Y136160D01*
X5212Y136129D01*
X5208Y136109D01*
X5208Y81739D01*
X5222Y81643D01*
X5229Y81545D01*
X5242Y81512D01*
X5248Y81476D01*
X5290Y81388D01*
X5325Y81297D01*
X5348Y81269D01*
X5363Y81237D01*
X5430Y81165D01*
X5490Y81089D01*
X5520Y81069D01*
X5545Y81042D01*
X5629Y80994D01*
X5710Y80939D01*
X5744Y80928D01*
X5775Y80911D01*
X5871Y80889D01*
X5964Y80861D01*
X6000Y80861D01*
X6035Y80853D01*
X6132Y80861D01*
X6230Y80861D01*
X6255Y80871D01*
X6300Y80874D01*
X6547Y80973D01*
X6571Y80993D01*
X6589Y81000D01*
X7713Y81751D01*
X9331Y82421D01*
X10298Y82613D01*
X10330Y82546D01*
X10337Y82538D01*
X10342Y82529D01*
X10427Y82442D01*
X10512Y82351D01*
X10521Y82346D01*
X10528Y82339D01*
X10636Y82280D01*
X10742Y82220D01*
X10753Y82217D01*
X10762Y82212D01*
X10882Y82188D01*
X11002Y82162D01*
X11012Y82163D01*
X11023Y82161D01*
X11053Y82166D01*
X11267Y82183D01*
X11355Y82219D01*
X11403Y82227D01*
X11871Y82421D01*
X12958Y82637D01*
X12973Y82643D01*
X12989Y82644D01*
X13098Y82688D01*
X13165Y82712D01*
X13232Y82709D01*
X13282Y82680D01*
X13384Y82658D01*
X13430Y82637D01*
X14291Y82466D01*
X14556Y82454D01*
X14606Y82467D01*
X14637Y82466D01*
X15498Y82637D01*
X15513Y82643D01*
X15529Y82644D01*
X15638Y82688D01*
X15705Y82712D01*
X15772Y82709D01*
X15822Y82680D01*
X15924Y82658D01*
X15970Y82637D01*
X17057Y82421D01*
X17525Y82227D01*
X17535Y82225D01*
X17544Y82220D01*
X17664Y82193D01*
X17783Y82163D01*
X17794Y82164D01*
X17804Y82162D01*
X17926Y82172D01*
X18048Y82179D01*
X18058Y82183D01*
X18069Y82183D01*
X18183Y82229D01*
X18297Y82272D01*
X18306Y82278D01*
X18316Y82282D01*
X18412Y82360D01*
X18508Y82435D01*
X18514Y82443D01*
X18522Y82450D01*
X18590Y82552D01*
X18633Y82613D01*
X19597Y82421D01*
X21215Y81751D01*
X22672Y80778D01*
X23910Y79540D01*
X24883Y78083D01*
X25553Y76465D01*
X25721Y75621D01*
X17865Y75621D01*
X17764Y75606D01*
X17661Y75598D01*
X17633Y75586D01*
X17602Y75581D01*
X17510Y75537D01*
X17415Y75499D01*
X17391Y75479D01*
X17363Y75466D01*
X17288Y75396D01*
X17208Y75331D01*
X17191Y75305D01*
X17169Y75284D01*
X17118Y75195D01*
X17061Y75110D01*
X17056Y75086D01*
X17037Y75054D01*
X17008Y74925D01*
X17007Y74937D01*
X16996Y74965D01*
X16991Y74996D01*
X16947Y75088D01*
X16908Y75184D01*
X16889Y75207D01*
X16876Y75235D01*
X16805Y75310D01*
X16741Y75390D01*
X16715Y75407D01*
X16694Y75429D01*
X16605Y75480D01*
X16520Y75537D01*
X16496Y75543D01*
X16463Y75561D01*
X16204Y75619D01*
X16166Y75616D01*
X16143Y75621D01*
X15325Y75621D01*
X15224Y75606D01*
X15121Y75598D01*
X15093Y75586D01*
X15062Y75581D01*
X14970Y75537D01*
X14875Y75499D01*
X14851Y75479D01*
X14823Y75466D01*
X14748Y75396D01*
X14668Y75331D01*
X14651Y75305D01*
X14629Y75284D01*
X14578Y75195D01*
X14521Y75110D01*
X14516Y75086D01*
X14497Y75054D01*
X14468Y74925D01*
X14467Y74937D01*
X14456Y74965D01*
X14451Y74996D01*
X14407Y75088D01*
X14368Y75184D01*
X14349Y75207D01*
X14336Y75235D01*
X14265Y75310D01*
X14201Y75390D01*
X14175Y75407D01*
X14154Y75429D01*
X14065Y75480D01*
X13980Y75537D01*
X13956Y75543D01*
X13923Y75561D01*
X13664Y75619D01*
X13626Y75616D01*
X13603Y75621D01*
X12785Y75621D01*
X12684Y75606D01*
X12581Y75598D01*
X12553Y75586D01*
X12522Y75581D01*
X12430Y75537D01*
X12335Y75499D01*
X12311Y75479D01*
X12283Y75466D01*
X12208Y75396D01*
X12128Y75331D01*
X12111Y75305D01*
X12089Y75284D01*
X12038Y75195D01*
X11981Y75110D01*
X11976Y75086D01*
X11957Y75054D01*
X11928Y74925D01*
X11927Y74937D01*
X11916Y74965D01*
X11911Y74996D01*
X11867Y75088D01*
X11828Y75184D01*
X11809Y75207D01*
X11796Y75235D01*
X11725Y75310D01*
X11661Y75390D01*
X11635Y75407D01*
X11614Y75429D01*
X11525Y75480D01*
X11440Y75537D01*
X11416Y75543D01*
X11383Y75561D01*
X11124Y75619D01*
X11086Y75616D01*
X11063Y75621D01*
X6096Y75621D01*
X5994Y75606D01*
X5892Y75598D01*
X5864Y75586D01*
X5833Y75581D01*
X5741Y75537D01*
X5645Y75499D01*
X5622Y75479D01*
X5594Y75466D01*
X5519Y75396D01*
X5439Y75331D01*
X5422Y75305D01*
X5400Y75284D01*
X5349Y75195D01*
X5292Y75110D01*
X5286Y75086D01*
X5268Y75054D01*
X5210Y74794D01*
X5213Y74756D01*
X5208Y74733D01*
X5208Y73011D01*
X5223Y72909D01*
X5231Y72807D01*
X5243Y72779D01*
X5248Y72748D01*
X5292Y72656D01*
X5330Y72560D01*
X5350Y72537D01*
X5363Y72509D01*
X5433Y72434D01*
X5498Y72354D01*
X5524Y72337D01*
X5545Y72315D01*
X5634Y72264D01*
X5719Y72207D01*
X5743Y72201D01*
X5775Y72183D01*
X6035Y72125D01*
X6073Y72128D01*
X6096Y72123D01*
X11063Y72123D01*
X11164Y72138D01*
X11267Y72146D01*
X11295Y72158D01*
X11326Y72162D01*
X11418Y72207D01*
X11513Y72245D01*
X11537Y72265D01*
X11565Y72278D01*
X11640Y72348D01*
X11720Y72413D01*
X11737Y72439D01*
X11759Y72460D01*
X11810Y72549D01*
X11867Y72634D01*
X11872Y72658D01*
X11891Y72690D01*
X11920Y72819D01*
X11921Y72807D01*
X11932Y72779D01*
X11937Y72748D01*
X11981Y72656D01*
X12020Y72560D01*
X12039Y72537D01*
X12052Y72509D01*
X12123Y72434D01*
X12187Y72354D01*
X12213Y72337D01*
X12234Y72315D01*
X12323Y72264D01*
X12408Y72207D01*
X12432Y72201D01*
X12465Y72183D01*
X12724Y72125D01*
X12762Y72128D01*
X12785Y72123D01*
X13603Y72123D01*
X13704Y72138D01*
X13807Y72146D01*
X13835Y72158D01*
X13866Y72162D01*
X13958Y72207D01*
X14053Y72245D01*
X14077Y72265D01*
X14105Y72278D01*
X14180Y72348D01*
X14260Y72413D01*
X14277Y72439D01*
X14299Y72460D01*
X14350Y72549D01*
X14407Y72634D01*
X14412Y72658D01*
X14431Y72690D01*
X14460Y72819D01*
X14461Y72807D01*
X14472Y72779D01*
X14477Y72748D01*
X14521Y72656D01*
X14560Y72560D01*
X14579Y72537D01*
X14592Y72509D01*
X14663Y72434D01*
X14727Y72354D01*
X14753Y72337D01*
X14774Y72315D01*
X14863Y72264D01*
X14948Y72207D01*
X14972Y72201D01*
X15005Y72183D01*
X15264Y72125D01*
X15302Y72128D01*
X15325Y72123D01*
X16143Y72123D01*
X16244Y72138D01*
X16347Y72146D01*
X16375Y72158D01*
X16406Y72162D01*
X16498Y72207D01*
X16593Y72245D01*
X16617Y72265D01*
X16645Y72278D01*
X16720Y72348D01*
X16800Y72413D01*
X16817Y72439D01*
X16839Y72460D01*
X16890Y72549D01*
X16947Y72634D01*
X16952Y72658D01*
X16971Y72690D01*
X17000Y72819D01*
X17001Y72807D01*
X17012Y72779D01*
X17017Y72748D01*
X17061Y72656D01*
X17100Y72560D01*
X17119Y72537D01*
X17132Y72509D01*
X17203Y72434D01*
X17267Y72354D01*
X17293Y72337D01*
X17314Y72315D01*
X17403Y72264D01*
X17488Y72207D01*
X17512Y72201D01*
X17545Y72183D01*
X17804Y72125D01*
X17842Y72128D01*
X17865Y72123D01*
X25721Y72123D01*
X25553Y71279D01*
X24883Y69661D01*
X23910Y68204D01*
X22672Y66966D01*
X21215Y65993D01*
X19597Y65323D01*
X18630Y65131D01*
X18598Y65198D01*
X18591Y65206D01*
X18586Y65215D01*
X18500Y65302D01*
X18416Y65393D01*
X18407Y65398D01*
X18400Y65405D01*
X18292Y65464D01*
X18186Y65524D01*
X18175Y65527D01*
X18166Y65532D01*
X18046Y65556D01*
X17926Y65582D01*
X17916Y65581D01*
X17905Y65583D01*
X17875Y65578D01*
X17661Y65561D01*
X17573Y65525D01*
X17525Y65517D01*
X17057Y65323D01*
X15970Y65107D01*
X15955Y65101D01*
X15939Y65100D01*
X15830Y65056D01*
X15763Y65032D01*
X15696Y65035D01*
X15646Y65064D01*
X15544Y65086D01*
X15498Y65107D01*
X14637Y65278D01*
X14372Y65290D01*
X14322Y65277D01*
X14291Y65278D01*
X13430Y65107D01*
X13415Y65101D01*
X13399Y65100D01*
X13290Y65056D01*
X13223Y65032D01*
X13156Y65035D01*
X13106Y65064D01*
X13004Y65086D01*
X12958Y65107D01*
X11871Y65323D01*
X11403Y65517D01*
X11393Y65519D01*
X11384Y65524D01*
X11264Y65551D01*
X11145Y65581D01*
X11134Y65580D01*
X11124Y65582D01*
X11002Y65572D01*
X10879Y65565D01*
X10870Y65561D01*
X10859Y65561D01*
X10745Y65515D01*
X10631Y65472D01*
X10622Y65466D01*
X10612Y65462D01*
X10517Y65384D01*
X10420Y65309D01*
X10414Y65301D01*
X10406Y65294D01*
X10338Y65192D01*
X10295Y65131D01*
X9331Y65323D01*
X7713Y65993D01*
X6589Y66744D01*
X6501Y66785D01*
X6417Y66833D01*
X6381Y66841D01*
X6349Y66857D01*
X6252Y66870D01*
X6157Y66891D01*
X6121Y66888D01*
X6086Y66893D01*
X5989Y66878D01*
X5892Y66870D01*
X5859Y66856D01*
X5823Y66850D01*
X5736Y66807D01*
X5645Y66771D01*
X5617Y66748D01*
X5585Y66732D01*
X5515Y66665D01*
X5439Y66603D01*
X5419Y66573D01*
X5393Y66548D01*
X5346Y66463D01*
X5292Y66382D01*
X5286Y66355D01*
X5264Y66316D01*
X5209Y66056D01*
X5212Y66025D01*
X5208Y66005D01*
X5208Y41651D01*
X5219Y41580D01*
X5219Y41508D01*
X5238Y41449D01*
X5248Y41388D01*
X5279Y41324D01*
X5301Y41255D01*
X5336Y41205D01*
X5363Y41149D01*
X5412Y41096D01*
X5454Y41037D01*
X5503Y41000D01*
X5545Y40955D01*
X5607Y40919D01*
X5664Y40875D01*
X5722Y40853D01*
X5775Y40823D01*
X5846Y40807D01*
X5913Y40782D01*
X5975Y40778D01*
X6035Y40765D01*
X6107Y40771D01*
X6179Y40767D01*
X6238Y40782D01*
X6300Y40787D01*
X6367Y40814D01*
X6437Y40831D01*
X6472Y40856D01*
X6547Y40886D01*
X6751Y41052D01*
X6752Y41053D01*
X10486Y45149D01*
X18628Y49203D01*
X27683Y50042D01*
X36431Y47553D01*
X43688Y42072D01*
X48476Y34340D01*
X50147Y25400D01*
X48476Y16460D01*
X43688Y8728D01*
X41142Y6805D01*
X41063Y6724D01*
X40981Y6647D01*
X40971Y6629D01*
X40956Y6615D01*
X40905Y6514D01*
X40849Y6417D01*
X40844Y6396D01*
X40835Y6378D01*
X40816Y6267D01*
X40791Y6157D01*
X40793Y6137D01*
X40789Y6116D01*
X40804Y6004D01*
X40813Y5892D01*
X40820Y5873D01*
X40823Y5853D01*
X40870Y5750D01*
X40912Y5645D01*
X40925Y5629D01*
X40933Y5611D01*
X41008Y5527D01*
X41079Y5439D01*
X41097Y5428D01*
X41110Y5412D01*
X41206Y5354D01*
X41300Y5292D01*
X41316Y5288D01*
X41338Y5275D01*
X41596Y5211D01*
X41647Y5214D01*
X41677Y5208D01*
X90678Y5208D01*
X90780Y5223D01*
G37*
%LPC*%
G36*
X255049Y63499D02*
X255049Y63499D01*
X252221Y66327D01*
X252221Y70325D01*
X255049Y73153D01*
X256836Y73153D01*
X256857Y73156D01*
X256878Y73154D01*
X256988Y73176D01*
X257099Y73193D01*
X257118Y73202D01*
X257138Y73206D01*
X257177Y73230D01*
X257338Y73308D01*
X257421Y73385D01*
X257464Y73413D01*
X269995Y85944D01*
X270008Y85961D01*
X270024Y85974D01*
X270086Y86068D01*
X270153Y86158D01*
X270160Y86178D01*
X270171Y86195D01*
X270181Y86240D01*
X270240Y86409D01*
X270244Y86522D01*
X270255Y86572D01*
X270255Y161717D01*
X270248Y161768D01*
X270249Y161820D01*
X270228Y161899D01*
X270215Y161980D01*
X270193Y162026D01*
X270179Y162076D01*
X270135Y162145D01*
X270100Y162219D01*
X270064Y162257D01*
X270037Y162300D01*
X269974Y162353D01*
X269918Y162413D01*
X269873Y162439D01*
X269834Y162472D01*
X269759Y162505D01*
X269688Y162545D01*
X269637Y162556D01*
X269589Y162577D01*
X269508Y162585D01*
X269428Y162603D01*
X269376Y162599D01*
X269325Y162604D01*
X269245Y162588D01*
X269163Y162581D01*
X269115Y162562D01*
X269101Y162559D01*
X264955Y162559D01*
X262127Y165387D01*
X262127Y169163D01*
X262120Y169213D01*
X262121Y169265D01*
X262100Y169344D01*
X262087Y169425D01*
X262065Y169472D01*
X262051Y169522D01*
X262007Y169591D01*
X261972Y169665D01*
X261937Y169702D01*
X261909Y169746D01*
X261846Y169799D01*
X261790Y169859D01*
X261746Y169885D01*
X261706Y169918D01*
X261631Y169950D01*
X261560Y169991D01*
X261509Y170002D01*
X261462Y170022D01*
X261380Y170031D01*
X261300Y170049D01*
X261249Y170044D01*
X261197Y170050D01*
X261117Y170034D01*
X261035Y170027D01*
X260987Y170008D01*
X260937Y169998D01*
X260893Y169970D01*
X260788Y169928D01*
X260649Y169815D01*
X260611Y169791D01*
X259087Y168267D01*
X259074Y168250D01*
X259058Y168236D01*
X258996Y168143D01*
X258929Y168053D01*
X258922Y168033D01*
X258911Y168015D01*
X258901Y167971D01*
X258842Y167802D01*
X258838Y167689D01*
X258827Y167638D01*
X258827Y165133D01*
X255999Y162305D01*
X252001Y162305D01*
X249173Y165133D01*
X249173Y169131D01*
X252001Y171959D01*
X254506Y171959D01*
X254527Y171962D01*
X254548Y171960D01*
X254658Y171982D01*
X254769Y171999D01*
X254788Y172008D01*
X254809Y172012D01*
X254847Y172036D01*
X255009Y172114D01*
X255091Y172191D01*
X255135Y172219D01*
X259581Y176665D01*
X259594Y176682D01*
X259610Y176696D01*
X259672Y176789D01*
X259739Y176879D01*
X259746Y176899D01*
X259757Y176917D01*
X259767Y176961D01*
X259826Y177130D01*
X259830Y177243D01*
X259841Y177294D01*
X259841Y331612D01*
X291839Y363609D01*
X291852Y363626D01*
X291868Y363640D01*
X291930Y363733D01*
X291997Y363823D01*
X292004Y363843D01*
X292015Y363861D01*
X292025Y363905D01*
X292084Y364074D01*
X292088Y364187D01*
X292099Y364238D01*
X292099Y366743D01*
X294927Y369571D01*
X298925Y369571D01*
X301753Y366743D01*
X301753Y362745D01*
X298925Y359917D01*
X296420Y359917D01*
X296399Y359914D01*
X296378Y359916D01*
X296268Y359894D01*
X296157Y359877D01*
X296138Y359868D01*
X296117Y359864D01*
X296079Y359840D01*
X295917Y359762D01*
X295835Y359685D01*
X295791Y359657D01*
X265691Y329557D01*
X265678Y329540D01*
X265662Y329526D01*
X265600Y329433D01*
X265533Y329343D01*
X265526Y329323D01*
X265515Y329305D01*
X265505Y329261D01*
X265446Y329092D01*
X265442Y328979D01*
X265431Y328928D01*
X265431Y325375D01*
X265438Y325325D01*
X265437Y325273D01*
X265458Y325194D01*
X265471Y325113D01*
X265493Y325066D01*
X265507Y325016D01*
X265551Y324947D01*
X265586Y324873D01*
X265621Y324836D01*
X265649Y324792D01*
X265712Y324739D01*
X265768Y324679D01*
X265812Y324653D01*
X265852Y324620D01*
X265927Y324588D01*
X265998Y324547D01*
X266049Y324536D01*
X266096Y324516D01*
X266178Y324507D01*
X266258Y324489D01*
X266309Y324494D01*
X266361Y324488D01*
X266441Y324504D01*
X266523Y324511D01*
X266571Y324530D01*
X266621Y324540D01*
X266665Y324568D01*
X266770Y324610D01*
X266909Y324723D01*
X266947Y324747D01*
X291585Y349385D01*
X291598Y349402D01*
X291614Y349416D01*
X291676Y349509D01*
X291743Y349599D01*
X291750Y349619D01*
X291761Y349637D01*
X291771Y349681D01*
X291830Y349850D01*
X291834Y349963D01*
X291845Y350014D01*
X291845Y352519D01*
X294673Y355347D01*
X298671Y355347D01*
X301499Y352519D01*
X301499Y348521D01*
X298671Y345693D01*
X296166Y345693D01*
X296145Y345690D01*
X296124Y345692D01*
X296014Y345670D01*
X295903Y345653D01*
X295884Y345644D01*
X295863Y345640D01*
X295825Y345616D01*
X295663Y345538D01*
X295581Y345461D01*
X295537Y345433D01*
X270009Y319905D01*
X269996Y319888D01*
X269980Y319874D01*
X269918Y319781D01*
X269851Y319691D01*
X269844Y319671D01*
X269833Y319653D01*
X269823Y319609D01*
X269764Y319440D01*
X269760Y319327D01*
X269749Y319276D01*
X269749Y315295D01*
X269756Y315244D01*
X269755Y315193D01*
X269776Y315113D01*
X269789Y315032D01*
X269811Y314986D01*
X269825Y314936D01*
X269869Y314867D01*
X269904Y314793D01*
X269940Y314755D01*
X269967Y314712D01*
X270030Y314659D01*
X270086Y314599D01*
X270131Y314573D01*
X270170Y314540D01*
X270245Y314507D01*
X270316Y314467D01*
X270367Y314456D01*
X270414Y314435D01*
X270496Y314427D01*
X270576Y314409D01*
X270627Y314413D01*
X270679Y314408D01*
X270759Y314424D01*
X270841Y314431D01*
X270889Y314450D01*
X270939Y314460D01*
X270983Y314488D01*
X271088Y314530D01*
X271227Y314643D01*
X271265Y314667D01*
X271559Y314961D01*
X275557Y314961D01*
X277248Y313270D01*
X277331Y313209D01*
X277409Y313143D01*
X277437Y313131D01*
X277462Y313112D01*
X277559Y313079D01*
X277653Y313038D01*
X277684Y313035D01*
X277713Y313025D01*
X277815Y313022D01*
X277918Y313011D01*
X277948Y313017D01*
X277979Y313016D01*
X278078Y313043D01*
X278178Y313063D01*
X278198Y313076D01*
X278235Y313086D01*
X278459Y313228D01*
X278484Y313257D01*
X278504Y313270D01*
X280195Y314961D01*
X284193Y314961D01*
X287021Y312133D01*
X287021Y308135D01*
X285249Y306363D01*
X285236Y306346D01*
X285220Y306333D01*
X285158Y306239D01*
X285091Y306149D01*
X285084Y306129D01*
X285073Y306112D01*
X285063Y306067D01*
X285004Y305898D01*
X285000Y305785D01*
X284989Y305735D01*
X284989Y265257D01*
X284992Y265237D01*
X284990Y265216D01*
X285012Y265105D01*
X285029Y264994D01*
X285038Y264976D01*
X285042Y264955D01*
X285066Y264916D01*
X285144Y264755D01*
X285221Y264673D01*
X285249Y264629D01*
X287021Y262857D01*
X287021Y258859D01*
X285249Y257087D01*
X285236Y257070D01*
X285220Y257057D01*
X285158Y256963D01*
X285091Y256873D01*
X285084Y256853D01*
X285073Y256836D01*
X285063Y256791D01*
X285004Y256622D01*
X285000Y256509D01*
X284989Y256459D01*
X284989Y186055D01*
X285004Y185953D01*
X285012Y185851D01*
X285024Y185823D01*
X285029Y185792D01*
X285073Y185700D01*
X285111Y185604D01*
X285131Y185581D01*
X285144Y185553D01*
X285214Y185478D01*
X285279Y185398D01*
X285305Y185381D01*
X285326Y185359D01*
X285415Y185308D01*
X285500Y185251D01*
X285524Y185245D01*
X285556Y185227D01*
X285816Y185169D01*
X285854Y185172D01*
X285877Y185167D01*
X286733Y185167D01*
X289561Y182339D01*
X289561Y178341D01*
X286733Y175513D01*
X282735Y175513D01*
X279907Y178341D01*
X279907Y180846D01*
X279904Y180867D01*
X279906Y180888D01*
X279884Y180998D01*
X279867Y181109D01*
X279858Y181128D01*
X279854Y181149D01*
X279830Y181187D01*
X279752Y181349D01*
X279675Y181431D01*
X279647Y181475D01*
X279399Y181722D01*
X279399Y197785D01*
X279392Y197836D01*
X279393Y197887D01*
X279372Y197967D01*
X279359Y198048D01*
X279337Y198094D01*
X279323Y198144D01*
X279279Y198213D01*
X279244Y198287D01*
X279209Y198325D01*
X279181Y198368D01*
X279118Y198421D01*
X279062Y198481D01*
X279018Y198507D01*
X278978Y198540D01*
X278903Y198573D01*
X278832Y198613D01*
X278781Y198624D01*
X278734Y198645D01*
X278652Y198653D01*
X278572Y198671D01*
X278521Y198667D01*
X278469Y198672D01*
X278389Y198656D01*
X278307Y198649D01*
X278259Y198630D01*
X278209Y198620D01*
X278165Y198592D01*
X278060Y198550D01*
X277921Y198437D01*
X277883Y198413D01*
X277121Y197651D01*
X277108Y197634D01*
X277092Y197621D01*
X277030Y197527D01*
X276963Y197437D01*
X276956Y197417D01*
X276945Y197400D01*
X276935Y197355D01*
X276876Y197186D01*
X276872Y197073D01*
X276861Y197023D01*
X276861Y83468D01*
X262135Y68742D01*
X262122Y68725D01*
X262106Y68712D01*
X262044Y68618D01*
X261977Y68528D01*
X261970Y68508D01*
X261959Y68491D01*
X261949Y68446D01*
X261890Y68277D01*
X261886Y68164D01*
X261875Y68114D01*
X261875Y66327D01*
X259047Y63499D01*
X255049Y63499D01*
G37*
%LPD*%
%LPC*%
G36*
X188501Y103377D02*
X188501Y103377D01*
X185673Y106205D01*
X185673Y110203D01*
X187445Y111975D01*
X187458Y111992D01*
X187474Y112005D01*
X187536Y112099D01*
X187603Y112189D01*
X187610Y112209D01*
X187621Y112226D01*
X187631Y112271D01*
X187690Y112440D01*
X187694Y112553D01*
X187705Y112603D01*
X187705Y141112D01*
X196424Y149831D01*
X204071Y149831D01*
X204173Y149846D01*
X204275Y149854D01*
X204303Y149866D01*
X204334Y149871D01*
X204426Y149915D01*
X204522Y149953D01*
X204545Y149973D01*
X204573Y149986D01*
X204648Y150056D01*
X204728Y150121D01*
X204745Y150147D01*
X204767Y150168D01*
X204818Y150257D01*
X204875Y150342D01*
X204881Y150366D01*
X204899Y150398D01*
X204957Y150658D01*
X204954Y150696D01*
X204959Y150719D01*
X204959Y151273D01*
X205594Y151908D01*
X205655Y151990D01*
X205722Y152069D01*
X205734Y152097D01*
X205752Y152122D01*
X205786Y152219D01*
X205826Y152313D01*
X205829Y152344D01*
X205839Y152373D01*
X205843Y152475D01*
X205854Y152578D01*
X205848Y152608D01*
X205849Y152639D01*
X205822Y152738D01*
X205802Y152838D01*
X205789Y152858D01*
X205779Y152895D01*
X205636Y153119D01*
X205607Y153144D01*
X205594Y153164D01*
X204959Y153799D01*
X204959Y162273D01*
X205594Y162908D01*
X205655Y162990D01*
X205722Y163069D01*
X205734Y163097D01*
X205752Y163122D01*
X205786Y163219D01*
X205826Y163313D01*
X205829Y163344D01*
X205839Y163373D01*
X205843Y163475D01*
X205854Y163578D01*
X205848Y163608D01*
X205849Y163639D01*
X205822Y163738D01*
X205802Y163838D01*
X205789Y163858D01*
X205779Y163895D01*
X205636Y164119D01*
X205607Y164144D01*
X205594Y164164D01*
X204959Y164799D01*
X204959Y165353D01*
X204944Y165455D01*
X204936Y165557D01*
X204924Y165585D01*
X204919Y165616D01*
X204875Y165708D01*
X204837Y165804D01*
X204817Y165827D01*
X204804Y165855D01*
X204734Y165930D01*
X204669Y166010D01*
X204643Y166027D01*
X204622Y166049D01*
X204533Y166100D01*
X204448Y166157D01*
X204424Y166163D01*
X204392Y166181D01*
X204132Y166239D01*
X204094Y166236D01*
X204071Y166241D01*
X188596Y166241D01*
X188575Y166238D01*
X188554Y166240D01*
X188444Y166218D01*
X188333Y166201D01*
X188314Y166192D01*
X188293Y166188D01*
X188255Y166164D01*
X188093Y166086D01*
X188011Y166009D01*
X187967Y165981D01*
X180601Y158615D01*
X180588Y158598D01*
X180572Y158584D01*
X180555Y158559D01*
X180533Y158538D01*
X180492Y158467D01*
X180443Y158401D01*
X180436Y158381D01*
X180425Y158363D01*
X180419Y158340D01*
X180401Y158307D01*
X180383Y158229D01*
X180356Y158150D01*
X180354Y158097D01*
X180343Y158048D01*
X180346Y158011D01*
X180341Y157986D01*
X180341Y112857D01*
X180344Y112837D01*
X180342Y112816D01*
X180364Y112705D01*
X180381Y112594D01*
X180390Y112576D01*
X180394Y112555D01*
X180418Y112516D01*
X180496Y112355D01*
X180573Y112273D01*
X180601Y112229D01*
X182373Y110457D01*
X182373Y106459D01*
X179545Y103631D01*
X175547Y103631D01*
X172719Y106459D01*
X172719Y110457D01*
X174491Y112229D01*
X174504Y112246D01*
X174520Y112259D01*
X174582Y112353D01*
X174649Y112443D01*
X174656Y112463D01*
X174667Y112480D01*
X174677Y112525D01*
X174736Y112694D01*
X174740Y112807D01*
X174751Y112857D01*
X174751Y160670D01*
X185912Y171831D01*
X204071Y171831D01*
X204173Y171846D01*
X204275Y171854D01*
X204303Y171866D01*
X204334Y171871D01*
X204426Y171915D01*
X204522Y171953D01*
X204545Y171973D01*
X204573Y171986D01*
X204648Y172056D01*
X204728Y172121D01*
X204745Y172147D01*
X204767Y172168D01*
X204818Y172257D01*
X204875Y172342D01*
X204881Y172366D01*
X204899Y172398D01*
X204957Y172658D01*
X204954Y172696D01*
X204959Y172719D01*
X204959Y173273D01*
X205056Y173369D01*
X205083Y173406D01*
X205102Y173424D01*
X205121Y173457D01*
X205183Y173530D01*
X205195Y173558D01*
X205213Y173583D01*
X205247Y173680D01*
X205287Y173774D01*
X205291Y173805D01*
X205301Y173834D01*
X205304Y173937D01*
X205315Y174039D01*
X205309Y174069D01*
X205310Y174100D01*
X205283Y174199D01*
X205263Y174300D01*
X205250Y174320D01*
X205240Y174356D01*
X205097Y174581D01*
X205068Y174605D01*
X205056Y174625D01*
X204705Y174976D01*
X204370Y175555D01*
X204197Y176201D01*
X204197Y178287D01*
X212877Y178287D01*
X212978Y178302D01*
X213081Y178310D01*
X213109Y178322D01*
X213140Y178326D01*
X213232Y178371D01*
X213327Y178409D01*
X213351Y178429D01*
X213379Y178442D01*
X213454Y178512D01*
X213534Y178577D01*
X213551Y178603D01*
X213573Y178624D01*
X213624Y178713D01*
X213681Y178798D01*
X213686Y178822D01*
X213705Y178854D01*
X213734Y178983D01*
X213735Y178971D01*
X213746Y178943D01*
X213751Y178912D01*
X213795Y178820D01*
X213834Y178724D01*
X213853Y178701D01*
X213866Y178673D01*
X213937Y178598D01*
X214001Y178518D01*
X214027Y178501D01*
X214048Y178479D01*
X214137Y178428D01*
X214222Y178371D01*
X214246Y178365D01*
X214279Y178347D01*
X214538Y178289D01*
X214576Y178292D01*
X214599Y178287D01*
X223279Y178287D01*
X223279Y176201D01*
X223106Y175555D01*
X222771Y174976D01*
X222420Y174625D01*
X222359Y174542D01*
X222293Y174464D01*
X222281Y174436D01*
X222263Y174411D01*
X222229Y174314D01*
X222189Y174220D01*
X222185Y174189D01*
X222175Y174160D01*
X222172Y174058D01*
X222161Y173955D01*
X222167Y173925D01*
X222166Y173895D01*
X222193Y173795D01*
X222213Y173695D01*
X222226Y173675D01*
X222236Y173638D01*
X222299Y173538D01*
X222305Y173525D01*
X222320Y173506D01*
X222379Y173414D01*
X222408Y173389D01*
X222420Y173369D01*
X222517Y173273D01*
X222517Y166594D01*
X222524Y166543D01*
X222523Y166491D01*
X222544Y166412D01*
X222557Y166331D01*
X222579Y166285D01*
X222593Y166235D01*
X222637Y166166D01*
X222672Y166092D01*
X222707Y166054D01*
X222735Y166011D01*
X222798Y165957D01*
X222854Y165897D01*
X222898Y165872D01*
X222938Y165838D01*
X223013Y165806D01*
X223084Y165766D01*
X223135Y165754D01*
X223182Y165734D01*
X223264Y165726D01*
X223344Y165708D01*
X223395Y165712D01*
X223447Y165707D01*
X223527Y165723D01*
X223609Y165729D01*
X223657Y165749D01*
X223707Y165759D01*
X223751Y165786D01*
X223856Y165828D01*
X223995Y165941D01*
X224033Y165966D01*
X228847Y170780D01*
X228860Y170797D01*
X228876Y170810D01*
X228938Y170904D01*
X229005Y170994D01*
X229012Y171014D01*
X229023Y171031D01*
X229033Y171076D01*
X229092Y171245D01*
X229096Y171358D01*
X229107Y171408D01*
X229107Y173195D01*
X231935Y176023D01*
X235933Y176023D01*
X238761Y173195D01*
X238761Y169197D01*
X235933Y166369D01*
X234146Y166369D01*
X234125Y166366D01*
X234104Y166368D01*
X233994Y166346D01*
X233883Y166329D01*
X233864Y166320D01*
X233844Y166316D01*
X233805Y166292D01*
X233644Y166214D01*
X233561Y166137D01*
X233518Y166109D01*
X224337Y156928D01*
X222777Y155368D01*
X222764Y155351D01*
X222748Y155338D01*
X222686Y155244D01*
X222619Y155154D01*
X222612Y155134D01*
X222601Y155117D01*
X222591Y155072D01*
X222532Y154903D01*
X222528Y154790D01*
X222517Y154740D01*
X222517Y153799D01*
X221882Y153164D01*
X221821Y153081D01*
X221754Y153003D01*
X221742Y152975D01*
X221724Y152950D01*
X221690Y152853D01*
X221650Y152759D01*
X221647Y152728D01*
X221637Y152699D01*
X221633Y152596D01*
X221622Y152494D01*
X221628Y152464D01*
X221627Y152433D01*
X221654Y152334D01*
X221674Y152234D01*
X221687Y152213D01*
X221697Y152177D01*
X221840Y151953D01*
X221869Y151928D01*
X221882Y151908D01*
X222517Y151273D01*
X222517Y142799D01*
X221882Y142164D01*
X221821Y142081D01*
X221754Y142003D01*
X221742Y141975D01*
X221724Y141950D01*
X221690Y141853D01*
X221650Y141759D01*
X221647Y141728D01*
X221637Y141699D01*
X221633Y141596D01*
X221622Y141494D01*
X221628Y141464D01*
X221627Y141433D01*
X221654Y141334D01*
X221674Y141234D01*
X221687Y141213D01*
X221697Y141177D01*
X221840Y140953D01*
X221869Y140928D01*
X221882Y140908D01*
X222517Y140273D01*
X222517Y131799D01*
X221882Y131164D01*
X221821Y131081D01*
X221754Y131003D01*
X221742Y130975D01*
X221724Y130950D01*
X221690Y130853D01*
X221650Y130759D01*
X221647Y130728D01*
X221637Y130699D01*
X221633Y130596D01*
X221622Y130494D01*
X221628Y130464D01*
X221627Y130433D01*
X221654Y130334D01*
X221674Y130234D01*
X221687Y130213D01*
X221697Y130177D01*
X221840Y129953D01*
X221869Y129928D01*
X221882Y129908D01*
X222517Y129273D01*
X222517Y120799D01*
X221475Y119757D01*
X206001Y119757D01*
X204959Y120799D01*
X204959Y129273D01*
X205594Y129908D01*
X205655Y129990D01*
X205722Y130069D01*
X205734Y130097D01*
X205752Y130122D01*
X205786Y130219D01*
X205826Y130313D01*
X205829Y130344D01*
X205839Y130373D01*
X205843Y130475D01*
X205854Y130578D01*
X205848Y130608D01*
X205849Y130639D01*
X205822Y130738D01*
X205802Y130838D01*
X205789Y130858D01*
X205779Y130895D01*
X205636Y131119D01*
X205607Y131144D01*
X205594Y131164D01*
X204959Y131799D01*
X204959Y140273D01*
X205594Y140908D01*
X205655Y140990D01*
X205722Y141069D01*
X205734Y141097D01*
X205752Y141122D01*
X205786Y141219D01*
X205826Y141313D01*
X205829Y141344D01*
X205839Y141373D01*
X205843Y141475D01*
X205854Y141578D01*
X205848Y141608D01*
X205849Y141639D01*
X205822Y141738D01*
X205802Y141838D01*
X205789Y141858D01*
X205779Y141895D01*
X205636Y142119D01*
X205607Y142144D01*
X205594Y142164D01*
X204959Y142799D01*
X204959Y143353D01*
X204944Y143455D01*
X204936Y143557D01*
X204924Y143585D01*
X204919Y143616D01*
X204875Y143708D01*
X204837Y143804D01*
X204817Y143827D01*
X204804Y143855D01*
X204734Y143930D01*
X204669Y144010D01*
X204643Y144027D01*
X204622Y144049D01*
X204533Y144100D01*
X204448Y144157D01*
X204424Y144163D01*
X204392Y144181D01*
X204132Y144239D01*
X204094Y144236D01*
X204071Y144241D01*
X199108Y144241D01*
X199087Y144238D01*
X199066Y144240D01*
X198956Y144218D01*
X198845Y144201D01*
X198826Y144192D01*
X198805Y144188D01*
X198767Y144164D01*
X198605Y144086D01*
X198523Y144009D01*
X198479Y143981D01*
X193555Y139057D01*
X193542Y139040D01*
X193526Y139026D01*
X193511Y139004D01*
X193503Y138997D01*
X193486Y138966D01*
X193464Y138933D01*
X193397Y138843D01*
X193390Y138823D01*
X193379Y138805D01*
X193369Y138761D01*
X193310Y138592D01*
X193306Y138479D01*
X193295Y138428D01*
X193295Y112603D01*
X193298Y112583D01*
X193296Y112562D01*
X193318Y112451D01*
X193335Y112340D01*
X193344Y112322D01*
X193348Y112301D01*
X193372Y112262D01*
X193450Y112101D01*
X193527Y112019D01*
X193555Y111975D01*
X195327Y110203D01*
X195327Y106205D01*
X192499Y103377D01*
X188501Y103377D01*
G37*
%LPD*%
G36*
X171309Y5215D02*
X171309Y5215D01*
X171361Y5214D01*
X171440Y5235D01*
X171521Y5248D01*
X171567Y5270D01*
X171617Y5284D01*
X171686Y5328D01*
X171760Y5363D01*
X171798Y5398D01*
X171841Y5426D01*
X171895Y5489D01*
X171954Y5545D01*
X171980Y5589D01*
X172013Y5629D01*
X172046Y5704D01*
X172086Y5775D01*
X172098Y5826D01*
X172118Y5873D01*
X172126Y5955D01*
X172144Y6035D01*
X172140Y6086D01*
X172145Y6138D01*
X172129Y6218D01*
X172123Y6300D01*
X172103Y6348D01*
X172093Y6398D01*
X172066Y6442D01*
X172024Y6547D01*
X171911Y6686D01*
X171886Y6724D01*
X169294Y9316D01*
X167766Y13004D01*
X167766Y16996D01*
X169294Y20684D01*
X172116Y23506D01*
X174457Y24476D01*
X174510Y24508D01*
X174568Y24531D01*
X174623Y24576D01*
X174685Y24613D01*
X174726Y24659D01*
X174774Y24698D01*
X174814Y24758D01*
X174861Y24812D01*
X174887Y24868D01*
X174921Y24920D01*
X174932Y24967D01*
X174971Y25053D01*
X174998Y25266D01*
X175005Y25296D01*
X175005Y78898D01*
X175002Y78919D01*
X175004Y78940D01*
X174982Y79050D01*
X174965Y79161D01*
X174956Y79180D01*
X174952Y79200D01*
X174928Y79239D01*
X174850Y79400D01*
X174773Y79483D01*
X174745Y79526D01*
X156711Y97560D01*
X156670Y97591D01*
X156634Y97629D01*
X156563Y97669D01*
X156497Y97718D01*
X156448Y97735D01*
X156404Y97761D01*
X156324Y97778D01*
X156246Y97805D01*
X156194Y97807D01*
X156144Y97818D01*
X156062Y97812D01*
X155980Y97814D01*
X155931Y97801D01*
X155879Y97797D01*
X155803Y97766D01*
X155724Y97745D01*
X155680Y97717D01*
X155632Y97698D01*
X155569Y97646D01*
X155500Y97602D01*
X155466Y97563D01*
X155426Y97530D01*
X155381Y97462D01*
X155328Y97399D01*
X155307Y97352D01*
X155279Y97309D01*
X155267Y97259D01*
X155223Y97155D01*
X155205Y96977D01*
X155195Y96932D01*
X155195Y84155D01*
X155202Y84104D01*
X155201Y84053D01*
X155222Y83973D01*
X155235Y83892D01*
X155257Y83846D01*
X155271Y83796D01*
X155315Y83727D01*
X155350Y83653D01*
X155385Y83615D01*
X155413Y83572D01*
X155476Y83519D01*
X155532Y83459D01*
X155576Y83433D01*
X155616Y83400D01*
X155691Y83367D01*
X155762Y83327D01*
X155813Y83316D01*
X155860Y83295D01*
X155942Y83287D01*
X156022Y83269D01*
X156073Y83273D01*
X156125Y83268D01*
X156205Y83284D01*
X156287Y83291D01*
X156335Y83310D01*
X156385Y83320D01*
X156429Y83348D01*
X156534Y83390D01*
X156673Y83503D01*
X156711Y83527D01*
X159291Y86107D01*
X163289Y86107D01*
X166117Y83279D01*
X166117Y79281D01*
X164853Y78017D01*
X164840Y78000D01*
X164824Y77987D01*
X164762Y77893D01*
X164695Y77803D01*
X164688Y77783D01*
X164677Y77766D01*
X164667Y77721D01*
X164608Y77552D01*
X164604Y77439D01*
X164593Y77389D01*
X164593Y59771D01*
X164596Y59751D01*
X164594Y59730D01*
X164616Y59619D01*
X164633Y59508D01*
X164642Y59490D01*
X164646Y59469D01*
X164670Y59430D01*
X164748Y59269D01*
X164825Y59187D01*
X164853Y59143D01*
X166117Y57879D01*
X166117Y53881D01*
X163289Y51053D01*
X159291Y51053D01*
X156711Y53633D01*
X156670Y53664D01*
X156634Y53701D01*
X156563Y53742D01*
X156497Y53791D01*
X156448Y53808D01*
X156404Y53833D01*
X156324Y53851D01*
X156246Y53878D01*
X156194Y53880D01*
X156144Y53891D01*
X156062Y53884D01*
X155980Y53887D01*
X155931Y53874D01*
X155879Y53869D01*
X155803Y53839D01*
X155724Y53817D01*
X155680Y53790D01*
X155632Y53770D01*
X155569Y53719D01*
X155500Y53675D01*
X155466Y53635D01*
X155426Y53603D01*
X155381Y53534D01*
X155328Y53472D01*
X155307Y53425D01*
X155279Y53382D01*
X155267Y53331D01*
X155223Y53228D01*
X155205Y53049D01*
X155195Y53005D01*
X155195Y25296D01*
X155204Y25235D01*
X155203Y25173D01*
X155224Y25104D01*
X155235Y25034D01*
X155262Y24978D01*
X155279Y24918D01*
X155319Y24859D01*
X155350Y24794D01*
X155393Y24749D01*
X155427Y24697D01*
X155466Y24670D01*
X155532Y24600D01*
X155718Y24494D01*
X155743Y24476D01*
X158084Y23506D01*
X160906Y20684D01*
X162434Y16996D01*
X162434Y13004D01*
X160906Y9316D01*
X158314Y6724D01*
X158283Y6683D01*
X158246Y6647D01*
X158205Y6576D01*
X158156Y6510D01*
X158139Y6461D01*
X158114Y6417D01*
X158096Y6337D01*
X158069Y6259D01*
X158067Y6207D01*
X158056Y6157D01*
X158062Y6075D01*
X158060Y5993D01*
X158073Y5944D01*
X158077Y5892D01*
X158108Y5816D01*
X158130Y5737D01*
X158157Y5693D01*
X158176Y5645D01*
X158228Y5582D01*
X158272Y5513D01*
X158311Y5479D01*
X158344Y5439D01*
X158412Y5394D01*
X158475Y5341D01*
X158522Y5320D01*
X158565Y5292D01*
X158616Y5280D01*
X158719Y5236D01*
X158898Y5218D01*
X158942Y5208D01*
X171258Y5208D01*
X171309Y5215D01*
G37*
G36*
X196709Y5215D02*
X196709Y5215D01*
X196761Y5214D01*
X196840Y5235D01*
X196921Y5248D01*
X196967Y5270D01*
X197017Y5284D01*
X197086Y5328D01*
X197160Y5363D01*
X197198Y5398D01*
X197241Y5426D01*
X197295Y5489D01*
X197354Y5545D01*
X197380Y5589D01*
X197413Y5629D01*
X197446Y5704D01*
X197486Y5775D01*
X197498Y5826D01*
X197518Y5873D01*
X197526Y5955D01*
X197544Y6035D01*
X197540Y6086D01*
X197545Y6138D01*
X197529Y6218D01*
X197523Y6300D01*
X197503Y6348D01*
X197493Y6398D01*
X197466Y6442D01*
X197424Y6547D01*
X197311Y6686D01*
X197286Y6724D01*
X194694Y9316D01*
X193166Y13004D01*
X193166Y16996D01*
X194694Y20684D01*
X197516Y23506D01*
X199857Y24476D01*
X199910Y24508D01*
X199968Y24531D01*
X200023Y24576D01*
X200085Y24613D01*
X200126Y24659D01*
X200174Y24698D01*
X200214Y24758D01*
X200261Y24812D01*
X200287Y24868D01*
X200321Y24920D01*
X200332Y24967D01*
X200371Y25053D01*
X200398Y25266D01*
X200405Y25296D01*
X200405Y58886D01*
X200402Y58907D01*
X200404Y58928D01*
X200382Y59038D01*
X200365Y59149D01*
X200356Y59168D01*
X200352Y59189D01*
X200328Y59227D01*
X200250Y59388D01*
X200173Y59471D01*
X200145Y59514D01*
X182111Y77548D01*
X182070Y77579D01*
X182034Y77617D01*
X181963Y77657D01*
X181897Y77706D01*
X181848Y77723D01*
X181804Y77749D01*
X181724Y77767D01*
X181646Y77793D01*
X181594Y77795D01*
X181544Y77806D01*
X181462Y77800D01*
X181380Y77803D01*
X181331Y77789D01*
X181279Y77785D01*
X181203Y77754D01*
X181124Y77733D01*
X181080Y77705D01*
X181032Y77686D01*
X180969Y77634D01*
X180900Y77590D01*
X180866Y77551D01*
X180826Y77518D01*
X180781Y77450D01*
X180728Y77388D01*
X180707Y77340D01*
X180679Y77297D01*
X180667Y77247D01*
X180623Y77143D01*
X180605Y76965D01*
X180595Y76920D01*
X180595Y25296D01*
X180604Y25235D01*
X180603Y25173D01*
X180624Y25104D01*
X180635Y25034D01*
X180662Y24978D01*
X180679Y24918D01*
X180719Y24859D01*
X180750Y24794D01*
X180793Y24749D01*
X180827Y24697D01*
X180866Y24670D01*
X180932Y24600D01*
X181118Y24494D01*
X181143Y24476D01*
X183484Y23506D01*
X186306Y20684D01*
X187834Y16996D01*
X187834Y13004D01*
X186306Y9316D01*
X183714Y6724D01*
X183683Y6683D01*
X183646Y6647D01*
X183605Y6576D01*
X183556Y6510D01*
X183539Y6461D01*
X183514Y6417D01*
X183496Y6337D01*
X183469Y6259D01*
X183467Y6207D01*
X183456Y6157D01*
X183462Y6075D01*
X183460Y5993D01*
X183473Y5944D01*
X183477Y5892D01*
X183508Y5816D01*
X183530Y5737D01*
X183557Y5693D01*
X183576Y5645D01*
X183628Y5582D01*
X183672Y5513D01*
X183711Y5479D01*
X183744Y5439D01*
X183812Y5394D01*
X183875Y5341D01*
X183922Y5320D01*
X183965Y5292D01*
X184016Y5280D01*
X184119Y5236D01*
X184298Y5218D01*
X184342Y5208D01*
X196658Y5208D01*
X196709Y5215D01*
G37*
G36*
X222109Y5215D02*
X222109Y5215D01*
X222161Y5214D01*
X222240Y5235D01*
X222321Y5248D01*
X222367Y5270D01*
X222417Y5284D01*
X222486Y5328D01*
X222560Y5363D01*
X222598Y5398D01*
X222641Y5426D01*
X222695Y5489D01*
X222754Y5545D01*
X222780Y5589D01*
X222813Y5629D01*
X222846Y5704D01*
X222886Y5775D01*
X222898Y5826D01*
X222918Y5873D01*
X222926Y5955D01*
X222944Y6035D01*
X222940Y6086D01*
X222945Y6138D01*
X222929Y6218D01*
X222923Y6300D01*
X222903Y6348D01*
X222893Y6398D01*
X222866Y6442D01*
X222824Y6547D01*
X222711Y6686D01*
X222686Y6724D01*
X220094Y9316D01*
X218566Y13004D01*
X218566Y16996D01*
X220094Y20684D01*
X222916Y23506D01*
X226604Y25034D01*
X230596Y25034D01*
X234284Y23506D01*
X237106Y20684D01*
X238634Y16996D01*
X238634Y13004D01*
X237106Y9316D01*
X234514Y6724D01*
X234483Y6683D01*
X234446Y6647D01*
X234405Y6576D01*
X234356Y6510D01*
X234339Y6461D01*
X234314Y6417D01*
X234296Y6337D01*
X234269Y6259D01*
X234267Y6207D01*
X234256Y6157D01*
X234262Y6075D01*
X234260Y5993D01*
X234273Y5944D01*
X234277Y5892D01*
X234308Y5816D01*
X234330Y5737D01*
X234357Y5693D01*
X234376Y5645D01*
X234428Y5582D01*
X234472Y5513D01*
X234511Y5479D01*
X234544Y5439D01*
X234612Y5394D01*
X234675Y5341D01*
X234722Y5320D01*
X234765Y5292D01*
X234816Y5280D01*
X234919Y5236D01*
X235098Y5218D01*
X235142Y5208D01*
X247458Y5208D01*
X247509Y5215D01*
X247561Y5214D01*
X247640Y5235D01*
X247721Y5248D01*
X247767Y5270D01*
X247817Y5284D01*
X247886Y5328D01*
X247960Y5363D01*
X247998Y5398D01*
X248041Y5426D01*
X248095Y5489D01*
X248154Y5545D01*
X248180Y5589D01*
X248213Y5629D01*
X248246Y5704D01*
X248286Y5775D01*
X248298Y5826D01*
X248318Y5873D01*
X248326Y5955D01*
X248344Y6035D01*
X248340Y6086D01*
X248345Y6138D01*
X248329Y6218D01*
X248323Y6300D01*
X248303Y6348D01*
X248293Y6398D01*
X248266Y6442D01*
X248224Y6547D01*
X248111Y6686D01*
X248086Y6724D01*
X245494Y9316D01*
X243966Y13004D01*
X243966Y16996D01*
X244936Y19336D01*
X244951Y19397D01*
X244975Y19454D01*
X244982Y19525D01*
X245000Y19594D01*
X244996Y19656D01*
X245002Y19718D01*
X244988Y19788D01*
X244984Y19860D01*
X244963Y19918D01*
X244950Y19979D01*
X244925Y20019D01*
X244891Y20109D01*
X244760Y20278D01*
X244743Y20304D01*
X207511Y57537D01*
X207470Y57567D01*
X207434Y57605D01*
X207363Y57646D01*
X207297Y57694D01*
X207248Y57711D01*
X207204Y57737D01*
X207124Y57755D01*
X207046Y57782D01*
X206994Y57783D01*
X206944Y57795D01*
X206862Y57788D01*
X206780Y57791D01*
X206731Y57777D01*
X206679Y57773D01*
X206603Y57743D01*
X206524Y57721D01*
X206480Y57693D01*
X206432Y57674D01*
X206369Y57622D01*
X206300Y57578D01*
X206266Y57539D01*
X206226Y57506D01*
X206181Y57438D01*
X206128Y57376D01*
X206107Y57328D01*
X206079Y57285D01*
X206067Y57235D01*
X206023Y57131D01*
X206005Y56953D01*
X205995Y56909D01*
X205995Y25296D01*
X206004Y25235D01*
X206003Y25173D01*
X206024Y25104D01*
X206035Y25034D01*
X206062Y24978D01*
X206079Y24918D01*
X206119Y24859D01*
X206150Y24794D01*
X206193Y24749D01*
X206227Y24697D01*
X206266Y24670D01*
X206332Y24600D01*
X206518Y24494D01*
X206543Y24476D01*
X208884Y23506D01*
X211706Y20684D01*
X213234Y16996D01*
X213234Y13004D01*
X211706Y9316D01*
X209114Y6724D01*
X209083Y6683D01*
X209046Y6647D01*
X209005Y6576D01*
X208956Y6510D01*
X208939Y6461D01*
X208914Y6417D01*
X208896Y6337D01*
X208869Y6259D01*
X208867Y6207D01*
X208856Y6157D01*
X208862Y6075D01*
X208860Y5993D01*
X208873Y5944D01*
X208877Y5892D01*
X208908Y5816D01*
X208930Y5737D01*
X208957Y5693D01*
X208976Y5645D01*
X209028Y5582D01*
X209072Y5513D01*
X209111Y5479D01*
X209144Y5439D01*
X209212Y5394D01*
X209275Y5341D01*
X209322Y5320D01*
X209365Y5292D01*
X209416Y5280D01*
X209519Y5236D01*
X209698Y5218D01*
X209742Y5208D01*
X222058Y5208D01*
X222109Y5215D01*
G37*
%LPC*%
G36*
X213741Y181101D02*
X213741Y181101D01*
X213730Y181129D01*
X213725Y181160D01*
X213681Y181252D01*
X213642Y181348D01*
X213623Y181371D01*
X213610Y181399D01*
X213539Y181474D01*
X213475Y181554D01*
X213449Y181571D01*
X213428Y181593D01*
X213339Y181644D01*
X213254Y181701D01*
X213230Y181707D01*
X213197Y181725D01*
X212938Y181783D01*
X212900Y181780D01*
X212877Y181785D01*
X204197Y181785D01*
X204197Y183871D01*
X204370Y184517D01*
X204705Y185096D01*
X205056Y185447D01*
X205116Y185529D01*
X205183Y185608D01*
X205195Y185636D01*
X205213Y185661D01*
X205247Y185757D01*
X205287Y185852D01*
X205291Y185883D01*
X205301Y185912D01*
X205304Y186014D01*
X205315Y186116D01*
X205309Y186147D01*
X205310Y186177D01*
X205283Y186276D01*
X205263Y186377D01*
X205250Y186397D01*
X205240Y186434D01*
X205097Y186658D01*
X205068Y186683D01*
X205056Y186703D01*
X204959Y186799D01*
X204959Y187353D01*
X204944Y187455D01*
X204936Y187557D01*
X204924Y187585D01*
X204919Y187616D01*
X204875Y187708D01*
X204837Y187804D01*
X204817Y187827D01*
X204804Y187855D01*
X204734Y187930D01*
X204669Y188010D01*
X204643Y188027D01*
X204622Y188049D01*
X204533Y188100D01*
X204448Y188157D01*
X204424Y188163D01*
X204392Y188181D01*
X204132Y188239D01*
X204094Y188236D01*
X204071Y188241D01*
X199499Y188241D01*
X199478Y188238D01*
X199458Y188240D01*
X199347Y188218D01*
X199236Y188201D01*
X199218Y188192D01*
X199197Y188188D01*
X199158Y188164D01*
X198997Y188086D01*
X198915Y188009D01*
X198871Y187981D01*
X197071Y186181D01*
X193073Y186181D01*
X190245Y189009D01*
X190245Y193007D01*
X193073Y195835D01*
X197071Y195835D01*
X198815Y194091D01*
X198832Y194078D01*
X198845Y194062D01*
X198939Y194000D01*
X199029Y193933D01*
X199049Y193926D01*
X199066Y193915D01*
X199111Y193905D01*
X199280Y193846D01*
X199393Y193842D01*
X199443Y193831D01*
X204071Y193831D01*
X204173Y193846D01*
X204275Y193854D01*
X204303Y193866D01*
X204334Y193871D01*
X204426Y193915D01*
X204522Y193953D01*
X204545Y193973D01*
X204573Y193986D01*
X204648Y194056D01*
X204728Y194121D01*
X204745Y194147D01*
X204767Y194168D01*
X204818Y194257D01*
X204875Y194342D01*
X204881Y194366D01*
X204899Y194398D01*
X204957Y194658D01*
X204954Y194696D01*
X204959Y194719D01*
X204959Y195273D01*
X205594Y195908D01*
X205655Y195990D01*
X205722Y196069D01*
X205734Y196097D01*
X205752Y196122D01*
X205786Y196219D01*
X205826Y196313D01*
X205829Y196344D01*
X205839Y196373D01*
X205843Y196475D01*
X205854Y196578D01*
X205848Y196608D01*
X205849Y196639D01*
X205822Y196738D01*
X205802Y196838D01*
X205789Y196858D01*
X205779Y196895D01*
X205636Y197119D01*
X205607Y197144D01*
X205594Y197164D01*
X204959Y197799D01*
X204959Y206273D01*
X205594Y206908D01*
X205655Y206990D01*
X205722Y207069D01*
X205734Y207097D01*
X205752Y207122D01*
X205786Y207219D01*
X205826Y207313D01*
X205829Y207344D01*
X205839Y207373D01*
X205843Y207475D01*
X205854Y207578D01*
X205848Y207608D01*
X205849Y207639D01*
X205822Y207738D01*
X205802Y207838D01*
X205789Y207858D01*
X205779Y207895D01*
X205636Y208119D01*
X205607Y208144D01*
X205594Y208164D01*
X204959Y208799D01*
X204959Y217273D01*
X206001Y218315D01*
X210309Y218315D01*
X210411Y218330D01*
X210513Y218338D01*
X210541Y218350D01*
X210572Y218355D01*
X210664Y218399D01*
X210760Y218437D01*
X210783Y218457D01*
X210811Y218470D01*
X210886Y218540D01*
X210966Y218605D01*
X210983Y218631D01*
X211005Y218652D01*
X211056Y218741D01*
X211113Y218826D01*
X211119Y218850D01*
X211137Y218882D01*
X211195Y219142D01*
X211192Y219180D01*
X211197Y219203D01*
X211197Y223759D01*
X219849Y223759D01*
X219950Y223774D01*
X220053Y223783D01*
X220081Y223794D01*
X220112Y223799D01*
X220204Y223843D01*
X220299Y223882D01*
X220323Y223901D01*
X220351Y223914D01*
X220426Y223984D01*
X220506Y224049D01*
X220523Y224075D01*
X220545Y224096D01*
X220596Y224185D01*
X220653Y224270D01*
X220658Y224294D01*
X220677Y224326D01*
X220735Y224586D01*
X220732Y224624D01*
X220737Y224647D01*
X220737Y225537D01*
X220739Y225537D01*
X220739Y224647D01*
X220754Y224546D01*
X220763Y224443D01*
X220774Y224415D01*
X220779Y224384D01*
X220823Y224292D01*
X220862Y224197D01*
X220881Y224173D01*
X220894Y224145D01*
X220964Y224070D01*
X221029Y223990D01*
X221055Y223973D01*
X221076Y223951D01*
X221165Y223900D01*
X221250Y223843D01*
X221274Y223837D01*
X221307Y223819D01*
X221566Y223761D01*
X221604Y223764D01*
X221627Y223759D01*
X230279Y223759D01*
X230279Y219201D01*
X230106Y218555D01*
X229771Y217976D01*
X229298Y217503D01*
X228719Y217168D01*
X228073Y216995D01*
X223405Y216995D01*
X223303Y216980D01*
X223201Y216972D01*
X223173Y216960D01*
X223142Y216955D01*
X223050Y216911D01*
X222954Y216873D01*
X222931Y216853D01*
X222903Y216840D01*
X222828Y216770D01*
X222748Y216705D01*
X222731Y216679D01*
X222709Y216658D01*
X222658Y216569D01*
X222601Y216484D01*
X222595Y216460D01*
X222577Y216428D01*
X222519Y216168D01*
X222522Y216130D01*
X222517Y216107D01*
X222517Y208799D01*
X221882Y208164D01*
X221821Y208081D01*
X221754Y208003D01*
X221742Y207975D01*
X221724Y207950D01*
X221690Y207853D01*
X221650Y207759D01*
X221647Y207728D01*
X221637Y207699D01*
X221633Y207596D01*
X221622Y207494D01*
X221628Y207464D01*
X221627Y207433D01*
X221654Y207334D01*
X221674Y207234D01*
X221687Y207213D01*
X221697Y207177D01*
X221840Y206953D01*
X221869Y206928D01*
X221882Y206908D01*
X222517Y206273D01*
X222517Y197799D01*
X221882Y197164D01*
X221821Y197081D01*
X221754Y197003D01*
X221742Y196975D01*
X221724Y196950D01*
X221690Y196853D01*
X221650Y196759D01*
X221647Y196728D01*
X221637Y196699D01*
X221633Y196596D01*
X221622Y196494D01*
X221628Y196464D01*
X221627Y196433D01*
X221654Y196334D01*
X221674Y196234D01*
X221687Y196213D01*
X221697Y196177D01*
X221840Y195953D01*
X221869Y195928D01*
X221882Y195908D01*
X222517Y195273D01*
X222517Y186799D01*
X222420Y186703D01*
X222359Y186620D01*
X222293Y186542D01*
X222281Y186514D01*
X222263Y186489D01*
X222229Y186392D01*
X222189Y186298D01*
X222185Y186267D01*
X222175Y186238D01*
X222172Y186135D01*
X222161Y186033D01*
X222167Y186003D01*
X222166Y185972D01*
X222193Y185873D01*
X222213Y185772D01*
X222226Y185752D01*
X222236Y185716D01*
X222379Y185491D01*
X222408Y185467D01*
X222420Y185447D01*
X222771Y185096D01*
X223106Y184517D01*
X223279Y183871D01*
X223279Y181785D01*
X214599Y181785D01*
X214498Y181770D01*
X214395Y181762D01*
X214367Y181750D01*
X214336Y181745D01*
X214244Y181701D01*
X214149Y181663D01*
X214125Y181643D01*
X214097Y181630D01*
X214022Y181560D01*
X213942Y181495D01*
X213925Y181469D01*
X213903Y181448D01*
X213852Y181359D01*
X213795Y181274D01*
X213790Y181250D01*
X213771Y181218D01*
X213742Y181089D01*
X213741Y181101D01*
G37*
%LPD*%
%LPC*%
G36*
X90132Y308775D02*
X90132Y308775D01*
X84810Y310979D01*
X80737Y315052D01*
X78533Y320374D01*
X78533Y326134D01*
X80737Y331456D01*
X84810Y335529D01*
X90132Y337733D01*
X95892Y337733D01*
X101214Y335529D01*
X105287Y331456D01*
X107491Y326134D01*
X107491Y320374D01*
X105287Y315052D01*
X101214Y310979D01*
X95892Y308775D01*
X90132Y308775D01*
G37*
%LPD*%
%LPC*%
G36*
X90132Y254775D02*
X90132Y254775D01*
X84810Y256979D01*
X80737Y261052D01*
X78533Y266374D01*
X78533Y272134D01*
X80737Y277456D01*
X84810Y281529D01*
X90132Y283733D01*
X95892Y283733D01*
X101214Y281529D01*
X105287Y277456D01*
X107491Y272134D01*
X107491Y266374D01*
X105287Y261052D01*
X101214Y256979D01*
X95892Y254775D01*
X90132Y254775D01*
G37*
%LPD*%
%LPC*%
G36*
X34812Y300585D02*
X34812Y300585D01*
X30144Y302519D01*
X26571Y306092D01*
X24637Y310760D01*
X24637Y315812D01*
X26571Y320480D01*
X30144Y324053D01*
X34812Y325987D01*
X39864Y325987D01*
X44532Y324053D01*
X48105Y320480D01*
X50039Y315812D01*
X50039Y310760D01*
X48105Y306092D01*
X44532Y302519D01*
X39864Y300585D01*
X34812Y300585D01*
G37*
%LPD*%
%LPC*%
G36*
X34812Y265585D02*
X34812Y265585D01*
X30144Y267519D01*
X26571Y271092D01*
X24637Y275760D01*
X24637Y280812D01*
X26571Y285480D01*
X30144Y289053D01*
X34812Y290987D01*
X39864Y290987D01*
X44532Y289053D01*
X48105Y285480D01*
X50039Y280812D01*
X50039Y275760D01*
X48105Y271092D01*
X44532Y267519D01*
X39864Y265585D01*
X34812Y265585D01*
G37*
%LPD*%
%LPC*%
G36*
X97601Y386961D02*
X97601Y386961D01*
X92978Y388877D01*
X89439Y392416D01*
X87523Y397039D01*
X87523Y402045D01*
X89439Y406668D01*
X92978Y410207D01*
X97601Y412123D01*
X102607Y412123D01*
X107230Y410207D01*
X110769Y406668D01*
X112685Y402045D01*
X112685Y397039D01*
X110769Y392416D01*
X107230Y388877D01*
X102607Y386961D01*
X97601Y386961D01*
G37*
%LPD*%
%LPC*%
G36*
X37601Y386961D02*
X37601Y386961D01*
X32978Y388877D01*
X29439Y392416D01*
X27523Y397039D01*
X27523Y402045D01*
X29439Y406668D01*
X32978Y410207D01*
X37601Y412123D01*
X42607Y412123D01*
X47230Y410207D01*
X50769Y406668D01*
X52685Y402045D01*
X52685Y397039D01*
X50769Y392416D01*
X47230Y388877D01*
X42607Y386961D01*
X37601Y386961D01*
G37*
%LPD*%
%LPC*%
G36*
X318733Y186255D02*
X318733Y186255D01*
X315028Y187790D01*
X312192Y190626D01*
X310657Y194331D01*
X310657Y198341D01*
X312192Y202046D01*
X315028Y204882D01*
X318733Y206417D01*
X322743Y206417D01*
X326448Y204882D01*
X329284Y202046D01*
X330819Y198341D01*
X330819Y194331D01*
X329284Y190626D01*
X326448Y187790D01*
X322743Y186255D01*
X318733Y186255D01*
G37*
%LPD*%
%LPC*%
G36*
X318733Y106455D02*
X318733Y106455D01*
X315028Y107990D01*
X312192Y110826D01*
X310657Y114531D01*
X310657Y118541D01*
X312192Y122246D01*
X315028Y125082D01*
X318733Y126617D01*
X322743Y126617D01*
X326448Y125082D01*
X329284Y122246D01*
X330819Y118541D01*
X330819Y114531D01*
X329284Y110826D01*
X326448Y107990D01*
X322743Y106455D01*
X318733Y106455D01*
G37*
%LPD*%
%LPC*%
G36*
X211615Y279653D02*
X211615Y279653D01*
X208787Y282481D01*
X208787Y286479D01*
X210559Y288251D01*
X210572Y288268D01*
X210588Y288281D01*
X210650Y288375D01*
X210717Y288465D01*
X210724Y288485D01*
X210735Y288502D01*
X210745Y288547D01*
X210804Y288716D01*
X210808Y288829D01*
X210819Y288879D01*
X210819Y293336D01*
X210804Y293438D01*
X210796Y293540D01*
X210784Y293568D01*
X210779Y293599D01*
X210735Y293691D01*
X210697Y293787D01*
X210677Y293810D01*
X210664Y293838D01*
X210594Y293913D01*
X210529Y293993D01*
X210503Y294010D01*
X210482Y294032D01*
X210393Y294083D01*
X210308Y294140D01*
X210284Y294146D01*
X210252Y294164D01*
X209992Y294222D01*
X209954Y294219D01*
X209931Y294224D01*
X206463Y294224D01*
X205421Y295266D01*
X205421Y301949D01*
X205418Y301969D01*
X205420Y301990D01*
X205398Y302101D01*
X205381Y302211D01*
X205372Y302230D01*
X205368Y302251D01*
X205344Y302290D01*
X205266Y302451D01*
X205189Y302533D01*
X205188Y302535D01*
X204832Y303150D01*
X204659Y303796D01*
X204659Y305719D01*
X212851Y305719D01*
X212953Y305735D01*
X213055Y305743D01*
X213084Y305754D01*
X213114Y305759D01*
X213206Y305804D01*
X213302Y305842D01*
X213326Y305861D01*
X213353Y305875D01*
X213428Y305945D01*
X213508Y306010D01*
X213525Y306035D01*
X213548Y306056D01*
X213553Y306066D01*
X213586Y306030D01*
X213651Y305951D01*
X213676Y305933D01*
X213697Y305911D01*
X213786Y305860D01*
X213872Y305803D01*
X213895Y305798D01*
X213928Y305779D01*
X214188Y305721D01*
X214225Y305724D01*
X214249Y305719D01*
X222441Y305719D01*
X222441Y303796D01*
X222268Y303150D01*
X221928Y302561D01*
X221926Y302560D01*
X221910Y302547D01*
X221848Y302453D01*
X221781Y302363D01*
X221774Y302343D01*
X221763Y302325D01*
X221753Y302281D01*
X221694Y302112D01*
X221690Y301999D01*
X221679Y301949D01*
X221679Y295266D01*
X220637Y294224D01*
X217297Y294224D01*
X217195Y294209D01*
X217093Y294201D01*
X217065Y294189D01*
X217034Y294184D01*
X216942Y294140D01*
X216846Y294102D01*
X216823Y294082D01*
X216795Y294069D01*
X216720Y293999D01*
X216640Y293934D01*
X216623Y293908D01*
X216601Y293887D01*
X216550Y293798D01*
X216493Y293713D01*
X216487Y293689D01*
X216469Y293657D01*
X216411Y293397D01*
X216414Y293359D01*
X216409Y293336D01*
X216409Y288879D01*
X216412Y288859D01*
X216410Y288838D01*
X216432Y288727D01*
X216449Y288616D01*
X216458Y288598D01*
X216462Y288577D01*
X216486Y288538D01*
X216564Y288377D01*
X216641Y288295D01*
X216669Y288251D01*
X218441Y286479D01*
X218441Y282481D01*
X215613Y279653D01*
X211615Y279653D01*
G37*
%LPD*%
%LPC*%
G36*
X231935Y186181D02*
X231935Y186181D01*
X229107Y189009D01*
X229107Y193007D01*
X231935Y195835D01*
X233722Y195835D01*
X233743Y195838D01*
X233764Y195836D01*
X233874Y195858D01*
X233985Y195875D01*
X234004Y195884D01*
X234024Y195888D01*
X234063Y195912D01*
X234224Y195990D01*
X234307Y196067D01*
X234350Y196095D01*
X247135Y208880D01*
X247148Y208897D01*
X247164Y208910D01*
X247181Y208935D01*
X247201Y208954D01*
X247239Y209021D01*
X247293Y209094D01*
X247300Y209114D01*
X247311Y209131D01*
X247317Y209158D01*
X247333Y209185D01*
X247347Y209250D01*
X247380Y209345D01*
X247382Y209408D01*
X247390Y209444D01*
X247388Y209475D01*
X247395Y209508D01*
X247395Y211295D01*
X250223Y214123D01*
X254221Y214123D01*
X257049Y211295D01*
X257049Y207297D01*
X254221Y204469D01*
X252434Y204469D01*
X252413Y204466D01*
X252392Y204468D01*
X252282Y204446D01*
X252171Y204429D01*
X252152Y204420D01*
X252132Y204416D01*
X252093Y204392D01*
X251932Y204314D01*
X251849Y204237D01*
X251806Y204209D01*
X239021Y191424D01*
X239008Y191407D01*
X238992Y191394D01*
X238930Y191300D01*
X238863Y191210D01*
X238856Y191190D01*
X238845Y191173D01*
X238835Y191128D01*
X238776Y190959D01*
X238772Y190846D01*
X238761Y190796D01*
X238761Y189009D01*
X235933Y186181D01*
X231935Y186181D01*
G37*
%LPD*%
%LPC*%
G36*
X43137Y131685D02*
X43137Y131685D01*
X43122Y131786D01*
X43114Y131889D01*
X43102Y131917D01*
X43097Y131948D01*
X43053Y132040D01*
X43015Y132135D01*
X42995Y132159D01*
X42982Y132187D01*
X42912Y132262D01*
X42847Y132342D01*
X42821Y132359D01*
X42800Y132381D01*
X42711Y132432D01*
X42626Y132489D01*
X42602Y132494D01*
X42570Y132513D01*
X42310Y132571D01*
X42272Y132568D01*
X42249Y132573D01*
X40527Y132573D01*
X40425Y132558D01*
X40323Y132549D01*
X40295Y132538D01*
X40264Y132533D01*
X40172Y132489D01*
X40076Y132450D01*
X40053Y132431D01*
X40025Y132418D01*
X39950Y132347D01*
X39870Y132283D01*
X39853Y132257D01*
X39831Y132236D01*
X39780Y132147D01*
X39723Y132062D01*
X39717Y132038D01*
X39699Y132005D01*
X39641Y131746D01*
X39644Y131708D01*
X39639Y131685D01*
X39639Y124145D01*
X38885Y124295D01*
X37323Y124942D01*
X35918Y125881D01*
X34723Y127076D01*
X33784Y128481D01*
X33137Y130043D01*
X32905Y131210D01*
X32918Y131227D01*
X32948Y131298D01*
X32986Y131364D01*
X32998Y131420D01*
X33020Y131472D01*
X33021Y131522D01*
X33044Y131624D01*
X33028Y131818D01*
X33029Y131858D01*
X32905Y132480D01*
X32918Y132497D01*
X32948Y132568D01*
X32986Y132634D01*
X32998Y132690D01*
X33020Y132742D01*
X33021Y132792D01*
X33044Y132894D01*
X33028Y133088D01*
X33029Y133128D01*
X32939Y133580D01*
X32933Y133595D01*
X32932Y133611D01*
X32888Y133720D01*
X32864Y133787D01*
X32867Y133854D01*
X32896Y133904D01*
X32918Y134006D01*
X32939Y134052D01*
X33029Y134504D01*
X33031Y134560D01*
X33044Y134616D01*
X33037Y134693D01*
X33041Y134769D01*
X33027Y134824D01*
X33022Y134881D01*
X32993Y134952D01*
X32974Y135027D01*
X32944Y135075D01*
X32923Y135128D01*
X32905Y135150D01*
X33029Y135774D01*
X33031Y135830D01*
X33044Y135886D01*
X33037Y135963D01*
X33041Y136039D01*
X33027Y136094D01*
X33022Y136151D01*
X32993Y136222D01*
X32974Y136297D01*
X32944Y136345D01*
X32923Y136398D01*
X32905Y136420D01*
X33137Y137589D01*
X33784Y139151D01*
X34723Y140556D01*
X35918Y141751D01*
X37323Y142690D01*
X38885Y143337D01*
X39639Y143487D01*
X39639Y135947D01*
X39654Y135845D01*
X39662Y135743D01*
X39674Y135715D01*
X39678Y135684D01*
X39723Y135592D01*
X39761Y135497D01*
X39781Y135473D01*
X39794Y135445D01*
X39864Y135370D01*
X39929Y135290D01*
X39955Y135273D01*
X39976Y135251D01*
X40065Y135200D01*
X40150Y135143D01*
X40174Y135138D01*
X40206Y135119D01*
X40466Y135061D01*
X40504Y135064D01*
X40527Y135059D01*
X42249Y135059D01*
X42351Y135074D01*
X42453Y135083D01*
X42481Y135094D01*
X42512Y135099D01*
X42604Y135143D01*
X42700Y135182D01*
X42723Y135201D01*
X42751Y135214D01*
X42826Y135285D01*
X42906Y135349D01*
X42923Y135375D01*
X42945Y135396D01*
X42996Y135485D01*
X43053Y135570D01*
X43059Y135594D01*
X43077Y135627D01*
X43135Y135886D01*
X43132Y135924D01*
X43137Y135947D01*
X43137Y143487D01*
X43891Y143337D01*
X45453Y142690D01*
X46858Y141751D01*
X48053Y140556D01*
X48992Y139151D01*
X49639Y137589D01*
X49871Y136422D01*
X49858Y136405D01*
X49828Y136334D01*
X49790Y136268D01*
X49778Y136212D01*
X49756Y136160D01*
X49755Y136110D01*
X49732Y136008D01*
X49748Y135814D01*
X49747Y135774D01*
X49871Y135152D01*
X49858Y135135D01*
X49828Y135064D01*
X49790Y134998D01*
X49778Y134942D01*
X49756Y134890D01*
X49755Y134840D01*
X49732Y134738D01*
X49748Y134544D01*
X49747Y134504D01*
X49837Y134052D01*
X49843Y134037D01*
X49844Y134021D01*
X49888Y133912D01*
X49912Y133845D01*
X49909Y133778D01*
X49880Y133728D01*
X49858Y133626D01*
X49837Y133580D01*
X49747Y133128D01*
X49745Y133072D01*
X49732Y133016D01*
X49739Y132939D01*
X49735Y132863D01*
X49749Y132808D01*
X49754Y132751D01*
X49783Y132680D01*
X49802Y132605D01*
X49832Y132557D01*
X49853Y132504D01*
X49871Y132482D01*
X49747Y131858D01*
X49745Y131802D01*
X49732Y131746D01*
X49739Y131669D01*
X49735Y131593D01*
X49749Y131538D01*
X49754Y131481D01*
X49783Y131410D01*
X49802Y131335D01*
X49832Y131287D01*
X49853Y131234D01*
X49871Y131212D01*
X49639Y130043D01*
X48992Y128481D01*
X48053Y127076D01*
X46858Y125881D01*
X45453Y124942D01*
X43891Y124295D01*
X43137Y124145D01*
X43137Y131685D01*
G37*
%LPD*%
%LPC*%
G36*
X43137Y81901D02*
X43137Y81901D01*
X43122Y82002D01*
X43114Y82105D01*
X43102Y82133D01*
X43097Y82164D01*
X43053Y82256D01*
X43015Y82351D01*
X42995Y82375D01*
X42982Y82403D01*
X42912Y82478D01*
X42847Y82558D01*
X42821Y82575D01*
X42800Y82597D01*
X42711Y82648D01*
X42626Y82705D01*
X42602Y82710D01*
X42570Y82729D01*
X42310Y82787D01*
X42272Y82784D01*
X42249Y82789D01*
X40527Y82789D01*
X40425Y82774D01*
X40323Y82765D01*
X40295Y82754D01*
X40264Y82749D01*
X40172Y82705D01*
X40076Y82666D01*
X40053Y82647D01*
X40025Y82634D01*
X39950Y82563D01*
X39870Y82499D01*
X39853Y82473D01*
X39831Y82452D01*
X39780Y82363D01*
X39723Y82278D01*
X39717Y82254D01*
X39699Y82221D01*
X39641Y81962D01*
X39644Y81924D01*
X39639Y81901D01*
X39639Y74361D01*
X38885Y74511D01*
X37323Y75158D01*
X35918Y76097D01*
X34723Y77292D01*
X33784Y78697D01*
X33137Y80259D01*
X32916Y81370D01*
X32933Y81399D01*
X32969Y81443D01*
X32998Y81514D01*
X33036Y81580D01*
X33049Y81636D01*
X33070Y81688D01*
X33071Y81738D01*
X33094Y81840D01*
X33078Y82034D01*
X33079Y82074D01*
X32891Y83022D01*
X32897Y83038D01*
X32935Y83104D01*
X32948Y83160D01*
X32969Y83212D01*
X32970Y83262D01*
X32993Y83364D01*
X32977Y83558D01*
X32978Y83598D01*
X32939Y83796D01*
X32933Y83811D01*
X32932Y83827D01*
X32888Y83936D01*
X32864Y84003D01*
X32867Y84070D01*
X32896Y84120D01*
X32918Y84222D01*
X32939Y84268D01*
X33079Y84974D01*
X33082Y85030D01*
X33094Y85086D01*
X33088Y85163D01*
X33091Y85239D01*
X33077Y85294D01*
X33072Y85351D01*
X33044Y85422D01*
X33025Y85497D01*
X32995Y85545D01*
X32973Y85598D01*
X32925Y85657D01*
X32915Y85673D01*
X32978Y85990D01*
X32981Y86046D01*
X32993Y86102D01*
X32987Y86179D01*
X32990Y86255D01*
X32976Y86310D01*
X32971Y86367D01*
X32943Y86438D01*
X32923Y86513D01*
X32894Y86561D01*
X32891Y86567D01*
X33137Y87805D01*
X33784Y89367D01*
X34723Y90772D01*
X35918Y91967D01*
X37323Y92906D01*
X38885Y93553D01*
X39639Y93703D01*
X39639Y86163D01*
X39654Y86061D01*
X39662Y85959D01*
X39674Y85931D01*
X39678Y85900D01*
X39723Y85808D01*
X39761Y85713D01*
X39781Y85689D01*
X39794Y85661D01*
X39864Y85586D01*
X39929Y85506D01*
X39955Y85489D01*
X39976Y85467D01*
X40065Y85416D01*
X40150Y85359D01*
X40174Y85354D01*
X40206Y85335D01*
X40466Y85277D01*
X40504Y85280D01*
X40527Y85275D01*
X42249Y85275D01*
X42351Y85290D01*
X42453Y85299D01*
X42481Y85310D01*
X42512Y85315D01*
X42604Y85359D01*
X42700Y85398D01*
X42723Y85417D01*
X42751Y85430D01*
X42826Y85501D01*
X42906Y85565D01*
X42923Y85591D01*
X42945Y85612D01*
X42996Y85701D01*
X43053Y85786D01*
X43059Y85810D01*
X43077Y85843D01*
X43135Y86102D01*
X43132Y86140D01*
X43137Y86163D01*
X43137Y93703D01*
X43891Y93553D01*
X45453Y92906D01*
X46858Y91967D01*
X48053Y90772D01*
X48992Y89367D01*
X49639Y87805D01*
X49885Y86566D01*
X49879Y86550D01*
X49841Y86484D01*
X49828Y86428D01*
X49807Y86376D01*
X49806Y86326D01*
X49783Y86224D01*
X49799Y86030D01*
X49798Y85990D01*
X49860Y85678D01*
X49843Y85649D01*
X49807Y85605D01*
X49778Y85534D01*
X49740Y85468D01*
X49727Y85412D01*
X49706Y85360D01*
X49705Y85310D01*
X49682Y85208D01*
X49698Y85014D01*
X49697Y84974D01*
X49837Y84268D01*
X49843Y84253D01*
X49844Y84237D01*
X49888Y84128D01*
X49912Y84061D01*
X49909Y83994D01*
X49880Y83944D01*
X49858Y83842D01*
X49837Y83796D01*
X49798Y83598D01*
X49795Y83542D01*
X49783Y83486D01*
X49789Y83409D01*
X49786Y83333D01*
X49800Y83278D01*
X49805Y83221D01*
X49833Y83150D01*
X49853Y83075D01*
X49882Y83027D01*
X49885Y83020D01*
X49697Y82074D01*
X49694Y82018D01*
X49682Y81962D01*
X49688Y81885D01*
X49685Y81809D01*
X49699Y81754D01*
X49704Y81697D01*
X49732Y81626D01*
X49751Y81551D01*
X49781Y81503D01*
X49803Y81450D01*
X49851Y81391D01*
X49861Y81375D01*
X49639Y80259D01*
X48992Y78697D01*
X48053Y77292D01*
X46858Y76097D01*
X45453Y75158D01*
X43891Y74511D01*
X43137Y74361D01*
X43137Y81901D01*
G37*
%LPD*%
%LPC*%
G36*
X318515Y226313D02*
X318515Y226313D01*
X318515Y233077D01*
X328073Y233077D01*
X328719Y232904D01*
X329298Y232569D01*
X329771Y232096D01*
X330106Y231517D01*
X330279Y230871D01*
X330279Y226313D01*
X318515Y226313D01*
G37*
%LPD*%
%LPC*%
G36*
X318515Y71313D02*
X318515Y71313D01*
X318515Y78077D01*
X328073Y78077D01*
X328719Y77904D01*
X329298Y77569D01*
X329771Y77096D01*
X330106Y76517D01*
X330279Y75871D01*
X330279Y71313D01*
X318515Y71313D01*
G37*
%LPD*%
%LPC*%
G36*
X303197Y226313D02*
X303197Y226313D01*
X303197Y230871D01*
X303370Y231517D01*
X303705Y232096D01*
X304178Y232569D01*
X304757Y232904D01*
X305403Y233077D01*
X314961Y233077D01*
X314961Y226313D01*
X303197Y226313D01*
G37*
%LPD*%
%LPC*%
G36*
X303197Y71313D02*
X303197Y71313D01*
X303197Y75871D01*
X303370Y76517D01*
X303705Y77096D01*
X304178Y77569D01*
X304757Y77904D01*
X305403Y78077D01*
X314961Y78077D01*
X314961Y71313D01*
X303197Y71313D01*
G37*
%LPD*%
%LPC*%
G36*
X305403Y215995D02*
X305403Y215995D01*
X304757Y216168D01*
X304178Y216503D01*
X303705Y216976D01*
X303370Y217555D01*
X303197Y218201D01*
X303197Y222759D01*
X314961Y222759D01*
X314961Y215995D01*
X305403Y215995D01*
G37*
%LPD*%
%LPC*%
G36*
X305403Y60995D02*
X305403Y60995D01*
X304757Y61168D01*
X304178Y61503D01*
X303705Y61976D01*
X303370Y62555D01*
X303197Y63201D01*
X303197Y67759D01*
X314961Y67759D01*
X314961Y60995D01*
X305403Y60995D01*
G37*
%LPD*%
%LPC*%
G36*
X318515Y215995D02*
X318515Y215995D01*
X318515Y222759D01*
X330279Y222759D01*
X330279Y218201D01*
X330106Y217555D01*
X329771Y216976D01*
X329298Y216503D01*
X328719Y216168D01*
X328073Y215995D01*
X318515Y215995D01*
G37*
%LPD*%
%LPC*%
G36*
X318515Y60995D02*
X318515Y60995D01*
X318515Y67759D01*
X330279Y67759D01*
X330279Y63201D01*
X330106Y62555D01*
X329771Y61976D01*
X329298Y61503D01*
X328719Y61168D01*
X328073Y60995D01*
X318515Y60995D01*
G37*
%LPD*%
%LPC*%
G36*
X222515Y80313D02*
X222515Y80313D01*
X222515Y89077D01*
X228073Y89077D01*
X228719Y88904D01*
X229298Y88569D01*
X229771Y88096D01*
X230106Y87517D01*
X230279Y86871D01*
X230279Y80313D01*
X222515Y80313D01*
G37*
%LPD*%
%LPC*%
G36*
X222515Y67995D02*
X222515Y67995D01*
X222515Y76759D01*
X230279Y76759D01*
X230279Y70201D01*
X230106Y69555D01*
X229771Y68976D01*
X229298Y68503D01*
X228719Y68168D01*
X228073Y67995D01*
X222515Y67995D01*
G37*
%LPD*%
%LPC*%
G36*
X211197Y80313D02*
X211197Y80313D01*
X211197Y86871D01*
X211370Y87517D01*
X211705Y88096D01*
X212178Y88569D01*
X212757Y88904D01*
X213403Y89077D01*
X218961Y89077D01*
X218961Y80313D01*
X211197Y80313D01*
G37*
%LPD*%
%LPC*%
G36*
X213403Y67995D02*
X213403Y67995D01*
X212757Y68168D01*
X212178Y68503D01*
X211705Y68976D01*
X211370Y69555D01*
X211197Y70201D01*
X211197Y76759D01*
X218961Y76759D01*
X218961Y67995D01*
X213403Y67995D01*
G37*
%LPD*%
%LPC*%
G36*
X128777Y16777D02*
X128777Y16777D01*
X128777Y25649D01*
X129528Y25530D01*
X131144Y25005D01*
X132658Y24233D01*
X134033Y23235D01*
X135235Y22033D01*
X136233Y20658D01*
X137005Y19144D01*
X137530Y17528D01*
X137649Y16777D01*
X128777Y16777D01*
G37*
%LPD*%
%LPC*%
G36*
X116351Y16777D02*
X116351Y16777D01*
X116470Y17528D01*
X116995Y19144D01*
X117767Y20658D01*
X118765Y22033D01*
X119967Y23235D01*
X121342Y24233D01*
X122856Y25005D01*
X124472Y25530D01*
X125223Y25649D01*
X125223Y16777D01*
X116351Y16777D01*
G37*
%LPD*%
%LPC*%
G36*
X222515Y227313D02*
X222515Y227313D01*
X222515Y234077D01*
X228073Y234077D01*
X228719Y233904D01*
X229298Y233569D01*
X229771Y233096D01*
X230106Y232517D01*
X230279Y231871D01*
X230279Y227313D01*
X222515Y227313D01*
G37*
%LPD*%
%LPC*%
G36*
X211197Y227313D02*
X211197Y227313D01*
X211197Y231871D01*
X211370Y232517D01*
X211705Y233096D01*
X212178Y233569D01*
X212757Y233904D01*
X213403Y234077D01*
X218961Y234077D01*
X218961Y227313D01*
X211197Y227313D01*
G37*
%LPD*%
%LPC*%
G36*
X215137Y308893D02*
X215137Y308893D01*
X215137Y313022D01*
X220235Y313022D01*
X220881Y312849D01*
X221460Y312514D01*
X221933Y312041D01*
X222268Y311462D01*
X222441Y310816D01*
X222441Y308893D01*
X215137Y308893D01*
G37*
%LPD*%
%LPC*%
G36*
X220737Y78535D02*
X220737Y78535D01*
X220737Y78537D01*
X220739Y78537D01*
X220739Y78535D01*
X220737Y78535D01*
G37*
%LPD*%
%LPC*%
G36*
X316737Y69535D02*
X316737Y69535D01*
X316737Y69537D01*
X316739Y69537D01*
X316739Y69535D01*
X316737Y69535D01*
G37*
%LPD*%
%LPC*%
G36*
X316737Y224535D02*
X316737Y224535D01*
X316737Y224537D01*
X316739Y224537D01*
X316739Y224535D01*
X316737Y224535D01*
G37*
%LPD*%
D10*
X41388Y135086D03*
X41388Y132546D03*
X41388Y133816D03*
X41388Y85302D03*
X41388Y82762D03*
X41388Y84286D03*
D11*
X17004Y143976D03*
X17004Y73872D03*
X11924Y143976D03*
X14210Y143976D03*
X11924Y73872D03*
X14464Y73872D03*
D12*
X213738Y125036D03*
X213738Y136036D03*
X213738Y147036D03*
X213738Y158036D03*
X213738Y169036D03*
X213738Y180036D03*
X213738Y191036D03*
X213738Y202036D03*
X213738Y213036D03*
D13*
X220738Y225536D03*
D14*
X316738Y224536D03*
X316738Y69536D03*
D15*
X220738Y78536D03*
D16*
X94920Y224448D03*
X103048Y224448D03*
X111176Y224448D03*
D17*
X103048Y224448D02*
X94666Y224448D01*
X103048Y224448D02*
X111684Y224448D01*
D18*
X213550Y299178D03*
X213550Y307306D03*
D19*
X339852Y317754D03*
D20*
X339852Y343154D03*
X339852Y368554D03*
X339852Y393954D03*
D21*
X37338Y278286D03*
X37338Y313286D03*
D19*
X101600Y15000D03*
D20*
X127000Y15000D03*
X152400Y15000D03*
X177800Y15000D03*
X203200Y15000D03*
X228600Y15000D03*
X254000Y15000D03*
D22*
X93012Y269254D03*
X93012Y323254D03*
D23*
X165100Y8890D03*
X190246Y8890D03*
X215900Y8890D03*
X241300Y8890D03*
X167640Y146050D03*
X251460Y219710D03*
X322580Y300990D03*
X297180Y234950D03*
X266954Y167386D03*
D17*
X266954Y320802D01*
X296672Y350520D01*
D23*
X296672Y350520D03*
X254000Y167132D03*
D17*
X262636Y175768D01*
X262636Y330454D02*
X296926Y364744D01*
D23*
X296926Y364744D03*
D17*
X262636Y330454D02*
X262636Y175768D01*
D23*
X168148Y134112D03*
D17*
X156718Y145542D01*
X156718Y293624D01*
X156972Y293878D01*
X156972Y294132D01*
D23*
X156972Y294132D03*
X195072Y191008D03*
D17*
X195100Y191036D01*
X213738Y191036D01*
D23*
X190500Y108204D03*
D17*
X190500Y139954D01*
X197582Y147036D02*
X213738Y147036D01*
X197582Y147036D02*
X190500Y139954D01*
X187070Y169036D02*
X213738Y169036D01*
X187070Y169036D02*
X177546Y159512D01*
X177546Y108458D01*
D23*
X177546Y108458D03*
X233934Y171196D03*
D24*
X220774Y158036D01*
X213738Y158036D01*
D23*
X273558Y200914D03*
D24*
X273558Y282194D01*
D23*
X273558Y310134D03*
D24*
X273558Y282194D01*
D23*
X273558Y282194D03*
X154178Y347726D03*
D24*
X122428Y315976D01*
D23*
X122428Y163322D03*
X82550Y210820D03*
D24*
X100584Y210820D01*
X105156Y210820D01*
X103048Y213284D02*
X103048Y224448D01*
X103048Y213284D02*
X100584Y210820D01*
X103048Y212928D02*
X103048Y213284D01*
X103048Y212928D02*
X105156Y210820D01*
D23*
X161290Y81280D03*
D24*
X161290Y55880D01*
D23*
X161290Y55880D03*
D24*
X273558Y84836D02*
X273558Y200914D01*
X273558Y84836D02*
X257048Y68326D01*
D23*
X257048Y68326D03*
X233934Y191008D03*
D24*
X252222Y209296D01*
D23*
X252222Y209296D03*
D24*
X122428Y208534D02*
X122428Y163322D01*
X122428Y208534D02*
X122428Y213106D01*
X122428Y315976D01*
X120142Y210820D02*
X105156Y210820D01*
X120142Y210820D02*
X122428Y213106D01*
X120142Y210820D02*
X122428Y208534D01*
D17*
X203200Y60412D02*
X203200Y15000D01*
X141478Y122134D02*
X141478Y199898D01*
D23*
X141478Y199898D03*
D17*
X141478Y122134D02*
X203200Y60412D01*
X152400Y100435D02*
X152400Y15000D01*
X152400Y100435D02*
X140388Y112448D01*
X129286Y123549D01*
X129286Y219456D01*
D23*
X129286Y219456D03*
X110744Y238252D03*
D17*
X110744Y224880D02*
X111176Y224448D01*
X110744Y224880D02*
X110744Y238252D01*
D23*
X95504Y238760D03*
D17*
X94920Y238176D02*
X94920Y224448D01*
X94920Y238176D02*
X95504Y238760D01*
D23*
X213614Y284480D03*
D17*
X213614Y299114D01*
X213550Y299178D01*
D23*
X282194Y260858D03*
D17*
X282194Y310134D01*
D23*
X282194Y310134D03*
X284734Y180340D03*
D17*
X282194Y182880D02*
X282194Y260858D01*
X282194Y182880D02*
X284734Y180340D01*
D23*
X149352Y285750D03*
D17*
X149352Y119648D01*
X254000Y15000D01*
D23*
X181102Y201930D03*
D17*
X199136Y219964D01*
X199136Y310134D01*
X282956Y393954D01*
X339852Y393954D01*
D23*
X177800Y247396D03*
D17*
X162560Y232156D01*
D23*
X162560Y232156D03*
D17*
X177800Y80424D02*
X177800Y15000D01*
X135128Y123096D02*
X135128Y209042D01*
D23*
X135128Y209042D03*
D17*
X135128Y123096D02*
X177800Y80424D01*
M02*
