G04 EAGLE Gerber RS-274X export*
G75*
%MOMM*%
%FSLAX34Y34*%
%LPD*%
%AMOC8*
5,1,8,0,0,1.08239X$1,22.5*%
G01*
%ADD10C,3.101600*%
%ADD11C,1.309600*%
%ADD12C,1.371600*%
%ADD13C,1.601600*%
%ADD14R,1.501600X0.801600*%
%ADD15R,1.501600X1.301600*%
%ADD16R,2.301600X1.301600*%
%ADD17R,1.501600X1.701600*%
%ADD18C,1.101600*%
%ADD19R,0.736600X1.371600*%
%ADD20C,0.203200*%
%ADD21R,1.371600X0.736600*%
%ADD22R,1.752600X1.752600*%
%ADD23C,1.752600*%
%ADD24C,2.286000*%
%ADD25C,2.641600*%


D10*
X25400Y25400D03*
X330200Y25400D03*
D11*
X41388Y135086D03*
X41388Y132546D03*
X41388Y133816D03*
X41388Y85302D03*
X41388Y82762D03*
X41388Y84286D03*
D12*
X17004Y143976D03*
X17004Y73872D03*
X11924Y143976D03*
X14210Y143976D03*
X11924Y73872D03*
X14464Y73872D03*
D13*
X100104Y399542D03*
X40104Y399542D03*
D14*
X213738Y125036D03*
X213738Y136036D03*
X213738Y147036D03*
X213738Y158036D03*
X213738Y169036D03*
X213738Y180036D03*
X213738Y191036D03*
X213738Y202036D03*
X213738Y213036D03*
D15*
X220738Y225536D03*
D16*
X316738Y224536D03*
X316738Y69536D03*
D17*
X220738Y78536D03*
D18*
X320738Y196336D03*
X320738Y116536D03*
D19*
X94920Y224448D03*
X103048Y224448D03*
X111176Y224448D03*
D20*
X111938Y224448D02*
X94412Y224448D01*
D21*
X213550Y299178D03*
X213550Y307306D03*
D22*
X339852Y317754D03*
D23*
X339852Y343154D03*
X339852Y368554D03*
X339852Y393954D03*
D24*
X37338Y278286D03*
X37338Y313286D03*
D22*
X101600Y15000D03*
D23*
X127000Y15000D03*
X152400Y15000D03*
X177800Y15000D03*
X203200Y15000D03*
X228600Y15000D03*
X254000Y15000D03*
D25*
X93012Y269254D03*
X93012Y323254D03*
M02*
